<?xml version="1.0" encoding="utf-8"?>
<!-- Generator: Adobe Illustrator 16.0.0, SVG Export Plug-In . SVG Version: 6.00 Build 0)  -->
<!DOCTYPE svg PUBLIC "-//W3C//DTD SVG 1.1//EN" "http://www.w3.org/Graphics/SVG/1.1/DTD/svg11.dtd">
<svg version="1.1" id="Layer_1" xmlns="http://www.w3.org/2000/svg" xmlns:xlink="http://www.w3.org/1999/xlink" x="0px" y="0px"
	 width="529.997px" height="211.332px" viewBox="0 0 529.997 211.332" enable-background="new 0 0 529.997 211.332"
	 xml:space="preserve">
<g>
	<g>
		<path d="M77.58,148.611l-16.64,13.825c-0.342,0.34-0.876,0.639-1.6,0.895c-0.726,0.256-1.516,0.385-2.368,0.385H37.516
			c-2.048,0-3.542-0.471-4.48-1.408c-0.94-0.939-1.408-2.432-1.408-4.48v-13.694c0-4.181,0.34-7.297,1.024-9.345
			c0.682-2.048,2.048-4.436,4.096-7.168l9.856-13.184l-9.856-13.184c-2.048-2.73-3.414-5.12-4.096-7.168
			c-0.684-2.048-1.024-5.162-1.024-9.344v-9.856c0-1.108,0.148-2.048,0.448-2.816c0.298-0.768,0.746-1.408,1.344-1.92l16.512-13.952
			c0.426-0.34,1.002-0.618,1.728-0.832c0.724-0.212,1.514-0.32,2.368-0.32H73.74c2.048,0,3.54,0.47,4.48,1.408
			c0.938,0.94,1.408,2.432,1.408,4.48v8.832c0,0.768,0.02,1.558,0.064,2.368c0.042,0.812,0.32,1.558,0.832,2.24l1.408,2.048v-1.536
			c0-1.108,0.148-2.048,0.448-2.816c0.298-0.768,0.746-1.408,1.344-1.92l16.512-13.952c0.426-0.34,1.002-0.618,1.728-0.832
			c0.724-0.212,1.514-0.32,2.368-0.32h19.456c2.048,0,3.54,0.47,4.48,1.408c0.938,0.94,1.408,2.432,1.408,4.48v9.856
			c0,4.182-0.342,7.296-1.024,9.344c-0.684,2.048-2.048,4.438-4.096,7.168l-9.856,13.312l9.856,13.056
			c2.048,2.732,3.412,5.12,4.096,7.167c0.682,2.049,1.024,5.164,1.024,9.345v13.695c0,1.111-0.15,2.049-0.448,2.816
			c-0.3,0.768-0.748,1.408-1.344,1.92l-16.64,13.825c-0.342,0.34-0.876,0.639-1.6,0.895c-0.726,0.256-1.516,0.385-2.368,0.385H87.82
			c-2.048,0-3.542-0.471-4.48-1.408c-0.94-0.939-1.408-2.432-1.408-4.48v-12.671c0-0.768-0.022-1.537-0.064-2.305
			c-0.044-0.768-0.32-1.535-0.832-2.303l-1.664-2.305v5.631c0,1.111-0.15,2.049-0.448,2.816
			C78.624,147.459,78.176,148.1,77.58,148.611z M78.092,143.875v-12.671c0-0.852,0.042-1.748,0.128-2.688
			c0.084-0.938,0.426-1.834,1.024-2.688l5.76-8.063c0.512-0.768,0.98-1.322,1.408-1.664c0.426-0.34,0.98-0.512,1.664-0.512h1.792
			c0.682,0,1.236,0.172,1.664,0.512c0.426,0.342,0.896,0.896,1.408,1.664l5.632,8.063c0.596,0.854,0.938,1.75,1.024,2.688
			c0.084,0.939,0.128,1.836,0.128,2.688v12.671c0,1.623,0.362,2.797,1.088,3.521c0.724,0.725,1.898,1.088,3.52,1.088h19.456
			c1.62,0,2.794-0.363,3.52-1.088c0.724-0.725,1.088-1.898,1.088-3.521V130.18c0-3.924-0.32-6.868-0.96-8.832
			c-0.64-1.962-1.942-4.266-3.904-6.912l-10.368-13.824l10.368-14.08c1.876-2.644,3.156-4.948,3.84-6.912
			c0.682-1.962,1.024-4.906,1.024-8.832v-9.856c0-1.62-0.364-2.794-1.088-3.52c-0.726-0.724-1.9-1.088-3.52-1.088h-19.456
			c-1.622,0-2.796,0.364-3.52,1.088c-0.726,0.726-1.088,1.9-1.088,3.52v8.832c0,0.854-0.044,1.75-0.128,2.688
			c-0.086,0.94-0.428,1.836-1.024,2.688l-5.76,8.064c-0.512,0.684-0.982,1.216-1.408,1.6c-0.428,0.384-0.982,0.576-1.664,0.576
			h-1.536c-0.684,0-1.26-0.192-1.728-0.576c-0.47-0.384-0.918-0.916-1.344-1.6L79.5,75.14c-0.598-0.852-0.94-1.748-1.024-2.688
			c-0.086-0.938-0.128-1.834-0.128-2.688v-8.832c0-1.62-0.364-2.794-1.088-3.52c-0.726-0.724-1.9-1.088-3.52-1.088H54.028
			c-1.622,0-2.796,0.364-3.52,1.088c-0.726,0.726-1.088,1.9-1.088,3.52v9.856c0,3.926,0.32,6.87,0.96,8.832
			c0.64,1.964,1.94,4.268,3.904,6.912l10.368,13.952l-10.368,13.952c-1.878,2.646-3.158,4.95-3.84,6.912
			c-0.684,1.964-1.024,4.908-1.024,8.832v13.695c0,1.623,0.362,2.797,1.088,3.521c0.724,0.725,1.898,1.088,3.52,1.088h19.456
			c1.62,0,2.794-0.363,3.52-1.088C77.728,146.672,78.092,145.498,78.092,143.875z M64.396,131.204v5.761h-1.28v-5.761
			c0-1.876,0.064-3.647,0.192-5.312s0.704-3.178,1.728-4.544l15.36-20.992L65.036,79.62c-0.94-1.364-1.494-2.88-1.664-4.544
			c-0.172-1.664-0.256-3.434-0.256-5.312v-1.92h1.28v1.92c0,1.792,0.084,3.5,0.256,5.12c0.17,1.622,0.682,3.03,1.536,4.224
			l15.36,20.736H96.78l14.848-20.736c0.852-1.194,1.364-2.602,1.536-4.224c0.17-1.62,0.256-3.328,0.256-5.12v-1.92h1.28v1.92
			c0,1.878-0.086,3.648-0.256,5.312c-0.172,1.664-0.726,3.18-1.664,4.544l-15.104,20.992l15.104,20.736
			c0.938,1.366,1.492,2.88,1.664,4.544c0.17,1.664,0.256,3.436,0.256,5.312v5.761h-1.28v-5.761c0-1.792-0.086-3.498-0.256-5.12
			c-0.172-1.619-0.684-3.027-1.536-4.224l-14.976-20.736h-15.36L66.188,121.86c-0.854,1.11-1.366,2.496-1.536,4.16
			C64.48,127.684,64.396,129.412,64.396,131.204z"/>
		<path d="M188.683,163.716h-54.528c-2.048,0-3.542-0.471-4.48-1.408c-0.94-0.939-1.408-2.432-1.408-4.48v-15.231
			c0-1.107,0.148-2.047,0.448-2.816c0.298-0.768,0.746-1.408,1.344-1.92l15.488-13.056V96.26h-11.392
			c-2.048,0-3.542-0.468-4.48-1.408c-0.94-0.938-1.408-2.432-1.408-4.48V74.884c0-1.108,0.148-2.048,0.448-2.816
			c0.298-0.768,0.746-1.408,1.344-1.92l16.512-13.952c0.426-0.34,1.002-0.618,1.728-0.832c0.724-0.212,1.514-0.32,2.368-0.32h54.528
			c2.049,0,3.54,0.47,4.48,1.408c0.938,0.94,1.408,2.432,1.408,4.48V76.42c0,1.11-0.15,2.048-0.448,2.816
			c-0.3,0.768-0.748,1.408-1.344,1.92l-15.232,12.8v28.8h11.136c2.049,0,3.54,0.47,4.48,1.407c0.938,0.94,1.408,2.433,1.408,4.48
			v15.231c0,1.111-0.15,2.049-0.448,2.816c-0.3,0.768-0.748,1.408-1.344,1.92l-16.641,13.825c-0.342,0.34-0.876,0.639-1.6,0.895
			C190.324,163.587,189.535,163.716,188.683,163.716z M150.667,148.484h54.528c1.62,0,2.794-0.363,3.521-1.088
			c0.724-0.725,1.088-1.898,1.088-3.521v-15.231c0-1.62-0.364-2.794-1.088-3.521c-0.727-0.724-1.9-1.088-3.521-1.088h-12.416V81.028
			h12.416c1.62,0,2.794-0.362,3.521-1.088c0.724-0.724,1.088-1.898,1.088-3.52V60.932c0-1.62-0.364-2.794-1.088-3.52
			c-0.727-0.724-1.9-1.088-3.521-1.088h-54.528c-1.622,0-2.796,0.364-3.52,1.088c-0.726,0.726-1.088,1.9-1.088,3.52V76.42
			c0,1.622,0.362,2.796,1.088,3.52c0.724,0.726,1.898,1.088,3.52,1.088h12.672v43.008h-12.672c-1.622,0-2.796,0.364-3.52,1.088
			c-0.726,0.727-1.088,1.9-1.088,3.521v15.231c0,1.623,0.362,2.797,1.088,3.521C147.871,148.121,149.045,148.484,150.667,148.484z
			 M198.282,136.964h-40.704v-1.28h19.839v-66.56h-19.839v-1.28h40.704v1.28h-19.584v66.56h19.584V136.964z"/>
	</g>
	<g>
		<g>
			<path d="M247.194,88.624l-1.85,2.05l-3,0.95h-10.25l-3.05-0.95l-1.8-2.05v-7.8l7.2-0.4v3.05l0.847,0.9h3.885l0.818-0.831v-4.86
				l-9.548-3.207l-3.202-2.95V58.624l1.8-2l3.05-1h10.25l3,1l1.85,2v8l-7.2,0.45v-3.3l-0.85-0.8h-3.85l-0.85,0.798v5.237
				l9.604,3.218l3.146,2.949V88.624z"/>
			<path d="M270.644,84.773l-0.449,6.85h-17.4v-36h17.3l-0.45,6.85h-9.45v7.45h8.15l-0.45,7.65h-7.7v7.2H270.644z"/>
			<path d="M301.544,91.624h-7.55v-22.55h-0.601v2.1l-3.85,9.4h-2.85l-3.85-9.4v-2.1h-0.601v22.55h-7.5v-35.4l7.95-0.6l5.15,13.15
				h0.549l4.801-12.55l8.35-0.6V91.624z"/>
			<path d="M327.544,91.624h-7.199v-13.2h-6v13.2h-7.201v-33l1.851-2.05l3-0.95h10.7l3,0.95l1.85,2.05V91.624z M320.345,70.773v-7
				l-0.857-0.8h-4.336l-0.807,0.75v7.05H320.345z"/>
			<path d="M355.243,91.624h-6.75l-7.399-16.95v-2.1h-0.55v19.05h-7.4v-35.45l6.7-0.55l7.6,19.15h0.4v-18.6l7.399-0.55V91.624z"/>
			<path d="M381.243,91.624h-7.2v-13.2h-6v13.2h-7.2v-33l1.85-2.05l3-0.95h10.7l3,0.95l1.851,2.05V91.624z M374.043,70.773v-7
				l-0.857-0.8h-4.336l-0.807,0.75v7.05H374.043z"/>
			<path d="M417.343,88.624l-1.851,2.05l-2.95,0.95h-15.6v-36h15.6l2.95,0.95l1.851,2.05V88.624z M410.143,83.574v-19.8l-0.843-0.8
				h-5.058v21.4h5.058L410.143,83.574z"/>
			<path d="M443.342,91.624h-7.2v-13.2h-6v13.2h-7.2v-33l1.85-2.05l3-0.95h10.7l3,0.95l1.851,2.05V91.624z M436.142,70.773v-7
				l-0.857-0.8h-4.336l-0.807,0.75v7.05H436.142z"/>
			<path d="M246.744,144.623l-1.85,2.051l-2.95,0.949h-9.9l-3-0.949l-1.85-2.051v-30l1.85-2.05l3-0.95h9.9l2.95,0.95l1.85,2.05v9.3
				l-6.95,0.4v-4.55l-0.85-0.8h-3.95l-0.8,0.75v19.8l0.85,0.849h3.95l0.8-0.799v-4.7l6.95-0.45V144.623z"/>
			<path d="M272.743,144.623l-1.85,2.051l-3,0.949h-10.7l-3-0.949l-1.85-2.051v-30l1.85-2l3-1h10.7l3,1l1.85,2V144.623z
				 M265.544,139.574v-19.8l-0.844-0.8h-4.264l-0.793,0.75v19.8l0.843,0.849h4.213L265.544,139.574z"/>
			<path d="M305.144,147.623h-7.55v-22.549h-0.601v2.1l-3.85,9.4h-2.85l-3.85-9.4v-2.1h-0.601v22.549h-7.5v-35.399l7.95-0.6
				l5.15,13.15h0.549l4.801-12.55l8.35-0.6V147.623z"/>
			<path d="M331.144,130.923l-1.199,1.75l-2.4,1.2l-9.65,1.05v12.7h-7.15v-36h15.551l3,0.95l1.85,2.05V130.923z M323.844,126.281
				v-6.412l-0.793-0.795h-5.157v8.4l5.157-0.448L323.844,126.281z"/>
			<path d="M355.593,144.619l-1.8,2.053l-3,0.951h-10.7l-3-0.951l-1.85-2.053v-32.545l7.2-0.451v27.898l0.899,0.851h4.25
				l0.851-0.801v-27.498l7.149-0.451V144.619z"/>
			<path d="M379.943,111.624l-0.4,6.85h-6.149v29.149h-7.8v-29.149h-6.4l0.4-6.85H379.943z"/>
			<path d="M403.943,147.623h-7.2v-13.2h-6v13.2h-7.2v-33l1.85-2.05l3-0.95h10.7l3,0.95l1.851,2.05V147.623z M396.743,126.773v-7
				l-0.857-0.8h-4.336l-0.807,0.75v7.05H396.743z"/>
			<path d="M429.092,144.623l-1.85,2.051l-2.95,0.949h-1.55l1.1,1.801v4.3l-1.399,1.65l-2.45,0.75h-6.351l0.45-5.05h3.351
				l0.85-0.801v-0.85l-1.3-1.801h-2.601l-3-0.949l-1.85-2.051v-30l1.85-2.05l3-0.95h9.9l2.95,0.95l1.85,2.05v9.3l-6.95,0.4v-4.55
				l-0.85-0.8h-3.95l-0.8,0.75v19.8l0.85,0.849h3.95l0.8-0.799v-4.7l6.95-0.45V144.623z"/>
			<path d="M455.093,147.623h-7.2v-13.2h-6v13.2h-7.2v-33l1.85-2.05l3-0.95h10.7l3,0.95l1.851,2.05V147.623z M452.843,104.801
				l-1.619,5.423l-4.146-2.286l-5.471,2.222l-1.604-0.036l-3.31-2.1l1.6-5.25l4.051,2.2l5.55-2.2h1.649L452.843,104.801z
				 M447.893,126.773v-7l-0.857-0.8h-4.336l-0.807,0.75v7.05H447.893z"/>
			<path d="M481.092,144.623l-1.851,2.051l-3,0.949h-10.7l-3-0.949l-1.85-2.051v-30l1.85-2l3-1h10.7l3,1l1.851,2V144.623z
				 M473.892,139.574v-19.8l-0.843-0.8h-4.265l-0.793,0.75v19.8l0.843,0.849h4.215L473.892,139.574z"/>
		</g>
		<g>
			<g>
				<defs>
					
						<rect id="SVGID_1_" x="424.244" y="58.505" transform="matrix(-0.8916 0.4527 -0.4527 -0.8916 903.1302 -35.9086)" width="63.236" height="63.237"/>
				</defs>
				<clipPath id="SVGID_2_">
					<use xlink:href="#SVGID_1_"  overflow="visible"/>
				</clipPath>
				<g clip-path="url(#SVGID_2_)">
					<g>
						<path fill="#FFFFFF" d="M451.516,102.081c-0.884-0.436-2.039-1.401-3.902-2.451c-0.977-0.612-3.453-1.567-4.341-2.005
							c-0.711-0.525-0.891-0.878-1.073-1.675c-0.359-1.144,0.249-2.563,1.484-3.19c0.88-0.447,2.118-0.188,3.092-0.018
							c0.532,0.175,1.416,0.611,1.95,0.783c0.529,0.176,0.617,0.35,1.149,0.522c0.622,0.353,0.978,0.615,0.443,0
							c-0.622-0.792-1.516-2.112-2.585-3.345c-0.712-0.966-0.977-1.055-1.51-1.671c-0.626-0.79-1.067-1.228-1.692-2.021
							c-0.446-0.438-1.336-1.76-1.873-2.374c-0.622-0.794-1.427-2.378-1.08-3.442c0.262-0.797,1.23-1.508,2.111-1.512
							c1.149,0.081,2.302,1.044,2.749,1.481c0.798,0.707,1.779,1.76,2.672,3.08c1.246,1.581,3.117,3.958,3.385,4.484
							c-0.36-0.705-1.16-1.85-1.342-2.644c-0.095-0.617-0.1-1.5,0.517-2.033c0.44-0.448,0.969-0.716,1.497-0.982
							c0.62-0.092,1.325-0.008,1.858,0.165c1.24,0.698,2.404,2.989,2.315,2.814c-0.184-0.794-0.9-2.206-0.905-3.089
							c0-0.441,0.524-1.15,0.786-1.506c0.443-0.445,1.146-0.802,1.765-0.897c0.352-0.18,1.324-0.005,1.68,0.256
							c0.619,0.352,1.688,2.022,2.226,2.637c0.093,0.179-0.184-0.793-0.098-1.499c0.167-1.415,2.455-3.022,3.887-0.645
							c0.624,1.235,0.533,1.057,0.985,1.939c0.446,0.882,0.711,1.408,1.071,2.112c0.358,0.706,0.985,2.382,1.17,3.177
							c0.091,0.617,0.187,2.119,0.017,3.092c0,0-0.863,3.099-0.506,4.246c0.363,1.146,0.363,1.146,0.724,1.853
							c0.356,0.705,0.979,1.495,0.979,1.495s-1.321,0.894-2.114,1.072c-0.796,0.182-2.302-0.604-2.747-1.039
							c-0.622-0.353-1.15-0.085-1.232,0.624c0.003,0.883-0.249,2.562-0.956,2.922c-1.143,0.801-3.697,1.877-5.461,2.773
							c0,0-0.542-1.942-1.607-2.288c-0.795-0.261-2.123-0.694-2.921-0.954L451.516,102.081z"/>
					</g>
				</g>
			</g>
			<g>
				<defs>
					
						<rect id="SVGID_3_" x="424.244" y="58.505" transform="matrix(-0.8916 0.4527 -0.4527 -0.8916 903.1302 -35.9086)" width="63.236" height="63.237"/>
				</defs>
				<clipPath id="SVGID_4_">
					<use xlink:href="#SVGID_3_"  overflow="visible"/>
				</clipPath>
				<g clip-path="url(#SVGID_4_)">
					<g>
						<path d="M458.61,106.247c-0.094,0-0.186-0.019-0.271-0.057c-0.186-0.081-0.324-0.241-0.379-0.435
							c-0.182-0.645-0.679-1.671-1.166-1.829l-2.853-0.933l-2.491-0.242c-0.081-0.008-0.16-0.03-0.232-0.065
							c-0.456-0.225-0.936-0.549-1.543-0.96c-0.635-0.43-1.425-0.963-2.393-1.509c-0.616-0.385-1.874-0.924-2.885-1.356
							c-0.584-0.251-1.104-0.474-1.423-0.631c-0.985-0.716-1.227-1.228-1.433-2.13c-0.451-1.432,0.348-3.187,1.836-3.941
							c0.865-0.439,2.244-0.306,3.337-0.112l0.177,0.031c0.371,0.114,0.74,0.271,1.11,0.431c0.162,0.07,0.324,0.14,0.477,0.203
							c-0.382-0.507-0.806-1.049-1.255-1.566c-0.444-0.6-0.687-0.834-0.943-1.082c-0.176-0.17-0.351-0.34-0.566-0.59
							c-0.322-0.403-0.579-0.701-0.837-0.997c-0.275-0.318-0.551-0.637-0.875-1.047c-0.227-0.215-0.612-0.731-1.021-1.278
							c-0.3-0.401-0.599-0.804-0.83-1.069c-0.638-0.813-1.679-2.672-1.215-4.095c0.356-1.087,1.591-1.974,2.751-1.978
							c1.515,0.104,2.848,1.307,3.223,1.673c0.549,0.484,1.673,1.576,2.759,3.185c0.289,0.367,0.563,0.714,0.819,1.04
							c0.121-0.681,0.438-1.104,0.74-1.364c0.479-0.49,1.065-0.787,1.634-1.075c0.064-0.032,0.135-0.055,0.205-0.065
							c0.708-0.103,1.505-0.023,2.166,0.191c0.183,0.1,0.357,0.22,0.527,0.354c0.009-0.609,0.476-1.294,0.914-1.889
							c0.585-0.6,1.384-1.018,2.12-1.153c0.171-0.064,0.373-0.097,0.612-0.097c0.513,0,1.245,0.157,1.656,0.459
							c0.317,0.176,0.694,0.598,1.151,1.187c0.327-1.032,1.389-2.037,2.675-2.037c0.538,0,1.562,0.2,2.369,1.541l2.079,4.093
							c0.364,0.719,1.024,2.463,1.227,3.33c0.099,0.654,0.217,2.252,0.023,3.36c-0.351,1.273-0.731,3.271-0.525,3.931
							c0.345,1.089,0.345,1.089,0.68,1.747c0.323,0.636,0.902,1.376,0.907,1.384c0.116,0.146,0.166,0.336,0.138,0.521
							c-0.029,0.186-0.133,0.351-0.289,0.455c-0.146,0.099-1.453,0.971-2.344,1.172c-0.954,0.222-2.623-0.556-3.287-1.141
							c-0.056-0.025-0.099-0.036-0.125-0.037c-0.001,0.01-0.031,0.063-0.045,0.182c0.004,0.037-0.003,2.775-1.321,3.446
							c-0.729,0.52-2.162,1.195-3.547,1.849c-0.672,0.317-1.336,0.631-1.914,0.925C458.818,106.224,458.715,106.247,458.61,106.247z
							 M451.708,101.422l2.438,0.237c0.049,0.005,0.097,0.015,0.144,0.029l2.923,0.956c0.895,0.29,1.466,1.276,1.773,1.989
							c0.405-0.197,0.835-0.4,1.268-0.604c1.333-0.629,2.712-1.28,3.429-1.782c0.316-0.169,0.674-1.255,0.67-2.368
							c0.137-1.251,1.22-1.791,2.238-1.213c0.051,0.028,0.099,0.063,0.14,0.104c0.302,0.296,1.4,0.874,2.015,0.874
							c0.397-0.08,0.943-0.35,1.402-0.614c-0.2-0.291-0.432-0.652-0.608-1c-0.383-0.756-0.397-0.802-0.764-1.953
							c-0.396-1.277,0.347-4.083,0.499-4.633c0.14-0.82,0.049-2.246-0.035-2.813c-0.169-0.717-0.779-2.329-1.104-2.97l-2.057-4.052
							c-0.22-0.361-0.628-0.845-1.188-0.845c-0.688,0-1.359,0.694-1.427,1.263c-0.044,0.358,0.044,0.875,0.086,1.123
							c0.043,0.261,0.084,0.507-0.125,0.755c-0.259,0.307-0.794,0.29-1.052-0.025c-0.18-0.207-0.415-0.523-0.672-0.87
							c-0.4-0.54-1.071-1.443-1.367-1.612c-0.158-0.11-0.565-0.24-0.926-0.24c-0.1,0-0.142,0.012-0.144,0.012
							c-0.063,0.033-0.104,0.043-0.175,0.054c-0.479,0.074-1.049,0.364-1.389,0.706c-0.461,0.637-0.581,0.921-0.59,1.036
							c0.002,0.426,0.279,1.17,0.502,1.767c0.159,0.428,0.306,0.83,0.38,1.145c0.051,0.184,0.024,0.387-0.081,0.549
							c-0.131,0.203-0.388,0.324-0.603,0.307c-0.235-0.014-0.449-0.151-0.562-0.36c-0.364-0.688-1.263-2.105-2.052-2.55
							c-0.273-0.07-0.851-0.149-1.327-0.1c-0.454,0.231-0.88,0.459-1.218,0.802c-0.411,0.358-0.402,0.988-0.33,1.459
							c0.094,0.4,0.503,1.096,0.831,1.654c0.17,0.287,0.327,0.556,0.442,0.781l-1.2,0.616c-0.25-0.488-2.318-3.112-3.313-4.373
							c-1.031-1.525-2.063-2.528-2.589-2.993c-0.597-0.584-1.549-1.258-2.349-1.313c-0.531,0.003-1.248,0.513-1.425,1.049
							c-0.223,0.688,0.33,1.997,0.972,2.815c0.227,0.258,0.551,0.69,0.873,1.122c0.343,0.46,0.732,0.981,0.942,1.188
							c0.364,0.454,0.628,0.758,0.892,1.061c0.269,0.311,0.539,0.622,0.855,1.021c0.166,0.191,0.315,0.335,0.466,0.479
							c0.285,0.276,0.581,0.563,1.059,1.211c0.703,0.806,1.36,1.699,1.889,2.416c0.255,0.346,0.483,0.656,0.684,0.912
							c0.256,0.292,0.542,0.622,0.343,1.058c-0.109,0.24-0.364,0.402-0.63,0.402c-0.231,0-0.397-0.096-0.759-0.307l-0.205-0.119
							c-0.283-0.098-0.459-0.193-0.634-0.293c-0.121-0.068-0.242-0.138-0.451-0.207c-0.281-0.091-0.664-0.254-1.044-0.418
							c-0.33-0.142-0.656-0.283-0.904-0.364l-0.086-0.009c-0.882-0.155-1.956-0.284-2.489-0.014
							c-0.901,0.458-1.415,1.528-1.146,2.387c0.163,0.704,0.264,0.915,0.83,1.335c0.203,0.087,0.699,0.299,1.256,0.537
							c1.108,0.476,2.365,1.014,3.043,1.439c0.988,0.555,1.804,1.106,2.458,1.549C450.942,100.955,451.357,101.235,451.708,101.422z
							"/>
					</g>
				</g>
			</g>
			<g>
				<defs>
					
						<rect id="SVGID_5_" x="424.244" y="58.505" transform="matrix(-0.8916 0.4527 -0.4527 -0.8916 903.1302 -35.9086)" width="63.236" height="63.237"/>
				</defs>
				<clipPath id="SVGID_6_">
					<use xlink:href="#SVGID_5_"  overflow="visible"/>
				</clipPath>
				<g clip-path="url(#SVGID_6_)">
					<g>
						<path d="M466.413,95.86c-0.245,0-0.482-0.135-0.603-0.369l-3.042-5.992c-0.169-0.333-0.035-0.739,0.297-0.907
							c0.332-0.167,0.737-0.036,0.907,0.296l3.042,5.992c0.169,0.333,0.036,0.738-0.296,0.907
							C466.621,95.837,466.516,95.86,466.413,95.86z"/>
					</g>
				</g>
			</g>
			<g>
				<defs>
					
						<rect id="SVGID_7_" x="424.244" y="58.505" transform="matrix(-0.8916 0.4527 -0.4527 -0.8916 903.1302 -35.9086)" width="63.236" height="63.237"/>
				</defs>
				<clipPath id="SVGID_8_">
					<use xlink:href="#SVGID_7_"  overflow="visible"/>
				</clipPath>
				<g clip-path="url(#SVGID_8_)">
					<g>
						<path d="M462.887,97.649c-0.238,0-0.47-0.127-0.591-0.352l-3.221-5.903c-0.179-0.327-0.058-0.736,0.27-0.915
							c0.325-0.179,0.737-0.059,0.914,0.27l3.22,5.903c0.18,0.326,0.059,0.736-0.269,0.915
							C463.107,97.623,462.996,97.649,462.887,97.649z"/>
					</g>
				</g>
			</g>
			<g>
				<defs>
					
						<rect id="SVGID_9_" x="424.244" y="58.505" transform="matrix(-0.8916 0.4527 -0.4527 -0.8916 903.1302 -35.9086)" width="63.236" height="63.237"/>
				</defs>
				<clipPath id="SVGID_10_">
					<use xlink:href="#SVGID_9_"  overflow="visible"/>
				</clipPath>
				<g clip-path="url(#SVGID_10_)">
					<g>
						<path d="M459.364,99.438c-0.245,0-0.482-0.135-0.601-0.369l-3.044-5.992c-0.17-0.333-0.037-0.738,0.295-0.907
							c0.332-0.166,0.739-0.035,0.907,0.296l3.043,5.992c0.17,0.333,0.037,0.739-0.295,0.907
							C459.572,99.415,459.467,99.438,459.364,99.438z"/>
					</g>
				</g>
			</g>
		</g>
	</g>
</g>
<g>
</g>
<g>
</g>
<g>
</g>
<g>
</g>
<g>
</g>
<g>
</g>
<g>
</g>
<g>
</g>
<g>
</g>
<g>
</g>
<g>
</g>
<g>
</g>
<g>
</g>
<g>
</g>
<g>
</g>
</svg>
