<?xml version="1.0" encoding="utf-8"?>
<!-- Generator: Adobe Illustrator 16.0.0, SVG Export Plug-In . SVG Version: 6.00 Build 0)  -->
<!DOCTYPE svg PUBLIC "-//W3C//DTD SVG 1.1//EN" "http://www.w3.org/Graphics/SVG/1.1/DTD/svg11.dtd">
<svg version="1.1" id="Layer_1" xmlns="http://www.w3.org/2000/svg" xmlns:xlink="http://www.w3.org/1999/xlink" x="0px" y="0px"
	 width="529.997px" height="211.332px" viewBox="0 0 529.997 211.332" enable-background="new 0 0 529.997 211.332"
	 xml:space="preserve">
<g>
	<g>
		<path fill="#FFFFFF" d="M85.878,135.542l-16.64,13.825c-0.342,0.34-0.876,0.639-1.6,0.895c-0.726,0.256-1.516,0.385-2.368,0.385
			H45.814c-2.048,0-3.542-0.471-4.48-1.408c-0.94-0.938-1.408-2.432-1.408-4.479v-13.694c0-4.182,0.34-7.297,1.024-9.346
			c0.682-2.048,2.048-4.436,4.096-7.168l9.856-13.184l-9.856-13.184c-2.048-2.73-3.414-5.12-4.096-7.168
			c-0.684-2.048-1.024-5.162-1.024-9.344v-9.856c0-1.108,0.148-2.048,0.448-2.816c0.298-0.768,0.746-1.408,1.344-1.92L58.23,43.126
			c0.426-0.34,1.002-0.618,1.728-0.832c0.724-0.212,1.514-0.32,2.368-0.32h19.712c2.048,0,3.54,0.47,4.48,1.408
			c0.938,0.94,1.408,2.432,1.408,4.48v8.832c0,0.768,0.02,1.558,0.064,2.368c0.042,0.812,0.32,1.558,0.832,2.24l1.408,2.048v-1.536
			c0-1.108,0.148-2.048,0.448-2.816c0.298-0.768,0.746-1.408,1.344-1.92l16.512-13.952c0.426-0.34,1.002-0.618,1.728-0.832
			c0.724-0.212,1.514-0.32,2.368-0.32h19.456c2.048,0,3.54,0.47,4.48,1.408c0.938,0.94,1.408,2.432,1.408,4.48v9.856
			c0,4.182-0.342,7.296-1.024,9.344c-0.684,2.048-2.048,4.438-4.096,7.168l-9.856,13.312l9.856,13.056
			c2.048,2.732,3.412,5.12,4.096,7.167c0.682,2.049,1.024,5.164,1.024,9.344v13.695c0,1.11-0.15,2.049-0.448,2.816
			c-0.3,0.768-0.748,1.408-1.344,1.92l-16.64,13.825c-0.342,0.34-0.876,0.639-1.6,0.896c-0.726,0.256-1.516,0.385-2.368,0.385
			H96.118c-2.048,0-3.542-0.472-4.48-1.408c-0.94-0.939-1.408-2.432-1.408-4.48v-12.671c0-0.769-0.022-1.536-0.064-2.304
			c-0.044-0.77-0.32-1.536-0.832-2.305l-1.664-2.305v5.633c0,1.109-0.15,2.049-0.448,2.815
			C86.922,134.391,86.474,135.031,85.878,135.542z M86.39,130.807v-12.673c0-0.852,0.042-1.747,0.128-2.688
			c0.084-0.938,0.426-1.834,1.024-2.688l5.76-8.063c0.512-0.768,0.98-1.322,1.408-1.664c0.426-0.34,0.98-0.512,1.664-0.512h1.792
			c0.682,0,1.236,0.172,1.664,0.512c0.426,0.342,0.896,0.896,1.408,1.664l5.632,8.063c0.596,0.854,0.938,1.75,1.024,2.688
			c0.084,0.939,0.128,1.836,0.128,2.688v12.673c0,1.621,0.362,2.797,1.088,3.521c0.724,0.726,1.898,1.088,3.52,1.088h19.456
			c1.62,0,2.794-0.362,3.52-1.088c0.724-0.724,1.088-1.897,1.088-3.521v-13.695c0-3.924-0.32-6.868-0.96-8.832
			c-0.64-1.963-1.942-4.266-3.904-6.912l-10.368-13.824l10.368-14.08c1.876-2.644,3.156-4.948,3.84-6.912
			c0.682-1.962,1.024-4.906,1.024-8.832v-9.856c0-1.62-0.364-2.794-1.088-3.52c-0.726-0.724-1.9-1.088-3.52-1.088H112.63
			c-1.622,0-2.796,0.364-3.52,1.088c-0.726,0.726-1.088,1.9-1.088,3.52v8.832c0,0.854-0.044,1.75-0.128,2.688
			c-0.086,0.94-0.428,1.836-1.024,2.688l-5.76,8.064c-0.512,0.684-0.982,1.216-1.408,1.6c-0.428,0.384-0.982,0.576-1.664,0.576
			h-1.536c-0.684,0-1.26-0.192-1.728-0.576c-0.47-0.384-0.918-0.916-1.344-1.6l-5.632-8.064c-0.598-0.852-0.94-1.748-1.024-2.688
			c-0.086-0.938-0.128-1.834-0.128-2.688v-8.832c0-1.62-0.364-2.794-1.088-3.52c-0.726-0.724-1.9-1.088-3.52-1.088H62.326
			c-1.622,0-2.796,0.364-3.52,1.088c-0.726,0.726-1.088,1.9-1.088,3.52v9.856c0,3.926,0.32,6.87,0.96,8.832
			c0.64,1.964,1.94,4.268,3.904,6.912L72.95,87.415l-10.368,13.952c-1.878,2.646-3.158,4.949-3.84,6.912
			c-0.684,1.964-1.024,4.908-1.024,8.832v13.695c0,1.621,0.362,2.797,1.088,3.521c0.724,0.726,1.898,1.088,3.52,1.088h19.456
			c1.62,0,2.794-0.362,3.52-1.088C86.026,133.604,86.39,132.428,86.39,130.807z M72.694,118.134v5.761h-1.28v-5.761
			c0-1.876,0.064-3.647,0.192-5.312c0.128-1.665,0.704-3.178,1.728-4.545l15.36-20.991L73.334,66.55
			c-0.94-1.364-1.494-2.88-1.664-4.544c-0.172-1.664-0.256-3.434-0.256-5.312v-1.92h1.28v1.92c0,1.792,0.084,3.5,0.256,5.12
			c0.17,1.622,0.682,3.03,1.536,4.224l15.36,20.736h15.232l14.848-20.736c0.852-1.194,1.364-2.602,1.536-4.224
			c0.17-1.62,0.256-3.328,0.256-5.12v-1.92h1.28v1.92c0,1.878-0.086,3.648-0.256,5.312c-0.172,1.664-0.726,3.18-1.664,4.544
			l-15.104,20.992l15.104,20.735c0.938,1.367,1.492,2.881,1.664,4.545c0.17,1.664,0.256,3.436,0.256,5.312v5.761h-1.28v-5.761
			c0-1.792-0.086-3.497-0.256-5.12c-0.172-1.619-0.684-3.027-1.536-4.224L104.95,88.055H89.59l-15.104,20.736
			c-0.854,1.109-1.366,2.496-1.536,4.16C72.778,114.615,72.694,116.342,72.694,118.134z"/>
		<path fill="#FFFFFF" d="M196.98,150.646h-54.528c-2.048,0-3.542-0.472-4.48-1.408c-0.94-0.939-1.408-2.432-1.408-4.48v-15.23
			c0-1.108,0.148-2.049,0.448-2.816c0.298-0.768,0.746-1.408,1.344-1.92l15.488-13.057V83.19h-11.392
			c-2.048,0-3.542-0.468-4.48-1.408c-0.94-0.938-1.408-2.432-1.408-4.48V61.814c0-1.108,0.148-2.048,0.448-2.816
			c0.298-0.768,0.746-1.408,1.344-1.92l16.512-13.952c0.426-0.34,1.002-0.618,1.728-0.832c0.724-0.212,1.514-0.32,2.368-0.32h54.528
			c2.049,0,3.54,0.47,4.48,1.408c0.938,0.94,1.408,2.432,1.408,4.48V63.35c0,1.11-0.15,2.048-0.448,2.816
			c-0.3,0.768-0.748,1.408-1.344,1.92l-15.232,12.8v28.799h11.136c2.049,0,3.54,0.471,4.48,1.408
			c0.938,0.939,1.408,2.432,1.408,4.479v15.232c0,1.109-0.15,2.049-0.448,2.815c-0.3,0.769-0.748,1.407-1.344,1.92l-16.641,13.825
			c-0.342,0.34-0.876,0.639-1.6,0.895C198.622,150.518,197.833,150.646,196.98,150.646z M158.964,135.415h54.528
			c1.62,0,2.794-0.362,3.521-1.088c0.724-0.724,1.088-1.897,1.088-3.521v-15.231c0-1.62-0.364-2.794-1.088-3.521
			c-0.727-0.725-1.9-1.089-3.521-1.089h-12.416V67.958h12.416c1.62,0,2.794-0.362,3.521-1.088c0.724-0.724,1.088-1.898,1.088-3.52
			V47.863c0-1.62-0.364-2.794-1.088-3.52c-0.727-0.724-1.9-1.088-3.521-1.088h-54.528c-1.622,0-2.796,0.364-3.52,1.088
			c-0.726,0.726-1.088,1.9-1.088,3.52v15.488c0,1.622,0.362,2.796,1.088,3.52c0.724,0.726,1.898,1.088,3.52,1.088h12.672v43.008
			h-12.672c-1.622,0-2.796,0.364-3.52,1.088c-0.726,0.727-1.088,1.9-1.088,3.521v15.23c0,1.623,0.362,2.797,1.088,3.521
			C156.168,135.053,157.343,135.415,158.964,135.415z M206.58,123.895h-40.704v-1.279h19.839v-66.56h-19.839v-1.28h40.704v1.28
			h-19.584v66.56h19.584V123.895z"/>
	</g>
	<g>
		<path fill="#FFFFFF" d="M50.568,173.126l-0.216,3.288H42v-17.28h8.304l-0.216,3.288h-4.536v3.576h3.912l-0.216,3.672h-3.696v3.456
			H50.568L50.568,173.126z"/>
		<path fill="#FFFFFF" d="M80.76,174.975l-0.889,0.983l-1.416,0.456h-7.488v-17.28h7.488l1.416,0.456l0.889,0.984V174.975z
			 M77.304,172.55v-9.504l-0.404-0.384h-2.428v10.271H76.9L77.304,172.55z"/>
		<path fill="#FFFFFF" d="M105.984,176.414h-3.864v-17.063l3.864-0.218V176.414z"/>
		<path fill="#FFFFFF" d="M136.727,174.975l-0.888,0.983l-1.416,0.456h-0.744l0.528,0.863v2.063l-0.672,0.792l-1.177,0.36h-3.048
			l0.216-2.425h1.608l0.408-0.383v-0.408l-0.624-0.864h-1.248l-1.44-0.456l-0.888-0.984v-14.398l0.888-0.984l1.44-0.455h4.752
			l1.416,0.455l0.888,0.984v4.464l-3.336,0.192v-2.186l-0.408-0.384h-1.896l-0.384,0.36v9.504l0.407,0.406h1.896l0.384-0.384v-2.256
			l3.336-0.216v4.898H136.727z"/>
		<path fill="#FFFFFF" d="M167.639,176.414h-3.456v-6.336h-2.88v6.336h-3.456v-15.84l0.888-0.984l1.44-0.455h5.136l1.44,0.455
			l0.888,0.984V176.414L167.639,176.414z M166.559,155.859l-0.777,2.603l-1.99-1.097l-2.626,1.066l-0.77-0.019l-1.589-1.009
			l0.769-2.521l1.943,1.058l2.664-1.058h0.792L166.559,155.859z M164.183,166.406v-3.36l-0.411-0.384h-2.081l-0.388,0.359v3.385
			H164.183z"/>
		<path fill="#FFFFFF" d="M198.551,174.975l-0.888,0.983l-1.44,0.456h-5.136l-1.44-0.456l-0.888-0.983v-14.399l0.888-0.96l1.44-0.48
			h5.136l1.44,0.48l0.888,0.96V174.975z M195.095,172.55v-9.504l-0.404-0.384h-2.047l-0.381,0.359v9.504l0.404,0.408h2.023
			L195.095,172.55z"/>
	</g>
	<g>
		<path fill="#FFFFFF" d="M255.492,75.554l-1.85,2.05l-3,0.95h-10.25l-3.05-0.95l-1.8-2.05v-7.8l7.2-0.4v3.05l0.847,0.9h3.885
			l0.818-0.831v-4.86l-9.548-3.207l-3.202-2.95V45.554l1.8-2l3.05-1h10.25l3,1l1.85,2v8l-7.2,0.45v-3.3l-0.85-0.8h-3.85l-0.85,0.798
			v5.237l9.604,3.218l3.146,2.949V75.554L255.492,75.554z"/>
		<path fill="#FFFFFF" d="M278.941,71.704l-0.448,6.85h-17.401v-36h17.3l-0.45,6.85h-9.449v7.45h8.149l-0.45,7.65h-7.699v7.2
			H278.941L278.941,71.704z"/>
		<path fill="#FFFFFF" d="M309.842,78.554h-7.551v-22.55h-0.601v2.1l-3.851,9.4h-2.85l-3.85-9.4v-2.1h-0.602v22.55h-7.5v-35.4
			l7.951-0.6l5.149,13.15h0.549l4.802-12.55l8.35-0.6v36H309.842z"/>
		<path fill="#FFFFFF" d="M335.842,78.554h-7.199v-13.2h-6v13.2h-7.201v-33l1.852-2.05l3-0.95h10.699l3,0.95l1.851,2.05
			L335.842,78.554L335.842,78.554z M328.643,57.704v-7l-0.857-0.8h-4.336l-0.807,0.75v7.05H328.643z"/>
		<path fill="#FFFFFF" d="M363.542,78.554h-6.75l-7.399-16.95v-2.1h-0.55v19.05h-7.4v-35.45l6.7-0.55l7.601,19.15h0.399v-18.6
			l7.399-0.55V78.554L363.542,78.554z"/>
		<path fill="#FFFFFF" d="M389.542,78.554h-7.201v-13.2h-6v13.2h-7.199v-33l1.85-2.05l3-0.95h10.7l3,0.95l1.851,2.05V78.554
			L389.542,78.554z M382.34,57.704v-7l-0.856-0.8h-4.336l-0.808,0.75v7.05H382.34z"/>
		<path fill="#FFFFFF" d="M425.641,75.554l-1.852,2.05l-2.949,0.95H405.24v-36h15.601l2.949,0.95l1.852,2.05V75.554z M418.44,70.504
			v-19.8l-0.843-0.8h-5.058v21.4h5.058L418.44,70.504z"/>
		<path fill="#FFFFFF" d="M451.639,78.554h-7.199v-13.2h-6v13.2h-7.199v-33l1.85-2.05l3-0.95h10.699l3,0.95l1.852,2.05v33H451.639z
			 M444.44,57.704v-7l-0.857-0.8h-4.336l-0.807,0.75v7.05H444.44z"/>
		<path fill="#FFFFFF" d="M255.042,131.555l-1.85,2.049l-2.95,0.951h-9.9l-3-0.951l-1.85-2.049v-30l1.85-2.05l3-0.95h9.9l2.95,0.95
			l1.85,2.05v9.299l-6.95,0.4v-4.55l-0.85-0.8h-3.95l-0.8,0.75v19.8l0.85,0.851h3.95l0.8-0.801v-4.699l6.95-0.451V131.555z"/>
		<path fill="#FFFFFF" d="M281.042,131.555l-1.851,2.049l-3,0.951h-10.7l-3-0.951l-1.85-2.049v-30l1.85-2l3-1h10.7l3,1l1.851,2
			V131.555z M273.842,126.504v-19.8l-0.844-0.8h-4.265l-0.793,0.75v19.8l0.843,0.851h4.213L273.842,126.504z"/>
		<path fill="#FFFFFF" d="M313.441,134.555h-7.55v-22.551h-0.602v2.1l-3.85,9.4h-2.85l-3.85-9.4v-2.1h-0.602v22.551h-7.5V99.154
			l7.949-0.6l5.15,13.15h0.549l4.801-12.55l8.351-0.6v36H313.441z"/>
		<path fill="#FFFFFF" d="M339.441,117.854l-1.198,1.75l-2.4,1.201l-9.65,1.049v12.701h-7.15v-36h15.551l3,0.95l1.851,2.05v16.299
			H339.441z M332.142,113.211v-6.412l-0.793-0.795h-5.157v8.4l5.157-0.448L332.142,113.211z"/>
		<path fill="#FFFFFF" d="M363.891,131.55l-1.801,2.054l-3,0.951h-10.699l-3-0.951l-1.85-2.054V99.005l7.199-0.451v27.898
			l0.899,0.853h4.25l0.851-0.803V99.005l7.149-0.451L363.891,131.55L363.891,131.55z"/>
		<path fill="#FFFFFF" d="M388.241,98.554l-0.4,6.85h-6.148v29.151h-7.8v-29.151h-6.399l0.399-6.85H388.241z"/>
		<path fill="#FFFFFF" d="M412.241,134.555h-7.199v-13.201h-6v13.201h-7.201v-33l1.851-2.05l3-0.95h10.7l3,0.95l1.852,2.05v33
			H412.241z M405.042,113.704v-7l-0.857-0.8h-4.336l-0.807,0.75v7.05H405.042z"/>
		<path fill="#FFFFFF" d="M437.389,131.555l-1.85,2.049l-2.949,0.951h-1.551l1.1,1.799v4.301l-1.398,1.65l-2.449,0.75h-6.352
			l0.449-5.051h3.352l0.85-0.8v-0.851l-1.299-1.801h-2.602l-3-0.949l-1.85-2.051v-30l1.85-2.05l3-0.95h9.9l2.949,0.95l1.85,2.05v9.3
			l-6.949,0.399v-4.55l-0.85-0.8h-3.951l-0.799,0.75v19.801l0.85,0.85h3.949l0.801-0.8v-4.7l6.949-0.449V131.555L437.389,131.555z"
			/>
		<path fill="#FFFFFF" d="M463.391,134.555h-7.199v-13.201h-6v13.201h-7.201v-33l1.85-2.05l3-0.95h10.701l3,0.95l1.85,2.05V134.555
			L463.391,134.555z M461.141,91.731l-1.619,5.423l-4.146-2.286l-5.471,2.222l-1.604-0.036l-3.311-2.1l1.6-5.25l4.051,2.2l5.551-2.2
			h1.648L461.141,91.731z M456.19,113.704v-7l-0.857-0.8h-4.336l-0.807,0.75v7.05H456.19z"/>
		<path fill="#FFFFFF" d="M489.389,131.555l-1.85,2.049l-3,0.951h-10.701l-3-0.951l-1.85-2.049v-30l1.85-2l3-1h10.701l3,1l1.85,2
			V131.555z M482.19,126.504v-19.8l-0.844-0.8h-4.266l-0.793,0.75v19.8l0.844,0.851h4.215L482.19,126.504z"/>
	</g>
	<g>
		<g>
			<g>
				<defs>
					
						<rect id="SVGID_1_" x="432.566" y="45.419" transform="matrix(0.8916 -0.4527 0.4527 0.8916 15.4185 218.4951)" width="63.232" height="63.233"/>
				</defs>
				<clipPath id="SVGID_2_">
					<use xlink:href="#SVGID_1_"  overflow="visible"/>
				</clipPath>
				<g clip-path="url(#SVGID_2_)">
					<path fill="#FFFFFF" d="M466.909,93.178c-0.094,0-0.188-0.019-0.271-0.057c-0.186-0.081-0.324-0.241-0.379-0.435
						c-0.182-0.645-0.68-1.671-1.166-1.829l-2.854-0.933l-2.49-0.242c-0.082-0.008-0.16-0.03-0.232-0.065
						c-0.457-0.225-0.936-0.549-1.543-0.96c-0.635-0.43-1.426-0.963-2.393-1.509c-0.617-0.385-1.875-0.924-2.885-1.356
						c-0.584-0.251-1.105-0.474-1.424-0.631c-0.984-0.716-1.227-1.228-1.434-2.13c-0.451-1.432,0.348-3.187,1.836-3.941
						c0.865-0.439,2.244-0.306,3.338-0.112l0.178,0.031c0.369,0.114,0.738,0.271,1.109,0.431c0.162,0.07,0.324,0.14,0.477,0.203
						c-0.383-0.507-0.807-1.049-1.256-1.566c-0.443-0.6-0.686-0.834-0.941-1.082c-0.176-0.17-0.352-0.34-0.566-0.59
						c-0.322-0.403-0.58-0.701-0.838-0.997c-0.273-0.318-0.551-0.637-0.875-1.047c-0.227-0.215-0.611-0.731-1.02-1.278
						c-0.301-0.401-0.6-0.804-0.83-1.069c-0.639-0.813-1.68-2.672-1.215-4.095c0.355-1.087,1.59-1.974,2.75-1.978
						c1.516,0.104,2.848,1.307,3.223,1.673c0.549,0.484,1.674,1.576,2.76,3.185c0.289,0.367,0.563,0.714,0.818,1.04
						c0.121-0.681,0.438-1.104,0.74-1.364c0.479-0.49,1.064-0.787,1.635-1.075c0.063-0.032,0.135-0.055,0.205-0.065
						c0.707-0.103,1.504-0.023,2.166,0.191c0.182,0.1,0.355,0.22,0.525,0.354c0.01-0.609,0.477-1.294,0.914-1.889
						c0.586-0.6,1.385-1.018,2.121-1.153c0.17-0.064,0.373-0.097,0.611-0.097c0.514,0,1.246,0.157,1.656,0.459
						c0.316,0.176,0.693,0.598,1.15,1.187c0.328-1.032,1.391-2.037,2.676-2.037c0.537,0,1.563,0.2,2.369,1.541l2.078,4.093
						c0.365,0.719,1.025,2.463,1.229,3.33c0.098,0.654,0.217,2.252,0.021,3.36c-0.35,1.273-0.73,3.271-0.523,3.931
						c0.344,1.089,0.344,1.089,0.68,1.747c0.322,0.636,0.902,1.376,0.906,1.384c0.115,0.146,0.166,0.336,0.139,0.521
						c-0.029,0.186-0.133,0.351-0.289,0.455c-0.146,0.099-1.453,0.971-2.344,1.172c-0.955,0.222-2.623-0.556-3.287-1.141
						c-0.057-0.025-0.1-0.036-0.125-0.037c-0.002,0.01-0.031,0.063-0.045,0.182c0.004,0.037-0.004,2.775-1.322,3.446
						c-0.729,0.52-2.162,1.195-3.547,1.849c-0.672,0.317-1.336,0.631-1.914,0.925C467.116,93.154,467.012,93.178,466.909,93.178z
						 M460.006,88.353l2.438,0.237c0.049,0.005,0.098,0.015,0.145,0.029l2.922,0.956c0.896,0.29,1.467,1.276,1.773,1.989
						c0.406-0.197,0.836-0.4,1.268-0.604c1.334-0.629,2.713-1.28,3.43-1.782c0.316-0.169,0.674-1.255,0.67-2.368
						c0.137-1.251,1.221-1.791,2.238-1.213c0.051,0.028,0.1,0.063,0.141,0.104c0.301,0.296,1.398,0.874,2.014,0.874
						c0.398-0.08,0.943-0.35,1.402-0.614c-0.199-0.291-0.432-0.652-0.607-1c-0.383-0.756-0.396-0.802-0.764-1.953
						c-0.396-1.277,0.346-4.083,0.498-4.633c0.141-0.82,0.049-2.246-0.035-2.813c-0.168-0.717-0.779-2.329-1.104-2.97l-2.057-4.052
						c-0.221-0.361-0.629-0.845-1.188-0.845c-0.689,0-1.359,0.694-1.428,1.263c-0.045,0.358,0.043,0.875,0.086,1.123
						c0.043,0.261,0.084,0.507-0.125,0.755c-0.26,0.307-0.795,0.29-1.053-0.025c-0.18-0.207-0.414-0.523-0.672-0.87
						c-0.4-0.54-1.07-1.443-1.367-1.612c-0.158-0.11-0.564-0.24-0.926-0.24c-0.1,0-0.141,0.012-0.143,0.012
						c-0.064,0.033-0.105,0.043-0.176,0.054c-0.479,0.074-1.049,0.364-1.389,0.706c-0.461,0.637-0.582,0.921-0.59,1.036
						c0.002,0.426,0.279,1.17,0.502,1.767c0.158,0.428,0.305,0.83,0.379,1.145c0.051,0.184,0.025,0.387-0.08,0.549
						c-0.131,0.203-0.389,0.324-0.604,0.307c-0.234-0.014-0.449-0.151-0.563-0.36c-0.363-0.688-1.262-2.105-2.051-2.55
						c-0.273-0.07-0.852-0.149-1.328-0.1c-0.453,0.231-0.879,0.459-1.217,0.802c-0.412,0.358-0.402,0.988-0.33,1.459
						c0.094,0.4,0.502,1.096,0.83,1.654c0.17,0.287,0.328,0.556,0.441,0.781l-1.199,0.616c-0.25-0.488-2.318-3.112-3.313-4.373
						c-1.031-1.525-2.063-2.528-2.59-2.993c-0.596-0.584-1.549-1.258-2.348-1.313c-0.531,0.003-1.248,0.513-1.426,1.049
						c-0.223,0.688,0.33,1.997,0.973,2.815c0.227,0.258,0.551,0.69,0.873,1.122c0.342,0.46,0.73,0.981,0.941,1.188
						c0.363,0.454,0.627,0.758,0.893,1.061c0.268,0.311,0.539,0.622,0.854,1.021c0.166,0.191,0.316,0.335,0.467,0.479
						c0.285,0.276,0.58,0.563,1.059,1.211c0.703,0.806,1.359,1.699,1.889,2.416c0.256,0.346,0.484,0.656,0.686,0.912
						c0.256,0.292,0.541,0.622,0.342,1.058c-0.109,0.24-0.363,0.402-0.629,0.402c-0.232,0-0.398-0.096-0.76-0.307l-0.205-0.119
						c-0.283-0.098-0.459-0.193-0.635-0.293c-0.121-0.068-0.242-0.138-0.451-0.207c-0.279-0.091-0.662-0.254-1.043-0.418
						c-0.33-0.142-0.656-0.283-0.904-0.364l-0.086-0.009c-0.881-0.155-1.955-0.284-2.488-0.014
						c-0.902,0.458-1.416,1.528-1.146,2.387c0.162,0.704,0.264,0.915,0.83,1.335c0.203,0.087,0.699,0.299,1.256,0.537
						c1.107,0.476,2.365,1.014,3.043,1.439c0.988,0.555,1.805,1.106,2.459,1.549C459.241,87.886,459.655,88.166,460.006,88.353z"/>
				</g>
			</g>
		</g>
		<g>
			<g>
				<g>
					<path fill="#FFFFFF" d="M474.711,82.791c-0.246,0-0.482-0.135-0.604-0.369l-3.041-5.992c-0.17-0.333-0.035-0.739,0.297-0.907
						c0.332-0.167,0.736-0.036,0.906,0.296l3.041,5.992c0.17,0.333,0.037,0.738-0.295,0.907
						C474.918,82.768,474.813,82.791,474.711,82.791z"/>
				</g>
			</g>
		</g>
		<g>
			<g>
				<g>
					<path fill="#FFFFFF" d="M471.184,84.58c-0.236,0-0.469-0.127-0.59-0.352l-3.221-5.903c-0.18-0.327-0.059-0.736,0.27-0.915
						c0.324-0.179,0.736-0.059,0.914,0.27l3.221,5.903c0.18,0.326,0.059,0.736-0.27,0.915
						C471.405,84.554,471.293,84.58,471.184,84.58z"/>
				</g>
			</g>
		</g>
		<g>
			<g>
				<g>
					<path fill="#FFFFFF" d="M467.663,86.369c-0.246,0-0.482-0.135-0.602-0.369l-3.045-5.992c-0.17-0.333-0.037-0.738,0.295-0.907
						c0.332-0.166,0.74-0.035,0.908,0.296l3.043,5.992c0.17,0.333,0.037,0.739-0.295,0.907
						C467.87,86.346,467.764,86.369,467.663,86.369z"/>
				</g>
			</g>
		</g>
	</g>
</g>
</svg>
