<?xml version="1.0" encoding="utf-8"?>
<!-- Generator: Adobe Illustrator 16.0.0, SVG Export Plug-In . SVG Version: 6.00 Build 0)  -->
<!DOCTYPE svg PUBLIC "-//W3C//DTD SVG 1.1//EN" "http://www.w3.org/Graphics/SVG/1.1/DTD/svg11.dtd">
<svg version="1.1" id="Layer_1" xmlns="http://www.w3.org/2000/svg" xmlns:xlink="http://www.w3.org/1999/xlink" x="0px" y="0px"
	 width="409.773px" height="118.172px" viewBox="0 0 409.773 118.172" enable-background="new 0 0 409.773 118.172"
	 xml:space="preserve">
<g>
	<g>
		<rect y="85.226" width="409.773" height="2"/>
	</g>
	<g>
		<g>
			<g>
				<g>
					<path fill-rule="evenodd" clip-rule="evenodd" d="M1.14,2.2C4.914,1.51,8.687,0.82,13.171,0c0,11.487,0,22.374,0,33.268
						c3.866-0.293,7.129-0.854,10.363-0.723c7.532,0.306,13.443,5.67,14.887,13.088c0.19,0.979,0.426,1.952,0.569,2.938
						c2.487,17.004-8.888,24.399-23.085,22.952c-2.084-0.213-4.204-1.076-6.077-2.072c-1.972-1.049-2.784-3.047-1.542-5.098
						c1.393-2.299,3.578-2.217,5.65-0.932c0.959,0.596,1.641,1.623,2.488,2.412c3.713,3.465,7.896,3.361,11.467-0.268
						c6.092-6.189,5.584-19.758-0.953-25.444c-4.758-4.138-11.246-4.086-16.436,0.207c-0.979,0.809-1.746,1.87-3.322,3.591
						C6.97,41.459,6.75,40.071,6.75,38.685C6.753,29.696,6.828,20.708,6.83,11.72C6.833,5.526,6.798,5.526,1.14,2.2z"/>
				</g>
				<g>
					<path fill-rule="evenodd" clip-rule="evenodd" d="M119.948,63.082c-0.753,1.232-1.289,2.686-2.291,3.66
						c-8.95,8.717-23.597,5.92-28.855-5.443c-3.83-8.277-2.711-16.697,3.019-22.707c5.264-5.52,15.883-7.713,23.203-4.72
						c1.053,0.43,2.426,0.993,2.832,1.873c0.613,1.333,1.164,3.42,0.527,4.401c-0.646,1-2.959,1.722-4.186,1.359
						c-1.799-0.531-3.316-2.09-4.893-3.292c-4.072-3.106-7.633-2.806-10.911,0.981c-5.048,5.832-5.255,16.763-0.434,22.8
						c4.205,5.268,10.334,6.352,16.538,2.904c1.518-0.844,2.996-1.76,4.492-2.643C119.309,62.531,119.628,62.806,119.948,63.082z"/>
				</g>
				<g>
					<path fill-rule="evenodd" clip-rule="evenodd" d="M81.666,63.246c-0.797,1.236-1.365,2.73-2.426,3.664
						c-8.06,7.084-22.012,7.711-28.484-5.361c-4.121-8.326-2.963-16.957,2.967-23.079c5.509-5.688,15.691-7.704,23.161-4.546
						c0.905,0.383,2.118,0.795,2.481,1.539c0.654,1.343,1.532,3.541,0.938,4.299c-0.875,1.112-3.188,2.04-4.477,1.659
						c-1.938-0.571-3.527-2.333-5.251-3.608c-4.138-3.063-8.413-2.359-11.033,1.965c-3.675,6.064-4.437,12.482-1.675,19.09
						c3.193,7.646,10.037,10.146,17.538,6.496c1.764-0.857,3.397-1.982,5.091-2.984C80.886,62.667,81.275,62.957,81.666,63.246z"/>
				</g>
			</g>
		</g>
		<g>
			<rect x="140.018" y="23.663" width="1" height="52.905"/>
		</g>
		<g>
			<path d="M158.558,43.784v-15.36c0-0.48,0.24-0.72,0.72-0.72h4.296c1.744,0,3.076,0.384,3.996,1.152s1.38,1.8,1.38,3.096
				c0,0.8-0.264,1.56-0.792,2.28c-0.528,0.72-1.145,1.176-1.848,1.368v0.096c0.24,0.032,0.592,0.176,1.056,0.432
				c0.464,0.256,0.844,0.516,1.14,0.78c0.296,0.264,0.564,0.645,0.804,1.14c0.24,0.496,0.36,1.041,0.36,1.632
				c0,3.216-2.088,4.824-6.264,4.824h-4.128C158.797,44.504,158.558,44.264,158.558,43.784z M160.669,34.953h2.784
				c0.96,0,1.752-0.272,2.376-0.816c0.624-0.543,0.936-1.236,0.936-2.076c0-0.84-0.272-1.472-0.816-1.896
				c-0.544-0.424-1.408-0.636-2.592-0.636h-2.688V34.953z M160.669,42.68h3.504c1.056,0,1.872-0.276,2.448-0.828
				c0.576-0.552,0.864-1.292,0.864-2.22c0-0.928-0.316-1.636-0.948-2.124c-0.632-0.488-1.556-0.732-2.772-0.732h-3.096V42.68z"/>
			<path d="M179.605,36.68v-1.128c0-1.344-0.88-2.016-2.64-2.016c-1.152,0-2.216,0.248-3.192,0.744
				c-0.336,0.176-0.52,0.264-0.552,0.264c-0.16,0-0.34-0.16-0.54-0.48c-0.201-0.32-0.3-0.56-0.3-0.72
				c0-0.336,0.468-0.676,1.404-1.02c0.936-0.344,2.06-0.516,3.372-0.516s2.384,0.332,3.216,0.996
				c0.832,0.665,1.248,1.588,1.248,2.772v5.376c0,0.96,0.04,1.656,0.12,2.088c0.112,0.592,0.168,0.904,0.168,0.936
				c0,0.192-0.152,0.332-0.456,0.42c-0.304,0.088-0.54,0.132-0.708,0.132s-0.285-0.016-0.348-0.048
				c-0.064-0.032-0.124-0.088-0.18-0.168s-0.1-0.156-0.132-0.228c-0.032-0.072-0.064-0.172-0.096-0.3
				c-0.032-0.127-0.06-0.228-0.084-0.3s-0.048-0.184-0.072-0.336c-0.024-0.152-0.044-0.252-0.06-0.3c-1.088,1.2-2.432,1.8-4.032,1.8
				c-1.232,0-2.224-0.304-2.976-0.912c-0.752-0.608-1.128-1.544-1.128-2.808c0-1.264,0.436-2.211,1.308-2.844
				c0.872-0.632,1.852-1.016,2.94-1.152S178.213,36.712,179.605,36.68z M173.797,40.928c0,1.313,0.68,1.968,2.04,1.968
				c0.784,0,1.46-0.144,2.028-0.432s1.148-0.696,1.74-1.224v-2.832c-2,0-3.288,0.112-3.864,0.336
				c-0.304,0.112-0.624,0.256-0.96,0.432C174.125,39.512,173.797,40.097,173.797,40.928z"/>
			<path d="M184.789,38.168c0-1.2,0.164-2.232,0.492-3.096c0.328-0.864,0.771-1.528,1.332-1.992
				c1.056-0.848,2.344-1.272,3.864-1.272c0.928,0,1.76,0.112,2.496,0.336c0.736,0.224,1.104,0.48,1.104,0.768
				c0,0.208-0.092,0.476-0.276,0.804c-0.184,0.328-0.348,0.492-0.492,0.492c-0.016,0-0.044-0.008-0.084-0.024
				c-0.04-0.016-0.072-0.028-0.096-0.036c-0.024-0.008-0.052-0.02-0.084-0.036c-0.864-0.384-1.736-0.576-2.616-0.576
				c-2.32,0-3.48,1.528-3.48,4.584c0,1.696,0.284,2.92,0.852,3.672s1.524,1.128,2.868,1.128c0.976,0,1.88-0.208,2.712-0.624
				c0.048-0.016,0.1-0.036,0.156-0.06c0.056-0.024,0.092-0.036,0.108-0.036c0.16,0,0.336,0.156,0.528,0.468
				c0.192,0.312,0.288,0.564,0.288,0.756c0,0.288-0.376,0.564-1.128,0.828c-0.752,0.264-1.632,0.396-2.64,0.396
				c-1.984,0-3.464-0.512-4.44-1.536C185.277,42.089,184.789,40.44,184.789,38.168z"/>
			<path d="M197.389,44.024v-17.04c0-0.352,0.32-0.528,0.96-0.528h0.096c0.64,0,0.96,0.176,0.96,0.528v6.48
				c1.104-1.104,2.328-1.656,3.672-1.656c0.911,0,1.735,0.232,2.472,0.696c0.4,0.272,0.725,0.68,0.973,1.224s0.371,1.2,0.371,1.968
				v8.328c0,0.352-0.32,0.528-0.959,0.528h-0.096c-0.641,0-0.961-0.176-0.961-0.528v-8.136c0-0.72-0.207-1.288-0.623-1.704
				c-0.418-0.416-0.957-0.624-1.621-0.624c-0.664,0-1.248,0.14-1.751,0.42c-0.504,0.28-0.876,0.556-1.116,0.828l-0.36,0.432v8.784
				c0,0.352-0.32,0.528-0.96,0.528h-0.096C197.708,44.552,197.389,44.376,197.389,44.024z"/>
			<path d="M217.885,36.68v-1.128c0-1.344-0.881-2.016-2.641-2.016c-1.152,0-2.215,0.248-3.191,0.744
				c-0.336,0.176-0.52,0.264-0.553,0.264c-0.16,0-0.34-0.16-0.539-0.48c-0.201-0.32-0.301-0.56-0.301-0.72
				c0-0.336,0.469-0.676,1.404-1.02c0.936-0.344,2.061-0.516,3.373-0.516c1.311,0,2.383,0.332,3.215,0.996
				c0.832,0.665,1.248,1.588,1.248,2.772v5.376c0,0.96,0.041,1.656,0.121,2.088c0.111,0.592,0.168,0.904,0.168,0.936
				c0,0.192-0.152,0.332-0.457,0.42s-0.539,0.132-0.707,0.132s-0.285-0.016-0.35-0.048c-0.063-0.032-0.123-0.088-0.18-0.168
				c-0.055-0.08-0.1-0.156-0.131-0.228c-0.033-0.072-0.064-0.172-0.096-0.3c-0.033-0.127-0.061-0.228-0.084-0.3
				c-0.025-0.072-0.049-0.184-0.072-0.336c-0.025-0.152-0.045-0.252-0.061-0.3c-1.088,1.2-2.432,1.8-4.031,1.8
				c-1.232,0-2.225-0.304-2.977-0.912c-0.752-0.608-1.129-1.544-1.129-2.808c0-1.264,0.436-2.211,1.309-2.844
				c0.871-0.632,1.852-1.016,2.939-1.152S216.492,36.712,217.885,36.68z M212.076,40.928c0,1.313,0.68,1.968,2.041,1.968
				c0.783,0,1.459-0.144,2.027-0.432s1.148-0.696,1.74-1.224v-2.832c-2,0-3.287,0.112-3.863,0.336
				c-0.305,0.112-0.625,0.256-0.961,0.432C212.404,39.512,212.076,40.097,212.076,40.928z"/>
			<path d="M223.98,44.024v-8.424c0-0.976-0.039-1.672-0.119-2.088c-0.113-0.576-0.168-0.888-0.168-0.936
				c0-0.192,0.15-0.332,0.455-0.42c0.305-0.087,0.541-0.132,0.709-0.132s0.283,0.016,0.348,0.048
				c0.063,0.032,0.123,0.084,0.18,0.156c0.057,0.072,0.1,0.144,0.133,0.216c0.031,0.072,0.063,0.168,0.096,0.288
				c0.031,0.12,0.059,0.216,0.084,0.288c0.023,0.072,0.047,0.176,0.072,0.312c0.023,0.136,0.043,0.228,0.059,0.276
				c0.848-1.2,1.777-1.8,2.785-1.8c0.447,0,0.791,0.088,1.031,0.264c0.24,0.176,0.359,0.4,0.359,0.672s-0.047,0.556-0.143,0.852
				c-0.096,0.296-0.209,0.444-0.336,0.444c-0.064,0-0.221-0.044-0.469-0.132c-0.248-0.087-0.545-0.132-0.889-0.132
				s-0.699,0.124-1.066,0.372c-0.369,0.248-0.641,0.492-0.816,0.732l-0.289,0.36v8.784c0,0.352-0.32,0.528-0.959,0.528h-0.096
				C224.301,44.552,223.98,44.376,223.98,44.024z"/>
			<path d="M233.363,43.088c-0.959-1.04-1.439-2.628-1.439-4.764c0-2.136,0.473-3.756,1.416-4.86s2.287-1.656,4.031-1.656
				c3.393,0,5.09,2.088,5.09,6.264c0,0.144-0.098,0.344-0.289,0.6c-0.191,0.256-0.359,0.384-0.504,0.384h-7.584
				c0.096,1.329,0.439,2.304,1.031,2.928s1.48,0.936,2.664,0.936c1.088,0,2.088-0.256,3-0.768c0.305-0.16,0.473-0.24,0.504-0.24
				c0.16,0,0.34,0.16,0.541,0.48c0.199,0.32,0.299,0.56,0.299,0.72c0,0.32-0.436,0.656-1.307,1.008
				c-0.873,0.352-1.877,0.528-3.012,0.528C235.805,44.648,234.324,44.128,233.363,43.088z M240.324,37.329
				c0-2.528-0.961-3.792-2.881-3.792c-2.063,0-3.184,1.264-3.359,3.792H240.324z"/>
			<path d="M245.508,41.336V26.984c0-0.352,0.32-0.528,0.961-0.528h0.096c0.641,0,0.961,0.176,0.961,0.528v14.16
				c0,1.184,0.432,1.776,1.295,1.776c0.271,0,0.504-0.02,0.695-0.06c0.193-0.04,0.305-0.06,0.336-0.06
				c0.145,0,0.266,0.148,0.361,0.444s0.145,0.524,0.145,0.684c0,0.48-0.586,0.72-1.752,0.72c-0.801,0-1.518-0.244-2.148-0.732
				C245.824,43.429,245.508,42.569,245.508,41.336z"/>
			<path d="M259.811,36.68v-1.128c0-1.344-0.879-2.016-2.639-2.016c-1.152,0-2.217,0.248-3.193,0.744
				c-0.336,0.176-0.52,0.264-0.551,0.264c-0.16,0-0.34-0.16-0.541-0.48c-0.199-0.32-0.299-0.56-0.299-0.72
				c0-0.336,0.467-0.676,1.404-1.02c0.936-0.344,2.059-0.516,3.371-0.516s2.385,0.332,3.217,0.996
				c0.832,0.665,1.248,1.588,1.248,2.772v5.376c0,0.96,0.039,1.656,0.119,2.088c0.111,0.592,0.168,0.904,0.168,0.936
				c0,0.192-0.152,0.332-0.455,0.42c-0.305,0.088-0.541,0.132-0.709,0.132s-0.283-0.016-0.348-0.048s-0.125-0.088-0.18-0.168
				c-0.057-0.08-0.1-0.156-0.133-0.228c-0.031-0.072-0.064-0.172-0.096-0.3c-0.031-0.127-0.061-0.228-0.084-0.3
				s-0.047-0.184-0.072-0.336c-0.023-0.152-0.043-0.252-0.061-0.3c-1.088,1.2-2.432,1.8-4.031,1.8c-1.232,0-2.225-0.304-2.977-0.912
				c-0.752-0.608-1.127-1.544-1.127-2.808c0-1.264,0.436-2.211,1.309-2.844c0.871-0.632,1.852-1.016,2.939-1.152
				S258.42,36.712,259.811,36.68z M254.004,40.928c0,1.313,0.68,1.968,2.039,1.968c0.785,0,1.461-0.144,2.029-0.432
				c0.566-0.288,1.146-0.696,1.738-1.224v-2.832c-2,0-3.287,0.112-3.863,0.336c-0.305,0.112-0.623,0.256-0.959,0.432
				C254.332,39.512,254.004,40.097,254.004,40.928z"/>
			<path d="M273.467,42.849c-1.15,1.2-2.432,1.8-3.84,1.8s-2.531-0.592-3.371-1.776s-1.26-2.704-1.26-4.56v-0.216
				c0-1.968,0.447-3.507,1.344-4.62c0.896-1.112,2.016-1.668,3.359-1.668s2.545,0.408,3.6,1.224v-6.048
				c0-0.352,0.32-0.528,0.961-0.528h0.096c0.641,0,0.961,0.176,0.961,0.528v13.968c0,0.96,0.039,1.656,0.119,2.088
				c0.111,0.592,0.168,0.904,0.168,0.936c0,0.192-0.152,0.332-0.455,0.42c-0.305,0.088-0.541,0.132-0.709,0.132
				s-0.283-0.016-0.348-0.048s-0.125-0.088-0.18-0.168c-0.057-0.08-0.102-0.156-0.133-0.228c-0.031-0.072-0.064-0.172-0.096-0.3
				c-0.033-0.127-0.061-0.228-0.084-0.3s-0.049-0.184-0.072-0.336C273.504,42.997,273.482,42.896,273.467,42.849z M267.107,38.048
				c0,3.232,1.039,4.848,3.121,4.848c1.039,0,2.063-0.552,3.07-1.656v-6.576c-0.863-0.72-1.832-1.08-2.902-1.08h-0.145
				c-1.025,0.016-1.805,0.408-2.34,1.176C267.375,35.528,267.107,36.625,267.107,38.048z"/>
			<path d="M284.184,44.648c-1.799,0-3.176-0.544-4.127-1.632c-0.953-1.088-1.428-2.668-1.428-4.74c0-2.072,0.479-3.668,1.439-4.788
				c0.959-1.12,2.328-1.68,4.104-1.68s3.133,0.556,4.068,1.668c0.936,1.112,1.404,2.712,1.404,4.8s-0.461,3.672-1.381,4.752
				S285.984,44.648,284.184,44.648z M281.557,41.78c0.543,0.76,1.398,1.14,2.568,1.14c1.166,0,2.031-0.38,2.592-1.14
				c0.559-0.76,0.84-1.94,0.84-3.54c0-1.6-0.281-2.784-0.84-3.552c-0.561-0.768-1.426-1.152-2.592-1.152
				c-1.17,0-2.025,0.38-2.568,1.14c-0.545,0.76-0.816,1.944-0.816,3.552S281.012,41.021,281.557,41.78z"/>
			<path d="M299.482,43.088c-0.959-1.04-1.439-2.628-1.439-4.764c0-2.136,0.473-3.756,1.416-4.86s2.287-1.656,4.031-1.656
				c3.393,0,5.09,2.088,5.09,6.264c0,0.144-0.098,0.344-0.289,0.6c-0.191,0.256-0.359,0.384-0.504,0.384h-7.584
				c0.096,1.329,0.439,2.304,1.031,2.928s1.48,0.936,2.664,0.936c1.088,0,2.088-0.256,3-0.768c0.305-0.16,0.473-0.24,0.504-0.24
				c0.16,0,0.34,0.16,0.541,0.48c0.199,0.32,0.299,0.56,0.299,0.72c0,0.32-0.436,0.656-1.307,1.008
				c-0.873,0.352-1.877,0.528-3.012,0.528C301.924,44.648,300.443,44.128,299.482,43.088z M306.443,37.329
				c0-2.528-0.961-3.792-2.881-3.792c-2.063,0-3.184,1.264-3.359,3.792H306.443z"/>
			<path d="M311.699,44.024v-8.424c0-0.976-0.041-1.672-0.121-2.088c-0.111-0.576-0.168-0.888-0.168-0.936
				c0-0.192,0.152-0.332,0.457-0.42c0.303-0.087,0.539-0.132,0.707-0.132s0.285,0.016,0.348,0.048
				c0.064,0.032,0.125,0.084,0.182,0.156c0.055,0.072,0.1,0.144,0.131,0.216c0.031,0.072,0.064,0.168,0.096,0.288
				c0.033,0.12,0.061,0.216,0.084,0.288c0.025,0.072,0.049,0.176,0.072,0.312c0.023,0.136,0.045,0.228,0.061,0.276
				c1.039-1.2,2.256-1.8,3.648-1.8c1.742,0,2.887,0.664,3.432,1.992c1.119-1.328,2.391-1.992,3.816-1.992
				c0.912,0,1.727,0.232,2.447,0.696c0.4,0.272,0.721,0.68,0.961,1.224c0.238,0.544,0.359,1.2,0.359,1.968v8.328
				c0,0.352-0.32,0.528-0.961,0.528h-0.096c-0.641,0-0.959-0.176-0.959-0.528v-8.136c0-0.72-0.197-1.288-0.588-1.704
				c-0.393-0.416-0.965-0.624-1.717-0.624c-0.992,0-1.977,0.552-2.951,1.656c0.016,0.112,0.023,0.28,0.023,0.504v8.304
				c0,0.352-0.32,0.528-0.961,0.528h-0.096c-0.641,0-0.959-0.176-0.959-0.528v-8.136c0-0.72-0.197-1.288-0.588-1.704
				c-0.393-0.416-0.904-0.624-1.537-0.624c-0.631,0-1.191,0.136-1.68,0.408c-0.488,0.272-0.844,0.552-1.068,0.84l-0.359,0.408v8.808
				c0,0.352-0.32,0.528-0.961,0.528h-0.096C312.02,44.552,311.699,44.376,311.699,44.024z"/>
			<path d="M157.598,64.105c0-5.696,2.592-8.544,7.776-8.544c1.152,0,2.204,0.164,3.156,0.492c0.952,0.328,1.428,0.66,1.428,0.996
				c0,0.224-0.1,0.512-0.3,0.864c-0.201,0.352-0.372,0.528-0.516,0.528c-0.032,0-0.204-0.088-0.516-0.264
				c-0.312-0.176-0.756-0.352-1.332-0.528c-0.576-0.176-1.2-0.264-1.872-0.264c-1.936,0-3.36,0.536-4.272,1.608
				s-1.368,2.772-1.368,5.1s0.452,4.032,1.356,5.112c0.903,1.08,2.3,1.619,4.188,1.619c0.72,0,1.4-0.1,2.04-0.299
				c0.64-0.2,1.136-0.4,1.488-0.601c0.352-0.2,0.552-0.3,0.6-0.3c0.144,0,0.32,0.176,0.528,0.527
				c0.208,0.353,0.312,0.609,0.312,0.769c0,0.368-0.5,0.748-1.5,1.14c-1,0.393-2.156,0.588-3.468,0.588
				c-2.64,0-4.588-0.691-5.844-2.076C158.225,69.189,157.598,67.033,157.598,64.105z"/>
			<path d="M174.133,56.928c-0.64,0-0.96-0.176-0.96-0.528v-1.416c0-0.352,0.32-0.528,0.96-0.528h0.288
				c0.64,0,0.96,0.176,0.96,0.528V56.4c0,0.352-0.32,0.528-0.96,0.528H174.133z M173.27,72.025V60.433
				c0-0.353,0.32-0.529,0.96-0.529h0.096c0.64,0,0.96,0.177,0.96,0.529v11.592c0,0.352-0.32,0.527-0.96,0.527h-0.096
				C173.589,72.552,173.27,72.376,173.27,72.025z"/>
			<path d="M180.205,71.088c-0.96-1.04-1.44-2.628-1.44-4.765c0-2.135,0.472-3.756,1.416-4.859s2.288-1.656,4.032-1.656
				c3.392,0,5.088,2.088,5.088,6.264c0,0.145-0.096,0.345-0.288,0.601c-0.192,0.257-0.36,0.384-0.504,0.384h-7.584
				c0.096,1.328,0.44,2.305,1.032,2.928c0.591,0.625,1.479,0.937,2.664,0.937c1.088,0,2.088-0.256,3-0.769
				c0.304-0.159,0.472-0.239,0.504-0.239c0.16,0,0.339,0.16,0.54,0.479c0.2,0.32,0.3,0.561,0.3,0.721
				c0,0.32-0.436,0.656-1.308,1.008s-1.876,0.527-3.012,0.527C182.645,72.648,181.166,72.128,180.205,71.088z M187.166,65.329
				c0-2.528-0.96-3.792-2.88-3.792c-2.064,0-3.184,1.264-3.36,3.792H187.166z M182.797,58.176c-0.224,0.208-0.516,0.312-0.876,0.312
				s-0.54-0.112-0.54-0.336c0-0.128,0.048-0.272,0.144-0.432l1.344-2.112c0.24-0.352,0.608-0.528,1.104-0.528h0.6
				c0.496,0,0.864,0.176,1.104,0.528l1.368,2.112c0.096,0.144,0.144,0.28,0.144,0.408c0,0.24-0.18,0.36-0.54,0.36
				s-0.652-0.104-0.876-0.312l-1.512-1.776L182.797,58.176z"/>
			<path d="M192.445,72.025v-8.424c0-0.977-0.04-1.672-0.12-2.089c-0.112-0.575-0.168-0.888-0.168-0.937
				c0-0.191,0.152-0.331,0.456-0.42c0.304-0.087,0.54-0.131,0.708-0.131s0.284,0.016,0.348,0.047
				c0.063,0.033,0.124,0.084,0.18,0.156s0.1,0.145,0.132,0.217c0.032,0.072,0.063,0.168,0.096,0.287
				c0.032,0.121,0.06,0.217,0.084,0.289c0.024,0.071,0.048,0.176,0.072,0.312s0.044,0.228,0.06,0.276
				c1.072-1.201,2.268-1.801,3.588-1.801s2.328,0.345,3.024,1.032c0.696,0.688,1.044,1.64,1.044,2.856v8.328
				c0,0.352-0.32,0.527-0.96,0.527h-0.096c-0.64,0-0.96-0.176-0.96-0.527v-8.137c0-0.735-0.212-1.308-0.636-1.716
				c-0.424-0.408-1.028-0.612-1.812-0.612c-1.152,0-2.16,0.561-3.024,1.68v8.785c0,0.352-0.32,0.527-0.96,0.527h-0.096
				C192.765,72.552,192.445,72.376,192.445,72.025z"/>
			<path d="M204.996,66.168c0-1.2,0.164-2.231,0.492-3.097c0.328-0.863,0.771-1.527,1.332-1.991
				c1.057-0.849,2.344-1.272,3.863-1.272c0.928,0,1.762,0.112,2.496,0.336c0.736,0.225,1.105,0.48,1.105,0.769
				c0,0.208-0.094,0.476-0.277,0.804s-0.348,0.492-0.492,0.492c-0.016,0-0.043-0.008-0.084-0.023
				c-0.039-0.017-0.07-0.028-0.096-0.037c-0.023-0.008-0.051-0.02-0.084-0.035c-0.863-0.385-1.736-0.576-2.615-0.576
				c-2.32,0-3.48,1.527-3.48,4.584c0,1.695,0.283,2.92,0.852,3.672s1.525,1.128,2.869,1.128c0.975,0,1.879-0.208,2.711-0.624
				c0.049-0.016,0.1-0.036,0.156-0.061c0.057-0.023,0.092-0.035,0.107-0.035c0.16,0,0.338,0.156,0.529,0.468
				s0.287,0.563,0.287,0.756c0,0.288-0.375,0.563-1.127,0.828s-1.633,0.396-2.641,0.396c-1.984,0-3.465-0.512-4.439-1.535
				C205.484,70.089,204.996,68.441,204.996,66.168z"/>
			<path d="M218.436,56.928c-0.639,0-0.959-0.176-0.959-0.528v-1.416c0-0.352,0.32-0.528,0.959-0.528h0.289
				c0.639,0,0.959,0.176,0.959,0.528V56.4c0,0.352-0.32,0.528-0.959,0.528H218.436z M217.572,72.025V60.433
				c0-0.353,0.32-0.529,0.959-0.529h0.098c0.639,0,0.959,0.177,0.959,0.529v11.592c0,0.352-0.32,0.527-0.959,0.527h-0.098
				C217.893,72.552,217.572,72.376,217.572,72.025z"/>
			<path d="M230.893,64.68v-1.128c0-1.344-0.881-2.016-2.641-2.016c-1.152,0-2.215,0.248-3.191,0.744
				c-0.336,0.176-0.52,0.264-0.553,0.264c-0.16,0-0.34-0.16-0.539-0.48c-0.201-0.319-0.301-0.56-0.301-0.72
				c0-0.336,0.469-0.676,1.404-1.021c0.936-0.344,2.061-0.516,3.373-0.516c1.311,0,2.383,0.332,3.215,0.996s1.248,1.588,1.248,2.771
				v5.377c0,0.96,0.041,1.656,0.121,2.088c0.111,0.592,0.168,0.904,0.168,0.936c0,0.192-0.152,0.332-0.457,0.42
				s-0.539,0.133-0.707,0.133s-0.285-0.017-0.35-0.049c-0.063-0.031-0.123-0.088-0.18-0.168c-0.055-0.08-0.1-0.156-0.131-0.228
				c-0.033-0.072-0.064-0.172-0.096-0.3c-0.033-0.128-0.061-0.229-0.084-0.301c-0.025-0.071-0.049-0.184-0.072-0.336
				c-0.025-0.151-0.045-0.252-0.061-0.299c-1.088,1.199-2.432,1.799-4.031,1.799c-1.232,0-2.225-0.303-2.977-0.912
				c-0.752-0.607-1.129-1.543-1.129-2.808c0-1.264,0.436-2.212,1.309-2.844c0.871-0.632,1.852-1.017,2.939-1.151
				C228.26,64.796,229.5,64.712,230.893,64.68z M225.084,68.928c0,1.313,0.68,1.968,2.041,1.968c0.783,0,1.459-0.144,2.027-0.432
				s1.148-0.695,1.74-1.225v-2.832c-2,0-3.287,0.113-3.863,0.337c-0.305,0.112-0.625,0.256-0.961,0.432
				C225.412,67.512,225.084,68.097,225.084,68.928z"/>
			<path d="M250.309,70.849c-1.152,1.199-2.432,1.799-3.84,1.799s-2.533-0.592-3.373-1.775s-1.26-2.704-1.26-4.561v-0.216
				c0-1.968,0.447-3.507,1.344-4.62c0.896-1.111,2.018-1.668,3.361-1.668s2.543,0.408,3.6,1.225v-6.048
				c0-0.352,0.32-0.528,0.959-0.528h0.098c0.639,0,0.959,0.176,0.959,0.528v13.968c0,0.96,0.039,1.656,0.121,2.088
				c0.111,0.592,0.168,0.904,0.168,0.936c0,0.192-0.152,0.332-0.457,0.42s-0.539,0.133-0.707,0.133s-0.285-0.017-0.35-0.049
				c-0.063-0.031-0.123-0.088-0.18-0.168s-0.1-0.156-0.131-0.228c-0.033-0.072-0.064-0.172-0.098-0.3
				c-0.031-0.128-0.059-0.229-0.084-0.301c-0.023-0.071-0.047-0.184-0.07-0.336C250.344,70.997,250.324,70.896,250.309,70.849z
				 M243.949,66.048c0,3.232,1.039,4.848,3.119,4.848c1.039,0,2.064-0.552,3.072-1.656v-6.575c-0.863-0.72-1.832-1.08-2.904-1.08
				h-0.145c-1.023,0.017-1.803,0.407-2.34,1.176C244.217,63.529,243.949,64.625,243.949,66.048z"/>
			<path d="M263.291,64.68v-1.128c0-1.344-0.879-2.016-2.639-2.016c-1.152,0-2.217,0.248-3.193,0.744
				c-0.336,0.176-0.52,0.264-0.551,0.264c-0.16,0-0.34-0.16-0.541-0.48c-0.199-0.319-0.299-0.56-0.299-0.72
				c0-0.336,0.467-0.676,1.404-1.021c0.936-0.344,2.059-0.516,3.371-0.516s2.385,0.332,3.217,0.996s1.248,1.588,1.248,2.771v5.377
				c0,0.96,0.039,1.656,0.119,2.088c0.111,0.592,0.168,0.904,0.168,0.936c0,0.192-0.152,0.332-0.455,0.42
				c-0.305,0.088-0.541,0.133-0.709,0.133s-0.283-0.017-0.348-0.049c-0.064-0.031-0.125-0.088-0.18-0.168
				c-0.057-0.08-0.1-0.156-0.133-0.228c-0.031-0.072-0.064-0.172-0.096-0.3s-0.061-0.229-0.084-0.301
				c-0.023-0.071-0.047-0.184-0.072-0.336c-0.023-0.151-0.043-0.252-0.061-0.299c-1.088,1.199-2.432,1.799-4.031,1.799
				c-1.232,0-2.225-0.303-2.977-0.912c-0.752-0.607-1.127-1.543-1.127-2.808c0-1.264,0.436-2.212,1.309-2.844
				c0.871-0.632,1.852-1.017,2.939-1.151C260.66,64.796,261.9,64.712,263.291,64.68z M257.484,68.928
				c0,1.313,0.68,1.968,2.039,1.968c0.785,0,1.461-0.144,2.029-0.432c0.566-0.288,1.146-0.695,1.738-1.225v-2.832
				c-2,0-3.287,0.113-3.863,0.337c-0.305,0.112-0.623,0.256-0.959,0.432C257.813,67.512,257.484,68.097,257.484,68.928z"/>
			<path d="M274.355,64.105c0-5.696,2.592-8.544,7.775-8.544c1.152,0,2.205,0.164,3.156,0.492c0.953,0.328,1.428,0.66,1.428,0.996
				c0,0.224-0.1,0.512-0.299,0.864c-0.201,0.352-0.373,0.528-0.516,0.528c-0.033,0-0.205-0.088-0.516-0.264
				c-0.313-0.176-0.758-0.352-1.332-0.528c-0.576-0.176-1.201-0.264-1.873-0.264c-1.936,0-3.359,0.536-4.271,1.608
				s-1.369,2.772-1.369,5.1s0.453,4.032,1.357,5.112c0.902,1.08,2.299,1.619,4.188,1.619c0.721,0,1.4-0.1,2.039-0.299
				c0.641-0.2,1.137-0.4,1.488-0.601s0.553-0.3,0.6-0.3c0.145,0,0.32,0.176,0.529,0.527c0.207,0.353,0.313,0.609,0.313,0.769
				c0,0.368-0.502,0.748-1.5,1.14c-1.002,0.393-2.156,0.588-3.469,0.588c-2.641,0-4.588-0.691-5.844-2.076
				C274.984,69.189,274.355,67.033,274.355,64.105z"/>
			<path d="M294.719,72.648c-1.799,0-3.176-0.543-4.127-1.631c-0.953-1.088-1.428-2.668-1.428-4.74s0.479-3.668,1.439-4.789
				c0.959-1.119,2.328-1.68,4.104-1.68s3.133,0.557,4.068,1.668c0.936,1.113,1.404,2.713,1.404,4.801s-0.461,3.672-1.381,4.752
				S296.52,72.648,294.719,72.648z M292.092,69.781c0.543,0.76,1.398,1.14,2.568,1.14c1.166,0,2.031-0.38,2.592-1.14
				c0.559-0.76,0.84-1.94,0.84-3.541c0-1.6-0.281-2.783-0.84-3.551c-0.561-0.769-1.426-1.152-2.592-1.152
				c-1.17,0-2.025,0.38-2.568,1.14c-0.545,0.761-0.816,1.944-0.816,3.552C291.275,67.836,291.547,69.021,292.092,69.781z"/>
			<path d="M303.539,72.025v-8.424c0-0.977-0.041-1.672-0.121-2.089c-0.111-0.575-0.168-0.888-0.168-0.937
				c0-0.191,0.152-0.331,0.457-0.42c0.303-0.087,0.539-0.131,0.707-0.131s0.285,0.016,0.348,0.047
				c0.064,0.033,0.125,0.084,0.182,0.156c0.055,0.072,0.1,0.145,0.131,0.217s0.064,0.168,0.096,0.287
				c0.033,0.121,0.061,0.217,0.084,0.289c0.025,0.071,0.049,0.176,0.072,0.312s0.045,0.228,0.061,0.276
				c1.039-1.201,2.256-1.801,3.648-1.801c1.742,0,2.887,0.664,3.432,1.992c1.119-1.328,2.391-1.992,3.816-1.992
				c0.912,0,1.727,0.232,2.447,0.696c0.4,0.272,0.721,0.681,0.961,1.224c0.238,0.545,0.359,1.2,0.359,1.969v8.328
				c0,0.352-0.32,0.527-0.961,0.527h-0.096c-0.641,0-0.959-0.176-0.959-0.527v-8.137c0-0.72-0.197-1.287-0.588-1.703
				c-0.393-0.416-0.965-0.625-1.717-0.625c-0.992,0-1.977,0.553-2.951,1.656c0.016,0.112,0.023,0.28,0.023,0.504v8.305
				c0,0.352-0.32,0.527-0.961,0.527h-0.096c-0.641,0-0.959-0.176-0.959-0.527v-8.137c0-0.72-0.197-1.287-0.588-1.703
				c-0.393-0.416-0.904-0.625-1.537-0.625c-0.631,0-1.191,0.137-1.68,0.408c-0.488,0.272-0.844,0.553-1.068,0.84l-0.359,0.408v8.809
				c0,0.352-0.32,0.527-0.961,0.527h-0.096C303.859,72.552,303.539,72.376,303.539,72.025z"/>
			<path d="M325.932,76.968c0,0.352-0.32,0.528-0.961,0.528h-0.096c-0.641,0-0.959-0.177-0.959-0.528V63.601
				c0-0.977-0.041-1.672-0.121-2.089c-0.111-0.575-0.168-0.888-0.168-0.937c0-0.191,0.152-0.331,0.457-0.42
				c0.303-0.087,0.539-0.131,0.707-0.131s0.283,0.016,0.348,0.047c0.064,0.033,0.125,0.084,0.18,0.156
				c0.057,0.072,0.1,0.145,0.133,0.217c0.031,0.072,0.064,0.168,0.096,0.287c0.031,0.121,0.061,0.217,0.084,0.289
				c0.023,0.071,0.049,0.176,0.072,0.312s0.043,0.228,0.061,0.276c1.152-1.201,2.432-1.801,3.84-1.801s2.531,0.592,3.371,1.776
				s1.26,2.704,1.26,4.56v0.217c0,1.968-0.447,3.508-1.344,4.619c-0.896,1.113-2.016,1.668-3.359,1.668s-2.545-0.408-3.6-1.224
				V76.968z M328.836,70.873h0.143c1.023-0.016,1.805-0.408,2.34-1.176c0.537-0.769,0.805-1.896,0.805-3.385
				s-0.256-2.652-0.768-3.492s-1.293-1.26-2.34-1.26c-1.049,0-2.076,0.553-3.084,1.656v6.576
				C326.795,70.512,327.764,70.873,328.836,70.873z"/>
			<path d="M337.402,68.76v-8.327c0-0.353,0.32-0.529,0.961-0.529h0.096c0.641,0,0.961,0.177,0.961,0.529v8.135
				c0,0.736,0.211,1.309,0.635,1.717s1.027,0.611,1.813,0.611c1.152,0,2.16-0.56,3.023-1.68v-8.783c0-0.353,0.32-0.529,0.961-0.529
				h0.096c0.639,0,0.959,0.177,0.959,0.529v8.52c0,0.96,0.041,1.656,0.121,2.088c0.111,0.592,0.168,0.904,0.168,0.936
				c0,0.192-0.152,0.332-0.457,0.42c-0.303,0.088-0.539,0.133-0.707,0.133s-0.285-0.017-0.348-0.049
				c-0.064-0.031-0.125-0.088-0.18-0.168c-0.057-0.08-0.102-0.156-0.133-0.228c-0.033-0.072-0.064-0.172-0.096-0.3
				c-0.033-0.128-0.061-0.229-0.084-0.301c-0.023-0.071-0.049-0.184-0.072-0.336c-0.023-0.151-0.045-0.252-0.061-0.299
				c-1.072,1.199-2.268,1.799-3.588,1.799s-2.328-0.344-3.023-1.031S337.402,69.976,337.402,68.76z"/>
			<path d="M351.539,69.336V61.68h-1.201c-0.32,0-0.48-0.239-0.48-0.72v-0.288c0-0.479,0.16-0.72,0.48-0.72h1.201l0.287-2.52
				c0.031-0.352,0.287-0.528,0.768-0.528h0.24c0.48,0,0.721,0.176,0.721,0.528v2.52h2.016c0.32,0,0.48,0.24,0.48,0.72v0.288
				c0,0.48-0.16,0.72-0.48,0.72h-2.016v7.464c0,1.185,0.432,1.776,1.295,1.776c0.273,0,0.504-0.021,0.697-0.06
				c0.191-0.04,0.303-0.061,0.336-0.061c0.143,0,0.264,0.148,0.359,0.444s0.145,0.524,0.145,0.684c0,0.479-0.584,0.72-1.752,0.72
				c-0.801,0-1.518-0.243-2.148-0.731C351.854,71.429,351.539,70.569,351.539,69.336z"/>
			<path d="M366.322,64.68v-1.128c0-1.344-0.881-2.016-2.641-2.016c-1.152,0-2.215,0.248-3.191,0.744
				c-0.336,0.176-0.52,0.264-0.553,0.264c-0.16,0-0.34-0.16-0.539-0.48c-0.201-0.319-0.301-0.56-0.301-0.72
				c0-0.336,0.469-0.676,1.404-1.021c0.936-0.344,2.061-0.516,3.373-0.516c1.311,0,2.383,0.332,3.215,0.996s1.248,1.588,1.248,2.771
				v5.377c0,0.96,0.041,1.656,0.121,2.088c0.111,0.592,0.168,0.904,0.168,0.936c0,0.192-0.152,0.332-0.457,0.42
				s-0.539,0.133-0.707,0.133s-0.285-0.017-0.35-0.049c-0.063-0.031-0.123-0.088-0.18-0.168c-0.055-0.08-0.1-0.156-0.131-0.228
				c-0.033-0.072-0.064-0.172-0.096-0.3c-0.033-0.128-0.061-0.229-0.084-0.301c-0.025-0.071-0.049-0.184-0.072-0.336
				c-0.025-0.151-0.045-0.252-0.061-0.299c-1.088,1.199-2.432,1.799-4.031,1.799c-1.232,0-2.225-0.303-2.977-0.912
				c-0.752-0.607-1.129-1.543-1.129-2.808c0-1.264,0.436-2.212,1.309-2.844c0.871-0.632,1.852-1.017,2.939-1.151
				C363.689,64.796,364.93,64.712,366.322,64.68z M360.514,68.928c0,1.313,0.68,1.968,2.041,1.968c0.783,0,1.459-0.144,2.027-0.432
				s1.148-0.695,1.74-1.225v-2.832c-2,0-3.287,0.113-3.863,0.337c-0.305,0.112-0.625,0.256-0.961,0.432
				C360.842,67.512,360.514,68.097,360.514,68.928z"/>
			<path d="M371.506,66.168c0-1.2,0.164-2.231,0.492-3.097c0.328-0.863,0.771-1.527,1.332-1.991
				c1.057-0.849,2.344-1.272,3.863-1.272c0.928,0,1.762,0.112,2.496,0.336c0.736,0.225,1.105,0.48,1.105,0.769
				c0,0.208-0.094,0.476-0.277,0.804s-0.348,0.492-0.492,0.492c-0.016,0-0.043-0.008-0.084-0.023
				c-0.039-0.017-0.07-0.028-0.096-0.037c-0.023-0.008-0.051-0.02-0.084-0.035c-0.863-0.385-1.736-0.576-2.615-0.576
				c-2.32,0-3.48,1.527-3.48,4.584c0,1.695,0.283,2.92,0.852,3.672s1.525,1.128,2.869,1.128c0.975,0,1.879-0.208,2.711-0.624
				c0.049-0.016,0.1-0.036,0.156-0.061c0.057-0.023,0.092-0.035,0.107-0.035c0.16,0,0.338,0.156,0.529,0.468
				s0.287,0.563,0.287,0.756c0,0.288-0.375,0.563-1.127,0.828s-1.633,0.396-2.641,0.396h-0.096l-0.289,1.032h0.098
				c0.256,0,0.516,0.028,0.779,0.084s0.539,0.224,0.828,0.505c0.287,0.279,0.432,0.659,0.432,1.139c0,1.424-0.92,2.137-2.76,2.137
				c-0.625,0-1.24-0.096-1.848-0.288c-0.609-0.192-0.912-0.44-0.912-0.744c0-0.416,0.152-0.624,0.455-0.624
				c0.08,0,0.344,0.08,0.793,0.24c0.447,0.16,0.848,0.24,1.199,0.24c0.912,0,1.369-0.28,1.369-0.84c0-0.305-0.133-0.528-0.396-0.672
				c-0.264-0.145-0.527-0.257-0.793-0.336c-0.264-0.081-0.395-0.209-0.395-0.385c0-0.032,0.016-0.128,0.047-0.287l0.385-1.273
				c-1.617-0.159-2.82-0.756-3.613-1.787C371.902,69.756,371.506,68.216,371.506,66.168z"/>
			<path d="M391.041,64.68v-1.128c0-1.344-0.879-2.016-2.639-2.016c-1.152,0-2.217,0.248-3.193,0.744
				c-0.336,0.176-0.52,0.264-0.551,0.264c-0.16,0-0.34-0.16-0.541-0.48c-0.199-0.319-0.299-0.56-0.299-0.72
				c0-0.336,0.467-0.676,1.404-1.021c0.936-0.344,2.059-0.516,3.371-0.516s2.385,0.332,3.217,0.996s1.248,1.588,1.248,2.771v5.377
				c0,0.96,0.039,1.656,0.119,2.088c0.111,0.592,0.168,0.904,0.168,0.936c0,0.192-0.152,0.332-0.455,0.42
				c-0.305,0.088-0.541,0.133-0.709,0.133s-0.283-0.017-0.348-0.049c-0.064-0.031-0.125-0.088-0.18-0.168
				c-0.057-0.08-0.1-0.156-0.133-0.228c-0.031-0.072-0.064-0.172-0.096-0.3s-0.061-0.229-0.084-0.301
				c-0.023-0.071-0.047-0.184-0.072-0.336c-0.023-0.151-0.043-0.252-0.061-0.299c-1.088,1.199-2.432,1.799-4.031,1.799
				c-1.232,0-2.225-0.303-2.977-0.912c-0.752-0.607-1.127-1.543-1.127-2.808c0-1.264,0.436-2.212,1.309-2.844
				c0.871-0.632,1.852-1.017,2.939-1.151C388.41,64.796,389.65,64.712,391.041,64.68z M389.697,57.745
				c-0.543,0-1.143-0.08-1.799-0.24c-0.656-0.16-1.088-0.24-1.297-0.24c-0.207,0-0.447,0.052-0.719,0.156
				c-0.273,0.104-0.496,0.156-0.674,0.156c-0.176,0-0.336-0.084-0.479-0.252c-0.145-0.168-0.217-0.324-0.217-0.468
				c0-0.304,0.271-0.604,0.816-0.9c0.543-0.296,1.088-0.444,1.633-0.444c0.543,0,1.139,0.081,1.787,0.24
				c0.648,0.16,1.1,0.24,1.355,0.24s0.508-0.052,0.756-0.156s0.449-0.156,0.602-0.156c0.15,0,0.303,0.088,0.455,0.264
				c0.152,0.176,0.229,0.328,0.229,0.456c0,0.304-0.273,0.604-0.816,0.9C390.785,57.597,390.242,57.745,389.697,57.745z
				 M385.234,68.928c0,1.313,0.68,1.968,2.039,1.968c0.785,0,1.461-0.144,2.029-0.432c0.566-0.288,1.146-0.695,1.738-1.225v-2.832
				c-2,0-3.287,0.113-3.863,0.337c-0.305,0.112-0.623,0.256-0.959,0.432C385.563,67.512,385.234,68.097,385.234,68.928z"/>
			<path d="M401.854,72.648c-1.799,0-3.176-0.543-4.127-1.631c-0.953-1.088-1.428-2.668-1.428-4.74s0.479-3.668,1.439-4.789
				c0.959-1.119,2.328-1.68,4.104-1.68s3.133,0.557,4.068,1.668c0.936,1.113,1.404,2.713,1.404,4.801s-0.461,3.672-1.381,4.752
				S403.654,72.648,401.854,72.648z M399.227,69.781c0.543,0.76,1.398,1.14,2.568,1.14c1.166,0,2.031-0.38,2.592-1.14
				c0.559-0.76,0.84-1.94,0.84-3.541c0-1.6-0.281-2.783-0.84-3.551c-0.561-0.769-1.426-1.152-2.592-1.152
				c-1.17,0-2.025,0.38-2.568,1.14c-0.545,0.761-0.816,1.944-0.816,3.552C398.41,67.836,398.682,69.021,399.227,69.781z"/>
		</g>
	</g>
	<g>
		<path d="M40.574,112.355c0-0.168,0.095-0.398,0.284-0.693c0.189-0.293,0.339-0.44,0.452-0.44c0.042,0,0.217,0.087,0.525,0.263
			c0.308,0.175,0.742,0.354,1.302,0.535s1.2,0.273,1.922,0.273c0.721,0,1.336-0.231,1.848-0.693s0.767-1.05,0.767-1.764
			c0-0.715-0.234-1.281-0.704-1.701s-1.036-0.752-1.701-0.998c-0.666-0.244-1.333-0.507-2.006-0.787
			c-0.672-0.279-1.243-0.714-1.711-1.302c-0.469-0.589-0.704-1.337-0.704-2.247c0-1.162,0.427-2.097,1.281-2.804
			c0.854-0.706,1.981-1.061,3.381-1.061c0.686,0,1.421,0.126,2.205,0.378c0.784,0.252,1.176,0.553,1.176,0.903
			c0,0.154-0.087,0.378-0.262,0.672c-0.175,0.294-0.312,0.44-0.41,0.44c-0.056,0-0.203-0.069-0.441-0.209
			c-0.714-0.393-1.484-0.588-2.31-0.588s-1.484,0.199-1.974,0.598c-0.49,0.399-0.735,0.984-0.735,1.754s0.455,1.372,1.365,1.807
			c0.392,0.182,0.833,0.359,1.323,0.535c0.49,0.175,0.977,0.377,1.459,0.608s0.924,0.501,1.323,0.809s0.724,0.728,0.977,1.261
			c0.252,0.531,0.378,1.147,0.378,1.848c0,1.288-0.42,2.299-1.26,3.034c-0.84,0.735-1.904,1.103-3.192,1.103
			s-2.37-0.175-3.245-0.525C41.012,113.013,40.574,112.677,40.574,112.355z"/>
		<path d="M52.712,112.523c-0.84-0.91-1.26-2.299-1.26-4.168s0.413-3.287,1.239-4.253c0.826-0.966,2.002-1.448,3.528-1.448
			c2.968,0,4.452,1.826,4.452,5.48c0,0.126-0.084,0.301-0.252,0.525c-0.168,0.224-0.315,0.336-0.441,0.336h-6.636
			c0.084,1.162,0.385,2.016,0.903,2.562c0.518,0.546,1.294,0.819,2.331,0.819c0.952,0,1.827-0.225,2.625-0.672
			c0.266-0.141,0.413-0.211,0.441-0.211c0.14,0,0.297,0.141,0.472,0.42c0.175,0.281,0.263,0.49,0.263,0.631
			c0,0.279-0.382,0.574-1.145,0.882c-0.763,0.308-1.642,0.462-2.636,0.462C54.847,113.888,53.552,113.433,52.712,112.523z
			 M58.802,107.484c0-2.213-0.84-3.318-2.52-3.318c-1.806,0-2.786,1.105-2.94,3.318H58.802z"/>
		<path d="M63.401,113.342v-7.371c0-0.854-0.035-1.463-0.105-1.827c-0.098-0.504-0.147-0.777-0.147-0.818
			c0-0.168,0.133-0.291,0.399-0.368c0.266-0.077,0.472-0.115,0.619-0.115c0.147,0,0.249,0.015,0.305,0.042
			c0.056,0.028,0.108,0.073,0.158,0.137c0.049,0.063,0.087,0.125,0.115,0.188c0.028,0.063,0.056,0.147,0.084,0.253
			c0.028,0.104,0.053,0.188,0.074,0.252c0.021,0.063,0.042,0.154,0.063,0.272c0.021,0.119,0.038,0.199,0.052,0.241
			c0.91-1.05,1.974-1.574,3.192-1.574c1.525,0,2.527,0.58,3.003,1.742c0.979-1.162,2.093-1.742,3.339-1.742
			c0.798,0,1.512,0.203,2.142,0.608c0.35,0.238,0.63,0.595,0.84,1.071c0.21,0.476,0.315,1.05,0.315,1.722v7.287
			c0,0.308-0.28,0.462-0.84,0.462h-0.084c-0.56,0-0.84-0.154-0.84-0.462v-7.119c0-0.63-0.172-1.127-0.515-1.491
			c-0.343-0.363-0.844-0.546-1.501-0.546c-0.868,0-1.729,0.483-2.583,1.449c0.014,0.099,0.021,0.245,0.021,0.44v7.267
			c0,0.308-0.28,0.462-0.84,0.462h-0.084c-0.56,0-0.84-0.154-0.84-0.462v-7.119c0-0.63-0.171-1.127-0.515-1.491
			c-0.343-0.363-0.791-0.546-1.344-0.546c-0.553,0-1.043,0.119-1.47,0.356c-0.427,0.238-0.738,0.484-0.935,0.736l-0.315,0.356v7.707
			c0,0.308-0.28,0.462-0.84,0.462h-0.084C63.681,113.804,63.401,113.65,63.401,113.342z"/>
		<path d="M87.425,106.916v-0.986c0-1.176-0.77-1.764-2.31-1.764c-1.008,0-1.939,0.217-2.793,0.65
			c-0.294,0.154-0.455,0.231-0.483,0.231c-0.14,0-0.298-0.14-0.473-0.42c-0.175-0.28-0.262-0.49-0.262-0.63
			c0-0.295,0.409-0.592,1.229-0.893c0.819-0.301,1.802-0.451,2.95-0.451s2.086,0.29,2.814,0.871s1.092,1.39,1.092,2.426v4.703
			c0,0.84,0.035,1.449,0.105,1.828c0.098,0.518,0.147,0.791,0.147,0.818c0,0.168-0.133,0.291-0.399,0.367
			c-0.266,0.077-0.473,0.115-0.62,0.115s-0.249-0.014-0.305-0.041c-0.056-0.028-0.108-0.077-0.157-0.147
			c-0.049-0.069-0.088-0.137-0.116-0.2c-0.028-0.063-0.056-0.149-0.084-0.262c-0.028-0.111-0.052-0.199-0.073-0.263
			s-0.042-0.161-0.063-0.294s-0.039-0.221-0.053-0.263c-0.952,1.05-2.128,1.575-3.528,1.575c-1.078,0-1.946-0.266-2.604-0.798
			c-0.658-0.532-0.987-1.351-0.987-2.457s0.381-1.936,1.145-2.489c0.763-0.553,1.621-0.889,2.573-1.008
			C85.122,107.018,86.207,106.945,87.425,106.916z M82.343,110.633c0,1.147,0.595,1.722,1.785,1.722
			c0.686,0,1.277-0.126,1.774-0.378c0.497-0.252,1.004-0.608,1.522-1.071v-2.478c-1.75,0-2.877,0.099-3.381,0.294
			c-0.266,0.098-0.546,0.225-0.84,0.378C82.629,109.394,82.343,109.906,82.343,110.633z"/>
		<path d="M92.675,113.342v-7.371c0-0.854-0.035-1.463-0.105-1.827c-0.098-0.504-0.147-0.777-0.147-0.818
			c0-0.168,0.133-0.291,0.399-0.368c0.266-0.077,0.472-0.115,0.619-0.115c0.148,0,0.249,0.015,0.305,0.042
			c0.057,0.028,0.109,0.073,0.158,0.137c0.049,0.063,0.088,0.125,0.115,0.188s0.057,0.147,0.084,0.253
			c0.027,0.104,0.053,0.188,0.074,0.252c0.02,0.063,0.041,0.154,0.063,0.272c0.021,0.119,0.039,0.199,0.053,0.241
			c0.938-1.05,1.984-1.574,3.139-1.574c1.156,0,2.037,0.301,2.646,0.902s0.914,1.436,0.914,2.499v7.287
			c0,0.308-0.281,0.462-0.84,0.462h-0.084c-0.561,0-0.84-0.154-0.84-0.462v-7.119c0-0.644-0.188-1.145-0.557-1.501
			c-0.371-0.357-0.9-0.536-1.586-0.536c-1.008,0-1.891,0.49-2.646,1.47v7.687c0,0.308-0.279,0.462-0.84,0.462h-0.084
			C92.955,113.804,92.675,113.65,92.675,113.342z"/>
		<path d="M110.566,106.916v-0.986c0-1.176-0.771-1.764-2.31-1.764c-1.009,0-1.939,0.217-2.793,0.65
			c-0.295,0.154-0.455,0.231-0.483,0.231c-0.141,0-0.298-0.14-0.473-0.42s-0.263-0.49-0.263-0.63c0-0.295,0.41-0.592,1.229-0.893
			c0.819-0.301,1.803-0.451,2.951-0.451c1.147,0,2.086,0.29,2.813,0.871s1.092,1.39,1.092,2.426v4.703
			c0,0.84,0.035,1.449,0.105,1.828c0.098,0.518,0.146,0.791,0.146,0.818c0,0.168-0.133,0.291-0.398,0.367
			c-0.267,0.077-0.473,0.115-0.62,0.115c-0.146,0-0.248-0.014-0.304-0.041c-0.057-0.028-0.109-0.077-0.158-0.147
			c-0.049-0.069-0.087-0.137-0.115-0.2c-0.028-0.063-0.056-0.149-0.084-0.262c-0.028-0.111-0.053-0.199-0.073-0.263
			c-0.021-0.063-0.042-0.161-0.063-0.294c-0.021-0.133-0.038-0.221-0.052-0.263c-0.953,1.05-2.129,1.575-3.528,1.575
			c-1.078,0-1.946-0.266-2.604-0.798s-0.986-1.351-0.986-2.457s0.381-1.936,1.145-2.489c0.763-0.553,1.62-0.889,2.572-1.008
			C108.264,107.018,109.349,106.945,110.566,106.916z M105.484,110.633c0,1.147,0.595,1.722,1.785,1.722
			c0.686,0,1.277-0.126,1.774-0.378s1.004-0.608,1.522-1.071v-2.478c-1.75,0-2.877,0.099-3.381,0.294
			c-0.267,0.098-0.546,0.225-0.84,0.378C105.771,109.394,105.484,109.906,105.484,110.633z"/>
		<path d="M127.556,112.313c-1.008,1.05-2.128,1.575-3.36,1.575c-1.231,0-2.215-0.518-2.95-1.555
			c-0.734-1.035-1.103-2.365-1.103-3.989v-0.188c0-1.723,0.392-3.07,1.176-4.043s1.765-1.459,2.94-1.459s2.226,0.356,3.15,1.07
			v-5.292c0-0.308,0.279-0.462,0.84-0.462h0.084c0.56,0,0.84,0.154,0.84,0.462v12.222c0,0.84,0.035,1.449,0.104,1.828
			c0.099,0.518,0.147,0.791,0.147,0.818c0,0.168-0.133,0.291-0.399,0.367c-0.266,0.077-0.472,0.115-0.619,0.115
			c-0.146,0-0.249-0.014-0.305-0.041c-0.056-0.028-0.108-0.077-0.157-0.147c-0.049-0.069-0.088-0.137-0.115-0.2
			c-0.028-0.063-0.057-0.149-0.084-0.262c-0.028-0.111-0.053-0.199-0.074-0.263c-0.021-0.063-0.042-0.161-0.063-0.294
			C127.587,112.443,127.569,112.355,127.556,112.313z M121.991,108.113c0,2.828,0.909,4.242,2.729,4.242
			c0.91,0,1.806-0.482,2.688-1.449v-5.754c-0.757-0.63-1.604-0.945-2.541-0.945h-0.126c-0.896,0.015-1.579,0.357-2.048,1.029
			C122.225,105.908,121.991,106.867,121.991,108.113z"/>
		<path d="M138.916,106.916v-0.986c0-1.176-0.771-1.764-2.31-1.764c-1.009,0-1.939,0.217-2.793,0.65
			c-0.295,0.154-0.455,0.231-0.483,0.231c-0.141,0-0.298-0.14-0.473-0.42s-0.263-0.49-0.263-0.63c0-0.295,0.41-0.592,1.229-0.893
			c0.819-0.301,1.803-0.451,2.951-0.451c1.147,0,2.086,0.29,2.813,0.871s1.092,1.39,1.092,2.426v4.703
			c0,0.84,0.035,1.449,0.105,1.828c0.098,0.518,0.146,0.791,0.146,0.818c0,0.168-0.133,0.291-0.398,0.367
			c-0.267,0.077-0.473,0.115-0.62,0.115c-0.146,0-0.248-0.014-0.304-0.041c-0.057-0.028-0.109-0.077-0.158-0.147
			c-0.049-0.069-0.087-0.137-0.115-0.2c-0.028-0.063-0.056-0.149-0.084-0.262c-0.028-0.111-0.053-0.199-0.073-0.263
			c-0.021-0.063-0.042-0.161-0.063-0.294c-0.021-0.133-0.038-0.221-0.052-0.263c-0.953,1.05-2.129,1.575-3.528,1.575
			c-1.078,0-1.946-0.266-2.604-0.798s-0.986-1.351-0.986-2.457s0.381-1.936,1.145-2.489c0.763-0.553,1.62-0.889,2.572-1.008
			C136.613,107.018,137.698,106.945,138.916,106.916z M133.834,110.633c0,1.147,0.595,1.722,1.785,1.722
			c0.686,0,1.277-0.126,1.774-0.378s1.004-0.608,1.522-1.071v-2.478c-1.75,0-2.877,0.099-3.381,0.294
			c-0.267,0.098-0.546,0.225-0.84,0.378C134.121,109.394,133.834,109.906,133.834,110.633z"/>
		<path d="M148.598,106.412c0-4.983,2.268-7.476,6.804-7.476c1.008,0,1.929,0.144,2.762,0.431s1.249,0.578,1.249,0.871
			c0,0.197-0.087,0.449-0.263,0.756c-0.175,0.309-0.325,0.463-0.451,0.463c-0.028,0-0.179-0.077-0.451-0.231
			c-0.273-0.153-0.662-0.308-1.166-0.462s-1.05-0.23-1.638-0.23c-1.694,0-2.94,0.469-3.738,1.406
			c-0.798,0.938-1.196,2.426-1.196,4.463s0.395,3.527,1.187,4.473c0.79,0.945,2.012,1.418,3.664,1.418
			c0.63,0,1.225-0.088,1.785-0.263c0.56-0.175,0.994-0.351,1.302-0.524c0.308-0.176,0.483-0.264,0.525-0.264
			c0.126,0,0.279,0.154,0.462,0.463c0.182,0.308,0.272,0.531,0.272,0.672c0,0.322-0.438,0.654-1.313,0.997s-1.887,0.515-3.034,0.515
			c-2.31,0-4.015-0.605-5.113-1.816C149.146,110.861,148.598,108.974,148.598,106.412z"/>
		<path d="M166.415,113.888c-1.575,0-2.779-0.476-3.612-1.428s-1.249-2.334-1.249-4.148c0-1.813,0.42-3.209,1.26-4.189
			c0.84-0.979,2.037-1.469,3.591-1.469s2.74,0.486,3.56,1.459s1.229,2.373,1.229,4.199c0,1.828-0.402,3.214-1.207,4.158
			C169.18,113.416,167.99,113.888,166.415,113.888z M164.115,111.378c0.476,0.666,1.225,0.998,2.247,0.998
			c1.021,0,1.778-0.332,2.269-0.998c0.489-0.664,0.734-1.697,0.734-3.098c0-1.399-0.245-2.436-0.734-3.107
			c-0.49-0.672-1.247-1.008-2.269-1.008c-1.022,0-1.771,0.332-2.247,0.997s-0.714,1.701-0.714,3.108
			C163.401,109.677,163.64,110.714,164.115,111.378z"/>
		<path d="M174.133,113.342v-7.371c0-0.854-0.035-1.463-0.105-1.827c-0.098-0.504-0.146-0.777-0.146-0.818
			c0-0.168,0.133-0.291,0.398-0.368c0.267-0.077,0.473-0.115,0.62-0.115c0.146,0,0.248,0.015,0.305,0.042
			c0.056,0.028,0.107,0.073,0.157,0.137c0.049,0.063,0.087,0.125,0.115,0.188s0.056,0.147,0.084,0.253
			c0.028,0.104,0.053,0.188,0.073,0.252c0.021,0.063,0.042,0.154,0.063,0.272c0.021,0.119,0.038,0.199,0.053,0.241
			c0.909-1.05,1.974-1.574,3.191-1.574c1.526,0,2.527,0.58,3.003,1.742c0.98-1.162,2.093-1.742,3.339-1.742
			c0.799,0,1.513,0.203,2.143,0.608c0.35,0.238,0.63,0.595,0.84,1.071c0.21,0.476,0.315,1.05,0.315,1.722v7.287
			c0,0.308-0.28,0.462-0.841,0.462h-0.084c-0.56,0-0.84-0.154-0.84-0.462v-7.119c0-0.63-0.171-1.127-0.515-1.491
			c-0.343-0.363-0.843-0.546-1.501-0.546c-0.868,0-1.729,0.483-2.583,1.449c0.014,0.099,0.021,0.245,0.021,0.44v7.267
			c0,0.308-0.28,0.462-0.84,0.462h-0.084c-0.56,0-0.84-0.154-0.84-0.462v-7.119c0-0.63-0.172-1.127-0.515-1.491
			c-0.343-0.363-0.791-0.546-1.344-0.546c-0.554,0-1.043,0.119-1.47,0.356c-0.428,0.238-0.739,0.484-0.935,0.736l-0.315,0.356v7.707
			c0,0.308-0.28,0.462-0.84,0.462h-0.084C174.412,113.804,174.133,113.65,174.133,113.342z"/>
		<path d="M193.726,117.667c0,0.309-0.28,0.463-0.84,0.463h-0.084c-0.561,0-0.841-0.154-0.841-0.463v-11.696
			c0-0.854-0.035-1.463-0.104-1.827c-0.099-0.504-0.147-0.777-0.147-0.818c0-0.168,0.133-0.291,0.399-0.368
			c0.266-0.077,0.473-0.115,0.619-0.115c0.147,0,0.249,0.015,0.305,0.042c0.056,0.028,0.108,0.073,0.157,0.137
			c0.049,0.063,0.088,0.125,0.116,0.188c0.027,0.063,0.056,0.147,0.084,0.253c0.027,0.104,0.052,0.188,0.073,0.252
			c0.021,0.063,0.042,0.154,0.063,0.272c0.021,0.119,0.039,0.199,0.053,0.241c1.008-1.05,2.128-1.574,3.36-1.574
			c1.231,0,2.215,0.518,2.95,1.553c0.735,1.037,1.103,2.367,1.103,3.99v0.189c0,1.723-0.392,3.07-1.176,4.043
			s-1.764,1.459-2.94,1.459c-1.176,0-2.226-0.357-3.149-1.07V117.667z M196.267,112.333h0.126c0.896-0.014,1.578-0.356,2.047-1.028
			s0.704-1.659,0.704-2.961s-0.225-2.32-0.672-3.056c-0.448-0.734-1.131-1.103-2.048-1.103s-1.816,0.483-2.698,1.449v5.754
			C194.481,112.019,195.328,112.333,196.267,112.333z"/>
		<path d="M203.764,110.486v-7.287c0-0.307,0.279-0.461,0.84-0.461h0.084c0.56,0,0.84,0.154,0.84,0.461v7.119
			c0,0.645,0.186,1.145,0.557,1.502s0.899,0.535,1.586,0.535c1.008,0,1.89-0.49,2.646-1.47v-7.687c0-0.307,0.28-0.461,0.84-0.461
			h0.084c0.56,0,0.84,0.154,0.84,0.461v7.455c0,0.84,0.035,1.449,0.105,1.828c0.098,0.518,0.146,0.791,0.146,0.818
			c0,0.168-0.133,0.291-0.398,0.367c-0.267,0.077-0.473,0.115-0.62,0.115c-0.146,0-0.248-0.014-0.304-0.041
			c-0.057-0.028-0.109-0.077-0.158-0.147c-0.049-0.069-0.087-0.137-0.115-0.2c-0.028-0.063-0.056-0.149-0.084-0.262
			c-0.028-0.111-0.053-0.199-0.073-0.263c-0.021-0.063-0.042-0.161-0.063-0.294c-0.021-0.133-0.038-0.221-0.052-0.263
			c-0.938,1.05-1.985,1.575-3.14,1.575c-1.155,0-2.037-0.301-2.646-0.902C204.068,112.383,203.764,111.55,203.764,110.486z"/>
		<path d="M216.132,110.99v-6.699h-1.05c-0.28,0-0.42-0.209-0.42-0.629v-0.252c0-0.42,0.14-0.631,0.42-0.631h1.05l0.252-2.205
			c0.028-0.307,0.252-0.461,0.672-0.461h0.21c0.42,0,0.63,0.154,0.63,0.461v2.205h1.765c0.279,0,0.42,0.211,0.42,0.631v0.252
			c0,0.42-0.141,0.629-0.42,0.629h-1.765v6.531c0,1.037,0.378,1.555,1.134,1.555c0.238,0,0.441-0.018,0.609-0.053
			s0.266-0.053,0.294-0.053c0.126,0,0.231,0.13,0.315,0.389c0.084,0.26,0.126,0.459,0.126,0.599c0,0.42-0.512,0.63-1.533,0.63
			c-0.7,0-1.327-0.213-1.88-0.641C216.408,112.821,216.132,112.068,216.132,110.99z"/>
		<path d="M229.067,106.916v-0.986c0-1.176-0.771-1.764-2.31-1.764c-1.009,0-1.939,0.217-2.793,0.65
			c-0.295,0.154-0.455,0.231-0.483,0.231c-0.141,0-0.298-0.14-0.473-0.42s-0.263-0.49-0.263-0.63c0-0.295,0.41-0.592,1.229-0.893
			c0.819-0.301,1.803-0.451,2.951-0.451c1.147,0,2.086,0.29,2.813,0.871s1.092,1.39,1.092,2.426v4.703
			c0,0.84,0.035,1.449,0.105,1.828c0.098,0.518,0.146,0.791,0.146,0.818c0,0.168-0.133,0.291-0.398,0.367
			c-0.267,0.077-0.473,0.115-0.62,0.115c-0.146,0-0.248-0.014-0.304-0.041c-0.057-0.028-0.109-0.077-0.158-0.147
			c-0.049-0.069-0.087-0.137-0.115-0.2c-0.028-0.063-0.056-0.149-0.084-0.262c-0.028-0.111-0.053-0.199-0.073-0.263
			c-0.021-0.063-0.042-0.161-0.063-0.294c-0.021-0.133-0.038-0.221-0.052-0.263c-0.953,1.05-2.129,1.575-3.528,1.575
			c-1.078,0-1.946-0.266-2.604-0.798s-0.986-1.351-0.986-2.457s0.381-1.936,1.145-2.489c0.763-0.553,1.62-0.889,2.572-1.008
			C226.765,107.018,227.85,106.945,229.067,106.916z M223.985,110.633c0,1.147,0.595,1.722,1.785,1.722
			c0.686,0,1.277-0.126,1.774-0.378s1.004-0.608,1.522-1.071v-2.478c-1.75,0-2.877,0.099-3.381,0.294
			c-0.267,0.098-0.546,0.225-0.84,0.378C224.272,109.394,223.985,109.906,223.985,110.633z"/>
		<path d="M233.604,108.218c0-1.051,0.144-1.953,0.431-2.709s0.676-1.337,1.166-1.743c0.924-0.741,2.051-1.112,3.381-1.112
			c0.812,0,1.54,0.098,2.184,0.293c0.644,0.197,0.966,0.42,0.966,0.672c0,0.183-0.08,0.418-0.241,0.704
			c-0.161,0.287-0.305,0.431-0.431,0.431c-0.014,0-0.039-0.008-0.073-0.021c-0.035-0.014-0.063-0.023-0.084-0.031
			c-0.021-0.007-0.046-0.018-0.073-0.031c-0.757-0.336-1.52-0.504-2.289-0.504c-2.03,0-3.045,1.337-3.045,4.011
			c0,1.483,0.248,2.556,0.745,3.213c0.497,0.658,1.333,0.987,2.51,0.987c0.854,0,1.645-0.182,2.373-0.547
			c0.042-0.014,0.087-0.031,0.136-0.052s0.081-0.032,0.095-0.032c0.14,0,0.294,0.137,0.462,0.41s0.252,0.494,0.252,0.662
			c0,0.252-0.329,0.492-0.986,0.724c-0.658,0.231-1.429,0.347-2.311,0.347h-0.084l-0.252,0.902h0.084
			c0.224,0,0.451,0.025,0.683,0.074s0.473,0.195,0.725,0.441c0.252,0.244,0.378,0.577,0.378,0.997c0,1.246-0.806,1.869-2.415,1.869
			c-0.546,0-1.085-0.084-1.617-0.252s-0.798-0.386-0.798-0.651c0-0.364,0.133-0.546,0.399-0.546c0.069,0,0.301,0.069,0.692,0.21
			c0.392,0.14,0.742,0.21,1.05,0.21c0.799,0,1.197-0.245,1.197-0.735c0-0.266-0.115-0.461-0.347-0.588
			c-0.23-0.125-0.462-0.224-0.692-0.293c-0.231-0.07-0.347-0.183-0.347-0.336c0-0.029,0.014-0.113,0.042-0.253l0.336-1.112
			c-1.414-0.141-2.468-0.662-3.16-1.564C233.95,111.358,233.604,110.01,233.604,108.218z"/>
		<path d="M250.697,106.916v-0.986c0-1.176-0.771-1.764-2.31-1.764c-1.009,0-1.939,0.217-2.793,0.65
			c-0.295,0.154-0.455,0.231-0.483,0.231c-0.141,0-0.298-0.14-0.473-0.42s-0.263-0.49-0.263-0.63c0-0.295,0.41-0.592,1.229-0.893
			c0.819-0.301,1.803-0.451,2.951-0.451c1.147,0,2.086,0.29,2.813,0.871s1.092,1.39,1.092,2.426v4.703
			c0,0.84,0.035,1.449,0.105,1.828c0.098,0.518,0.146,0.791,0.146,0.818c0,0.168-0.133,0.291-0.398,0.367
			c-0.267,0.077-0.473,0.115-0.62,0.115c-0.146,0-0.248-0.014-0.304-0.041c-0.057-0.028-0.109-0.077-0.158-0.147
			c-0.049-0.069-0.087-0.137-0.115-0.2c-0.028-0.063-0.056-0.149-0.084-0.262c-0.028-0.111-0.053-0.199-0.073-0.263
			c-0.021-0.063-0.042-0.161-0.063-0.294c-0.021-0.133-0.038-0.221-0.052-0.263c-0.953,1.05-2.129,1.575-3.528,1.575
			c-1.078,0-1.946-0.266-2.604-0.798s-0.986-1.351-0.986-2.457s0.381-1.936,1.145-2.489c0.763-0.553,1.62-0.889,2.572-1.008
			C248.395,107.018,249.479,106.945,250.697,106.916z M249.521,100.847c-0.477,0-1.001-0.07-1.575-0.21s-0.952-0.21-1.134-0.21
			c-0.183,0-0.393,0.045-0.63,0.137c-0.238,0.091-0.435,0.137-0.588,0.137c-0.154,0-0.295-0.074-0.421-0.221
			c-0.126-0.147-0.188-0.283-0.188-0.41c0-0.266,0.238-0.527,0.714-0.787c0.476-0.259,0.952-0.389,1.428-0.389
			c0.477,0,0.998,0.07,1.564,0.21c0.567,0.14,0.963,0.21,1.187,0.21c0.225,0,0.444-0.045,0.662-0.137
			c0.217-0.09,0.392-0.137,0.524-0.137s0.267,0.078,0.399,0.231c0.133,0.154,0.199,0.287,0.199,0.399
			c0,0.266-0.238,0.528-0.714,0.787C250.474,100.718,249.997,100.847,249.521,100.847z M245.615,110.633
			c0,1.147,0.595,1.722,1.785,1.722c0.686,0,1.277-0.126,1.774-0.378s1.004-0.608,1.522-1.071v-2.478
			c-1.75,0-2.877,0.099-3.381,0.294c-0.267,0.098-0.546,0.225-0.84,0.378C245.902,109.394,245.615,109.906,245.615,110.633z"/>
		<path d="M260.158,113.888c-1.575,0-2.779-0.476-3.612-1.428s-1.249-2.334-1.249-4.148c0-1.813,0.42-3.209,1.26-4.189
			c0.84-0.979,2.037-1.469,3.591-1.469s2.74,0.486,3.56,1.459s1.229,2.373,1.229,4.199c0,1.828-0.402,3.214-1.207,4.158
			C262.923,113.416,261.733,113.888,260.158,113.888z M257.858,111.378c0.476,0.666,1.225,0.998,2.247,0.998
			c1.021,0,1.778-0.332,2.269-0.998c0.489-0.664,0.734-1.697,0.734-3.098c0-1.399-0.245-2.436-0.734-3.107
			c-0.49-0.672-1.247-1.008-2.269-1.008c-1.022,0-1.771,0.332-2.247,0.997s-0.714,1.701-0.714,3.108
			C257.145,109.677,257.383,110.714,257.858,111.378z"/>
		<path d="M274.868,106.968c-0.21,0.203-0.47,0.305-0.777,0.305s-0.563-0.102-0.767-0.305c-0.203-0.202-0.305-0.458-0.305-0.766
			c0-0.309,0.102-0.567,0.305-0.777s0.459-0.314,0.767-0.314s0.567,0.104,0.777,0.314s0.314,0.469,0.314,0.777
			C275.183,106.51,275.078,106.766,274.868,106.968z"/>
		<path d="M283.813,113.342v-13.86c0-0.308,0.279-0.462,0.84-0.462h0.168c0.56,0,0.84,0.154,0.84,0.462v13.86
			c0,0.308-0.28,0.462-0.84,0.462h-0.168C284.093,113.804,283.813,113.65,283.813,113.342z"/>
		<path d="M289.588,113.342v-13.86c0-0.308,0.28-0.462,0.841-0.462h0.756c0.447,0,0.741,0.126,0.882,0.378l3.969,6.889l0.546,1.322
			l0.546-1.197l3.97-7.014c0.14-0.252,0.434-0.378,0.882-0.378h0.692c0.561,0,0.841,0.154,0.841,0.462v13.86
			c0,0.308-0.28,0.462-0.841,0.462h-0.146c-0.561,0-0.84-0.154-0.84-0.462v-11.298l-4.222,7.35
			c-0.098,0.182-0.252,0.273-0.462,0.273h-0.84c-0.21,0-0.364-0.092-0.462-0.273l-4.284-7.477v11.425c0,0.308-0.28,0.462-0.84,0.462
			h-0.146C289.868,113.804,289.588,113.65,289.588,113.342z"/>
		<path d="M307.438,113.132V99.693c0-0.421,0.21-0.631,0.63-0.631h7.329c0.28,0,0.42,0.21,0.42,0.631v0.336
			c0,0.42-0.14,0.629-0.42,0.629h-6.111v4.789h5.481c0.279,0,0.42,0.209,0.42,0.629v0.336c0,0.42-0.141,0.631-0.42,0.631h-5.481
			v5.123h6.132c0.28,0,0.42,0.211,0.42,0.631v0.336c0,0.42-0.14,0.63-0.42,0.63h-7.35
			C307.648,113.762,307.438,113.552,307.438,113.132z"/>
		<path d="M325.646,106.968c-0.21,0.203-0.47,0.305-0.777,0.305s-0.563-0.102-0.767-0.305c-0.203-0.202-0.305-0.458-0.305-0.766
			c0-0.309,0.102-0.567,0.305-0.777s0.459-0.314,0.767-0.314s0.567,0.104,0.777,0.314s0.314,0.469,0.314,0.777
			C325.96,106.51,325.855,106.766,325.646,106.968z"/>
		<path d="M334.297,109.058v-9.576c0-0.308,0.279-0.462,0.84-0.462h0.168c0.56,0,0.84,0.154,0.84,0.462v9.639
			c0,0.925,0.368,1.684,1.103,2.279c0.735,0.596,1.662,0.893,2.782,0.893s2.048-0.297,2.783-0.893
			c0.734-0.596,1.103-1.354,1.103-2.279v-9.639c0-0.308,0.279-0.462,0.84-0.462h0.168c0.56,0,0.84,0.154,0.84,0.462v9.576
			c0,1.526-0.497,2.713-1.491,3.56s-2.411,1.271-4.252,1.271c-1.842,0-3.255-0.424-4.242-1.271S334.297,110.584,334.297,109.058z"/>
		<path d="M348.283,112.355c0-0.168,0.094-0.398,0.283-0.693c0.188-0.293,0.339-0.44,0.451-0.44c0.042,0,0.217,0.087,0.525,0.263
			c0.308,0.175,0.742,0.354,1.302,0.535s1.2,0.273,1.922,0.273c0.721,0,1.337-0.231,1.848-0.693s0.767-1.05,0.767-1.764
			c0-0.715-0.234-1.281-0.703-1.701c-0.47-0.42-1.036-0.752-1.701-0.998c-0.665-0.244-1.334-0.507-2.006-0.787
			c-0.672-0.279-1.242-0.714-1.711-1.302c-0.47-0.589-0.704-1.337-0.704-2.247c0-1.162,0.427-2.097,1.281-2.804
			c0.854-0.706,1.98-1.061,3.381-1.061c0.686,0,1.421,0.126,2.205,0.378s1.176,0.553,1.176,0.903c0,0.154-0.087,0.378-0.263,0.672
			c-0.175,0.294-0.312,0.44-0.409,0.44c-0.056,0-0.203-0.069-0.44-0.209c-0.715-0.393-1.484-0.588-2.311-0.588
			s-1.484,0.199-1.974,0.598c-0.49,0.399-0.735,0.984-0.735,1.754s0.455,1.372,1.365,1.807c0.392,0.182,0.833,0.359,1.323,0.535
			c0.489,0.175,0.977,0.377,1.459,0.608c0.483,0.231,0.924,0.501,1.323,0.809c0.398,0.308,0.725,0.728,0.977,1.261
			c0.252,0.531,0.378,1.147,0.378,1.848c0,1.288-0.42,2.299-1.26,3.034c-0.841,0.735-1.904,1.103-3.192,1.103
			s-2.37-0.175-3.244-0.525C348.721,113.013,348.283,112.677,348.283,112.355z"/>
		<path d="M359.791,113.342V99.693c0-0.421,0.21-0.631,0.63-0.631h4.263c1.078,0,2.072,0.238,2.982,0.715
			c0.518,0.266,0.931,0.689,1.239,1.27c0.308,0.582,0.462,1.264,0.462,2.048s-0.123,1.452-0.368,2.005
			c-0.245,0.554-0.539,0.977-0.882,1.271c-0.343,0.293-0.738,0.531-1.187,0.713c-0.686,0.281-1.365,0.421-2.037,0.421h-3.255v5.838
			c0,0.308-0.28,0.462-0.84,0.462h-0.168C360.07,113.804,359.791,113.65,359.791,113.342z M361.639,105.908h3.276
			c0.531,0,1.057-0.168,1.575-0.504c0.279-0.182,0.511-0.465,0.692-0.85s0.273-0.844,0.273-1.376c0-0.938-0.28-1.593-0.84-1.964
			c-0.561-0.371-1.226-0.557-1.995-0.557h-2.982V105.908z"/>
	</g>
</g>
</svg>
