<?xml version="1.0" encoding="utf-8"?>
<!-- Generator: Adobe Illustrator 16.0.0, SVG Export Plug-In . SVG Version: 6.00 Build 0)  -->
<!DOCTYPE svg PUBLIC "-//W3C//DTD SVG 1.1//EN" "http://www.w3.org/Graphics/SVG/1.1/DTD/svg11.dtd">
<svg version="1.1" id="Layer_1" xmlns="http://www.w3.org/2000/svg" xmlns:xlink="http://www.w3.org/1999/xlink" x="0px" y="0px"
	 width="481.303px" height="150.858px" viewBox="240 205 481.303 150.858" enable-background="new 240 205 481.303 150.858"
	 xml:space="preserve">
<image display="none" overflow="visible" opacity="0.5" enable-background="new    " width="480" height="150" xlink:href="E91ABC20.png"  transform="matrix(1 0 0 1 240 205.0002)">
</image>
<g id="Title">
	<path d="M359.743,262.641c0-5.75,0.785-10.695,2.357-14.835c1.571-4.14,3.698-7.321,6.383-9.545
		c5.06-4.063,11.23-6.095,18.515-6.095c4.446,0,8.433,0.537,11.96,1.609c3.526,1.075,5.29,2.301,5.29,3.681
		c0,0.997-0.442,2.281-1.322,3.853c-0.882,1.572-1.667,2.357-2.357,2.357c-0.078,0-0.212-0.038-0.403-0.115
		c-0.192-0.075-0.345-0.133-0.46-0.172c-0.115-0.038-0.25-0.095-0.402-0.172c-4.14-1.84-8.319-2.761-12.535-2.761
		c-11.117,0-16.675,7.322-16.675,21.966c0,8.127,1.36,13.991,4.083,17.595c2.72,3.604,7.302,5.404,13.742,5.404
		c4.676,0,9.008-0.995,12.995-2.99c0.23-0.074,0.478-0.172,0.748-0.287c0.268-0.115,0.44-0.172,0.518-0.172
		c0.766,0,1.61,0.747,2.53,2.242c0.92,1.493,1.38,2.701,1.38,3.623c0,1.379-1.802,2.7-5.405,3.967
		c-3.604,1.266-7.82,1.896-12.65,1.896c-9.507,0-16.6-2.452-21.275-7.359C362.081,281.425,359.743,273.528,359.743,262.641z"/>
	<path d="M454.013,255.51v-5.405c0-6.439-4.217-9.66-12.649-9.66c-5.521,0-10.62,1.19-15.295,3.565
		c-1.61,0.845-2.492,1.265-2.646,1.265c-0.768,0-1.63-0.765-2.587-2.3c-0.96-1.533-1.438-2.683-1.438-3.45
		c0-1.609,2.242-3.237,6.728-4.887c4.485-1.648,9.87-2.473,16.157-2.473c6.286,0,11.423,1.592,15.41,4.771
		c3.984,3.183,7.032,7.61,7.032,13.283v25.76c0,4.601,0,7.835,0,9.939c0,2.984-0.002,4.594-0.002,4.746
		c0,0.92-0.344,2.041-1.837,2.297c-1.279,0.22-2.605,0.151-3.411,0.151c-0.805,0-1.361-0.076-1.667-0.229
		c-0.307-0.152-0.595-0.42-0.861-0.805c-0.271-0.384-0.48-0.747-0.632-1.093c-0.155-0.346-0.309-0.822-0.46-1.438
		c-0.154-0.613-0.287-1.093-0.402-1.438s-0.23-0.881-0.345-1.609c-0.115-0.729-0.212-1.208-0.288-1.438
		c-5.215,5.75-11.655,8.625-19.32,8.625c-5.904,0-10.657-1.456-14.26-4.37c-3.604-2.911-5.405-7.396-5.405-13.454
		c0-6.057,2.088-10.599,6.268-13.629c4.179-3.026,8.873-4.867,14.089-5.52C441.401,256.067,447.343,255.665,454.013,255.51z
		 M426.183,275.866c0,6.286,3.259,9.429,9.775,9.429c3.756,0,6.996-0.689,9.718-2.069c2.721-1.38,5.5-3.335,8.337-5.865v-13.569
		c-9.584,0-15.755,0.537-18.515,1.609c-1.457,0.538-2.99,1.229-4.6,2.07C427.754,269.081,426.183,271.88,426.183,275.866z"/>
	<path d="M485.436,286.215c-4.6-4.982-6.898-12.592-6.898-22.827s2.26-17.998,6.784-23.288c4.523-5.29,10.963-7.935,19.319-7.935
		c16.254,0,24.382,10.005,24.382,30.015c0,0.69-0.462,1.649-1.382,2.875c-0.92,1.227-1.725,1.84-2.414,1.84h-36.34
		c0.459,6.365,2.107,11.04,4.945,14.03c2.834,2.99,7.09,4.484,12.764,4.484c5.213,0,10.006-1.226,14.375-3.681
		c1.457-0.766,2.263-1.149,2.416-1.149c0.767,0,1.627,0.768,2.588,2.301c0.957,1.534,1.438,2.684,1.438,3.449
		c0,1.534-2.09,3.145-6.268,4.83c-4.181,1.688-8.99,2.529-14.435,2.529C497.127,293.69,490.037,291.2,485.436,286.215z
		 M518.787,258.616c0-12.113-4.603-18.171-13.801-18.171c-9.892,0-15.258,6.059-16.101,18.171H518.787z"/>
	<path d="M543.625,277.82v-68.77c0-1.685,1.533-2.53,4.6-2.53h0.461c3.064,0,4.601,0.846,4.601,2.53v67.85
		c0,5.676,2.069,8.511,6.209,8.511c1.303,0,2.416-0.096,3.336-0.287c0.92-0.19,1.455-0.287,1.608-0.287
		c0.689,0,1.267,0.709,1.726,2.127c0.461,1.42,0.69,2.512,0.69,3.277c0,2.301-2.801,3.449-8.396,3.449
		c-3.834,0-7.264-1.168-10.291-3.507C545.139,287.846,543.625,283.725,543.625,277.82z"/>
	<path d="M576.975,275.928v-39.905c0-1.685,1.533-2.529,4.601-2.529h0.459c3.065,0,4.602,0.845,4.602,2.529v38.985
		c0,3.527,1.015,6.268,3.047,8.223c2.031,1.955,4.927,2.933,8.683,2.933c5.521,0,10.352-2.683,14.489-8.05v-42.09
		c0-1.685,1.533-2.529,4.603-2.529h0.459c3.065,0,5.556,0.838,5.556,2.522v40.832c0,4.601,0,7.768,0,9.871
		c0,3-0.032,4.467-0.032,4.619c0,0.92-0.596,2.567-2.109,2.567c-1.422,0-2.206,0.076-3.011,0.076c-0.806,0-1.361-0.077-1.668-0.229
		c-0.308-0.152-0.595-0.42-0.861-0.806c-0.271-0.383-0.48-0.746-0.633-1.092c-0.154-0.346-0.308-0.823-0.461-1.438
		c-0.154-0.613-0.287-1.093-0.402-1.438s-0.229-0.881-0.344-1.609c-0.115-0.729-0.213-1.208-0.289-1.438
		c-5.138,5.75-10.867,8.625-17.191,8.625c-6.323,0-11.153-1.646-14.489-4.944C578.643,286.317,576.975,281.755,576.975,275.928z"/>
	<path d="M642.18,290.701v-40.366c0-4.675-0.055-7.382-0.055-9.414c0-2.813,0.021-4.846,0.021-5.076c0-0.92,0.19-2.645,1.707-2.645
		c1.916,0,1.719,0,2.522,0s1.359,0.076,1.666,0.229c0.307,0.154,0.594,0.402,0.863,0.748c0.268,0.345,0.479,0.69,0.633,1.035
		c0.151,0.345,0.305,0.805,0.459,1.38s0.289,1.035,0.401,1.38c0.115,0.345,0.23,0.844,0.347,1.495
		c0.115,0.652,0.211,1.093,0.287,1.323c4.981-5.75,10.811-8.625,17.479-8.625c8.355,0,13.838,3.182,16.445,9.545
		c5.365-6.363,11.461-9.545,18.285-9.545c4.369,0,8.278,1.111,11.729,3.335c1.914,1.305,3.449,3.26,4.601,5.865
		c1.149,2.606,1.725,5.75,1.725,9.43v39.906c0,1.687-1.535,2.528-4.6,2.528h-0.461c-3.066,0-4.601-0.843-4.601-2.528v-38.986
		c0-3.45-0.938-6.17-2.815-8.165c-1.882-1.993-4.621-2.99-8.224-2.99c-4.756,0-9.471,2.646-14.146,7.936
		c0.076,0.537,0.114,1.342,0.114,2.415v39.791c0,1.687-1.532,2.528-4.6,2.528h-0.459c-3.068,0-4.602-0.843-4.602-2.528v-38.986
		c0-3.45-0.939-6.17-2.816-8.165c-1.881-1.993-4.332-2.99-7.361-2.99c-3.028,0-5.711,0.652-8.049,1.955
		c-2.34,1.304-4.045,2.646-5.117,4.025l-1.727,1.955v42.206c0,1.687-1.533,2.528-4.6,2.528h-0.459
		C643.711,293.23,642.18,292.388,642.18,290.701z"/>
</g>
<g>
	<path d="M418.317,345.365c-1.56-1.689-2.34-4.271-2.34-7.742c0-3.471,0.767-6.104,2.301-7.896c1.534-1.793,3.718-2.69,6.552-2.69
		c5.511,0,8.267,3.394,8.267,10.18c0,0.233-0.153,0.56-0.467,0.976c-0.313,0.416-0.586,0.624-0.82,0.624h-12.323
		c0.156,2.158,0.715,3.743,1.677,4.758c0.961,1.015,2.405,1.521,4.329,1.521c1.768,0,3.393-0.415,4.875-1.248
		c0.492-0.26,0.766-0.391,0.817-0.391c0.261,0,0.554,0.261,0.877,0.78c0.326,0.521,0.488,0.91,0.488,1.17
		c0,0.521-0.709,1.066-2.125,1.639c-1.418,0.571-3.049,0.857-4.895,0.857C422.282,347.901,419.877,347.057,418.317,345.365z
		 M429.627,336.006c0-4.107-1.56-6.162-4.679-6.162c-3.354,0-5.174,2.055-5.46,6.162H429.627z"/>
	<path d="M438.206,346.887v-13.688c0-1.586-0.064-2.717-0.194-3.394c-0.183-0.937-0.272-1.442-0.272-1.521
		c0-0.313,0.247-0.539,0.741-0.683c0.492-0.144,0.878-0.215,1.149-0.215c0.273,0,0.462,0.025,0.565,0.078s0.2,0.137,0.293,0.254
		c0.091,0.117,0.162,0.232,0.214,0.351s0.104,0.273,0.156,0.468c0.052,0.195,0.098,0.353,0.137,0.47
		c0.039,0.115,0.078,0.285,0.117,0.507c0.039,0.221,0.07,0.37,0.098,0.448c1.741-1.95,3.686-2.926,5.83-2.926
		c2.144,0,3.783,0.561,4.914,1.678s1.696,2.665,1.696,4.641v13.533c0,0.571-0.521,0.857-1.561,0.857h-0.156
		c-1.04,0-1.56-0.286-1.56-0.857v-13.222c0-1.194-0.346-2.126-1.034-2.787c-0.688-0.663-1.671-0.995-2.944-0.995
		c-1.871,0-3.51,0.91-4.913,2.729v14.273c0,0.571-0.521,0.857-1.561,0.857h-0.156C438.727,347.744,438.206,347.459,438.206,346.887z
		"/>
	<path d="M457.94,345.561c0-0.259,0.161-0.649,0.486-1.17s0.617-0.779,0.878-0.779c0.025,0,0.233,0.123,0.623,0.37
		c0.392,0.247,0.949,0.494,1.678,0.741s1.604,0.37,2.633,0.37c1.027,0,1.872-0.292,2.535-0.877c0.662-0.585,0.994-1.378,0.994-2.379
		s-0.293-1.781-0.878-2.342c-0.585-0.559-1.749-1.085-3.489-1.579c-1.742-0.492-3.004-1.123-3.783-1.892
		c-0.78-0.767-1.17-1.931-1.17-3.49c0-1.561,0.598-2.865,1.794-3.92c1.194-1.053,2.756-1.579,4.68-1.579
		c1.326,0,2.509,0.169,3.549,0.507c1.04,0.339,1.562,0.717,1.562,1.132c0,0.338-0.15,0.773-0.448,1.307
		c-0.3,0.533-0.565,0.8-0.8,0.8c-0.026,0-0.195-0.078-0.507-0.233c-0.886-0.469-1.879-0.702-2.983-0.702
		c-1.105,0-1.964,0.229-2.574,0.683c-0.61,0.455-0.917,1.047-0.917,1.774c0,0.729,0.229,1.301,0.684,1.716
		c0.455,0.417,1.229,0.794,2.319,1.132c2.444,0.754,4.103,1.579,4.974,2.476c0.871,0.897,1.307,2.25,1.307,4.058
		s-0.644,3.295-1.931,4.465c-1.287,1.171-2.827,1.756-4.621,1.756s-3.341-0.267-4.641-0.8
		C458.59,346.569,457.94,346.056,457.94,345.561z"/>
	<path d="M477.636,322.356c-1.04,0-1.561-0.286-1.561-0.858v-2.301c0-0.571,0.521-0.857,1.561-0.857h0.468
		c1.04,0,1.562,0.286,1.562,0.857v2.301c0,0.572-0.521,0.858-1.562,0.858H477.636z M476.23,346.887V328.05
		c0-0.571,0.521-0.857,1.562-0.857h0.155c1.04,0,1.561,0.286,1.561,0.857v18.837c0,0.572-0.521,0.857-1.561,0.857h-0.155
		C476.751,347.744,476.23,347.459,476.23,346.887z"/>
	<path d="M486.371,346.887v-13.688c0-1.586-0.064-2.717-0.194-3.394c-0.183-0.937-0.272-1.442-0.272-1.521
		c0-0.313,0.247-0.539,0.74-0.683s0.879-0.215,1.15-0.215c0.273,0,0.462,0.025,0.565,0.078s0.2,0.137,0.293,0.254
		c0.091,0.117,0.161,0.232,0.214,0.351c0.052,0.118,0.104,0.273,0.156,0.468c0.052,0.195,0.098,0.353,0.137,0.47
		c0.039,0.115,0.078,0.285,0.117,0.507c0.039,0.221,0.07,0.37,0.098,0.448c1.741-1.95,3.686-2.926,5.83-2.926
		c2.144,0,3.783,0.561,4.914,1.678s1.695,2.665,1.695,4.641v13.533c0,0.571-0.521,0.857-1.56,0.857H500.1
		c-1.04,0-1.56-0.286-1.56-0.857v-13.222c0-1.194-0.346-2.126-1.034-2.787c-0.688-0.663-1.671-0.995-2.943-0.995
		c-1.872,0-3.511,0.91-4.914,2.729v14.273c0,0.571-0.521,0.857-1.561,0.857h-0.156C486.892,347.744,486.371,347.459,486.371,346.887
		z"/>
	<path d="M515.914,347.901c-2.926,0-5.162-0.884-6.708-2.652c-1.548-1.768-2.321-4.335-2.321-7.701c0-3.367,0.78-5.961,2.341-7.781
		c1.561-1.819,3.782-2.729,6.669-2.729s5.09,0.903,6.61,2.71c1.521,1.809,2.281,4.407,2.281,7.802c0,3.393-0.748,5.967-2.242,7.722
		C521.048,347.023,518.839,347.901,515.914,347.901z M511.645,343.24c0.883,1.235,2.273,1.854,4.173,1.854
		c1.896,0,3.302-0.617,4.212-1.854c0.91-1.233,1.364-3.151,1.364-5.752c0-2.6-0.454-4.523-1.364-5.771s-2.314-1.872-4.212-1.872
		c-1.898,0-3.29,0.618-4.173,1.853c-0.886,1.235-1.326,3.159-1.326,5.772C510.317,340.08,510.759,342.006,511.645,343.24z"/>
	<path d="M540.775,345.365c-1.562-1.689-2.342-4.271-2.342-7.742c0-3.471,0.768-6.104,2.303-7.896
		c1.533-1.794,3.718-2.69,6.552-2.69c5.512,0,8.268,3.394,8.268,10.18c0,0.233-0.154,0.56-0.468,0.976
		c-0.312,0.416-0.585,0.624-0.818,0.624h-12.323c0.155,2.158,0.715,3.743,1.677,4.758s2.404,1.521,4.329,1.521
		c1.768,0,3.393-0.415,4.875-1.248c0.493-0.26,0.767-0.391,0.819-0.391c0.259,0,0.552,0.261,0.877,0.78
		c0.324,0.521,0.486,0.91,0.486,1.17c0,0.521-0.708,1.066-2.125,1.639c-1.418,0.571-3.049,0.857-4.895,0.857
		C544.739,347.901,542.335,347.057,540.775,345.365z M552.085,336.006c0-4.107-1.56-6.162-4.68-6.162
		c-3.354,0-5.175,2.055-5.46,6.162H552.085z"/>
	<path d="M571.623,322.356c-1.04,0-1.561-0.286-1.561-0.858v-2.301c0-0.571,0.521-0.857,1.561-0.857h0.468
		c1.04,0,1.562,0.286,1.562,0.857v2.301c0,0.572-0.521,0.858-1.562,0.858H571.623z M570.219,346.887V328.05
		c0-0.571,0.521-0.857,1.562-0.857h0.154c1.04,0,1.562,0.286,1.562,0.857v18.837c0,0.572-0.521,0.857-1.562,0.857h-0.154
		C570.738,347.744,570.219,347.459,570.219,346.887z"/>
	<path d="M580.358,346.887v-13.688c0-1.586-0.064-2.717-0.194-3.394c-0.183-0.937-0.273-1.442-0.273-1.521
		c0-0.313,0.247-0.539,0.741-0.683c0.493-0.144,0.878-0.215,1.15-0.215s0.462,0.025,0.564,0.078
		c0.104,0.053,0.201,0.137,0.293,0.254s0.162,0.232,0.215,0.351c0.052,0.118,0.104,0.273,0.155,0.468
		c0.053,0.195,0.099,0.353,0.138,0.47c0.039,0.115,0.077,0.285,0.116,0.507c0.039,0.221,0.071,0.37,0.099,0.448
		c1.741-1.95,3.686-2.926,5.83-2.926c2.144,0,3.783,0.561,4.914,1.678s1.695,2.665,1.695,4.641v13.533
		c0,0.571-0.521,0.857-1.56,0.857h-0.156c-1.04,0-1.56-0.286-1.56-0.857v-13.222c0-1.194-0.347-2.126-1.034-2.787
		c-0.689-0.663-1.671-0.995-2.944-0.995c-1.872,0-3.51,0.91-4.914,2.729v14.273c0,0.571-0.521,0.857-1.56,0.857h-0.156
		C580.879,347.744,580.358,347.459,580.358,346.887z"/>
	<path d="M609.901,347.901c-2.927,0-5.162-0.884-6.708-2.652c-1.549-1.768-2.321-4.335-2.321-7.701c0-3.367,0.78-5.961,2.341-7.781
		c1.561-1.819,3.782-2.729,6.669-2.729c2.886,0,5.089,0.903,6.61,2.71c1.521,1.809,2.281,4.407,2.281,7.802
		c0,3.393-0.748,5.967-2.242,7.722C615.035,347.023,612.826,347.901,609.901,347.901z M605.631,343.24
		c0.883,1.235,2.274,1.854,4.173,1.854c1.897,0,3.302-0.617,4.212-1.854c0.91-1.233,1.365-3.151,1.365-5.752
		c0-2.6-0.455-4.523-1.365-5.771s-2.313-1.872-4.212-1.872c-1.897,0-3.29,0.618-4.173,1.853c-0.885,1.235-1.326,3.159-1.326,5.772
		C604.305,340.08,604.746,342.006,605.631,343.24z"/>
	<path d="M621.737,327.855c0-0.442,0.559-0.663,1.677-0.663h0.312c0.91,0,1.431,0.208,1.562,0.624l5.226,15.795l5.228-15.795
		c0.13-0.416,0.708-0.624,1.734-0.624s1.54,0.221,1.54,0.663c0,0.13-0.039,0.313-0.116,0.546l-6.278,18.72
		c-0.131,0.416-0.65,0.624-1.562,0.624h-1.363c-0.911,0-1.432-0.208-1.562-0.624l-6.278-18.759
		C621.776,328.128,621.737,327.959,621.737,327.855z"/>
	<path d="M654.692,334.952v-1.833c0-2.185-1.432-3.275-4.29-3.275c-1.872,0-3.603,0.402-5.188,1.209
		c-0.546,0.287-0.845,0.43-0.896,0.43c-0.262,0-0.554-0.26-0.878-0.78c-0.325-0.52-0.487-0.909-0.487-1.17
		c0-0.546,0.761-1.099,2.281-1.657c1.521-0.56,3.348-0.839,5.479-0.839s3.874,0.54,5.228,1.618c1.352,1.079,2.026,2.581,2.026,4.505
		v8.735c0,1.561,0.064,2.691,0.195,3.394c0.182,0.963,0.271,1.47,0.271,1.521c0,0.313-0.246,0.54-0.739,0.683
		c-0.494,0.145-0.878,0.215-1.15,0.215s-0.462-0.025-0.565-0.077c-0.104-0.053-0.201-0.144-0.293-0.272
		c-0.092-0.13-0.162-0.254-0.215-0.371c-0.052-0.117-0.104-0.279-0.154-0.486c-0.054-0.209-0.099-0.37-0.138-0.487
		s-0.078-0.299-0.117-0.546s-0.071-0.41-0.098-0.488c-1.769,1.95-3.952,2.926-6.552,2.926c-2.003,0-3.614-0.494-4.836-1.481
		c-1.224-0.987-1.833-2.51-1.833-4.563s0.708-3.595,2.125-4.622c1.417-1.025,3.01-1.649,4.777-1.872
		C650.415,335.142,652.43,335.006,654.692,334.952z M645.254,341.856c0,2.132,1.104,3.197,3.315,3.197
		c1.272,0,2.372-0.233,3.295-0.702c0.923-0.468,1.864-1.131,2.828-1.988v-4.603c-3.251,0-5.345,0.183-6.279,0.546
		c-0.494,0.183-1.014,0.417-1.562,0.702C645.786,339.555,645.254,340.505,645.254,341.856z"/>
	<path d="M663.116,337.37c0-1.949,0.266-3.627,0.799-5.03c0.533-1.404,1.255-2.482,2.165-3.237c1.716-1.377,3.809-2.066,6.279-2.066
		c1.507,0,2.858,0.183,4.056,0.546c1.195,0.364,1.794,0.78,1.794,1.248c0,0.339-0.15,0.773-0.448,1.308
		c-0.3,0.533-0.564,0.799-0.8,0.799c-0.025,0-0.072-0.013-0.137-0.038c-0.065-0.026-0.117-0.046-0.156-0.059
		c-0.039-0.014-0.084-0.032-0.136-0.06c-1.404-0.624-2.821-0.937-4.251-0.937c-3.771,0-5.655,2.482-5.655,7.449
		c0,2.756,0.461,4.744,1.385,5.967c0.922,1.223,2.478,1.833,4.66,1.833c1.586,0,3.055-0.337,4.407-1.015
		c0.078-0.024,0.162-0.059,0.253-0.098s0.149-0.059,0.176-0.059c0.26,0,0.546,0.254,0.858,0.761
		c0.312,0.507,0.468,0.916,0.468,1.229c0,0.469-0.611,0.916-1.833,1.347c-1.223,0.429-2.652,0.644-4.29,0.644h-0.156l-0.468,1.677
		h0.156c0.415,0,0.838,0.046,1.268,0.138c0.43,0.091,0.877,0.362,1.346,0.817s0.701,1.073,0.701,1.854
		c0,2.313-1.494,3.472-4.483,3.472c-1.016,0-2.017-0.156-3.003-0.469c-0.989-0.313-1.482-0.715-1.482-1.209
		c0-0.676,0.247-1.015,0.741-1.015c0.13,0,0.559,0.131,1.287,0.391c0.728,0.26,1.378,0.391,1.949,0.391
		c1.481,0,2.224-0.455,2.224-1.365c0-0.493-0.215-0.857-0.645-1.092c-0.429-0.233-0.857-0.416-1.286-0.546
		c-0.43-0.131-0.645-0.339-0.645-0.624c0-0.053,0.025-0.209,0.078-0.469l0.624-2.066c-2.627-0.26-4.583-1.229-5.869-2.904
		C663.76,343.2,663.116,340.698,663.116,337.37z"/>
	<path d="M694.861,334.952v-1.833c0-2.185-1.432-3.275-4.29-3.275c-1.872,0-3.603,0.402-5.188,1.209
		c-0.546,0.287-0.845,0.43-0.896,0.43c-0.261,0-0.554-0.26-0.878-0.78c-0.325-0.52-0.487-0.909-0.487-1.17
		c0-0.546,0.761-1.099,2.281-1.657c1.521-0.56,3.348-0.839,5.479-0.839s3.874,0.54,5.228,1.618c1.352,1.079,2.026,2.581,2.026,4.505
		v8.735c0,1.561,0.064,2.691,0.195,3.394c0.182,0.963,0.272,1.47,0.272,1.521c0,0.313-0.247,0.54-0.74,0.683
		c-0.494,0.145-0.878,0.215-1.15,0.215s-0.462-0.025-0.564-0.077c-0.104-0.053-0.202-0.144-0.293-0.272
		c-0.093-0.13-0.163-0.254-0.216-0.371c-0.052-0.117-0.104-0.279-0.154-0.486c-0.054-0.209-0.099-0.37-0.138-0.487
		s-0.078-0.299-0.117-0.546s-0.071-0.41-0.098-0.488c-1.769,1.95-3.952,2.926-6.552,2.926c-2.003,0-3.614-0.494-4.836-1.481
		c-1.224-0.987-1.833-2.51-1.833-4.563s0.708-3.595,2.125-4.622c1.417-1.025,3.01-1.649,4.777-1.872
		C690.584,335.142,692.599,335.006,694.861,334.952z M692.677,323.682c-0.884,0-1.858-0.13-2.925-0.391
		c-1.066-0.26-1.769-0.39-2.105-0.39c-0.338,0-0.729,0.084-1.171,0.253c-0.441,0.17-0.806,0.254-1.092,0.254s-0.546-0.137-0.78-0.41
		c-0.232-0.271-0.351-0.525-0.351-0.76c0-0.494,0.441-0.98,1.326-1.463c0.884-0.479,1.768-0.722,2.651-0.722
		c0.883,0,1.853,0.131,2.905,0.391c1.054,0.26,1.787,0.39,2.203,0.39s0.825-0.084,1.229-0.254c0.402-0.168,0.728-0.253,0.975-0.253
		s0.494,0.145,0.741,0.43c0.247,0.286,0.371,0.532,0.371,0.74c0,0.494-0.442,0.981-1.326,1.464
		C694.444,323.442,693.561,323.682,692.677,323.682z M685.423,341.856c0,2.132,1.104,3.197,3.315,3.197
		c1.272,0,2.372-0.233,3.295-0.702c0.923-0.468,1.865-1.131,2.828-1.988v-4.603c-3.251,0-5.345,0.183-6.279,0.546
		c-0.494,0.183-1.014,0.417-1.561,0.702C685.955,339.555,685.423,340.505,685.423,341.856z"/>
	<path d="M712.431,347.901c-2.926,0-5.161-0.884-6.708-2.652c-1.548-1.768-2.32-4.335-2.32-7.701c0-3.367,0.779-5.961,2.341-7.781
		c1.56-1.819,3.782-2.729,6.669-2.729c2.886,0,5.089,0.903,6.61,2.71c1.521,1.809,2.28,4.407,2.28,7.802
		c0,3.393-0.748,5.967-2.242,7.722C717.564,347.023,715.355,347.901,712.431,347.901z M708.16,343.24
		c0.883,1.235,2.273,1.854,4.173,1.854c1.896,0,3.302-0.617,4.212-1.854c0.91-1.233,1.365-3.151,1.365-5.752
		c0-2.6-0.455-4.523-1.365-5.771s-2.314-1.872-4.212-1.872c-1.898,0-3.29,0.618-4.173,1.853c-0.885,1.235-1.326,3.159-1.326,5.772
		C706.834,340.08,707.275,342.006,708.16,343.24z"/>
</g>
<path d="M325.158,205H254c-6.627,0-14,7.373-14,14v71.158c0,6.627,7.373,13.999,15.125,13.999h71.158
	c5.502,0,12.875-7.372,12.875-13.999V219C339.158,212.373,331.786,205,325.158,205z M256.657,220.86l2.768-5.606l2.768,5.606
	l6.188,0.899l-4.478,4.365l1.057,6.163l-5.535-2.91l-5.535,2.91l1.057-6.163l-4.478-4.365L256.657,220.86z M330.76,286.349
	c0,4.971-4.029,9-9,9h-63.22c-4.971,0-9-4.029-9-9v-13.72c4.661-32.693,32.131-58.021,65.784-59.36h5.602
	c0.799,0.032,1.592,0.084,2.384,0.144c4.231,0.734,7.451,4.416,7.451,8.856L330.76,286.349L330.76,286.349z"/>
</svg>
