<?xml version="1.0" encoding="utf-8"?>
<!-- Generator: Adobe Illustrator 16.0.0, SVG Export Plug-In . SVG Version: 6.00 Build 0)  -->
<!DOCTYPE svg PUBLIC "-//W3C//DTD SVG 1.1//EN" "http://www.w3.org/Graphics/SVG/1.1/DTD/svg11.dtd">
<svg version="1.1" id="Layer_1" xmlns="http://www.w3.org/2000/svg" xmlns:xlink="http://www.w3.org/1999/xlink" x="0px" y="0px"
	 width="4472px" height="2260px" viewBox="0 0 4472 2260" enable-background="new 0 0 4472 2260" xml:space="preserve">
<g>
	<path fill-rule="evenodd" clip-rule="evenodd" fill="#01014E" d="M1222,185c15.223,1.349,30.463,2.529,45.664,4.09
		c19.219,1.972,38.477,3.764,57.588,6.524c23.767,3.433,38.69,22.868,36.916,46.778c-1.621,21.852-20.127,39.017-43.334,38.478
		c-15.262-0.354-30.476-2.877-45.704-4.496c-51.832-5.508-103.695-6.061-155.674-1.93c-69.092,5.489-136.559,18.97-202.277,40.811
		C789.82,356.916,679.602,423.672,584.792,515.778c-62.135,60.363-113.945,128.548-155.685,204.432
		c-4.401,8.002-7.72,16.135-7.517,25.523c0.403,18.566,12.441,34.738,30.375,40.315c17.144,5.331,36.217-1.314,46.76-16.412
		c1.9-2.721,3.449-5.694,5.062-8.606c77.597-140.129,187.287-247.313,329.942-320.307c72.616-37.157,149.478-61.653,230.168-73.921
		c11.525-1.752,23.072-3.458,34.663-4.651c20.852-2.148,38.885,8.004,46.501,25.704c11.055,25.691-4.786,55.241-32.584,59.161
		c-34.661,4.888-69.161,10.306-103.046,19.315c-114.116,30.344-214.02,86.141-299.295,167.738
		c-95.788,91.656-160.521,201.679-192.978,330.385c-15.909,63.087-22.27,127.217-19.594,192.224
		c0.961,23.342,20.144,42.104,42.586,41.907c22.986-0.202,42.269-19.715,41.943-43.467c-0.43-31.354,0.004-62.615,3.587-93.824
		c10.437-90.897,39.431-175.434,89.17-252.136c91.767-141.513,219.946-231.822,385.258-267.224
		c94.383-20.212,188.717-17.003,282.166,7.568c5.724,1.505,11.547,3.589,16.563,6.65c15.845,9.671,23.121,28.996,18.37,46.957
		c-4.734,17.895-20.683,31.255-39.207,31.655c-7.864,0.17-15.99-0.877-23.627-2.825c-48.421-12.358-97.527-18.446-147.485-16.455
		c-200.282,7.983-376.214,128.346-455.852,312.079c-34.207,78.919-47.052,161.49-39.548,247.095
		c10.871,124.02,60.398,230.596,148.07,318.639c82.629,82.979,182.431,133.651,298.981,147.822
		c159.697,19.417,298.763-27.561,417.568-135.379c12.064-10.948,23.277-22.938,34.074-35.162
		c35.752-40.473,79.59-66.382,133.251-74.386c125.948-18.788,229.848,63.003,249.756,173.274
		c12.131,67.193-4.066,128.043-49.08,179.734c-52.744,60.57-112.146,113.983-178.572,159.354
		c-113.9,77.796-238.595,129.149-374.611,152.74c-33.185,5.756-66.555,9.852-100.174,11.949c-3.607,0.225-7.171,1.152-10.754,1.754
		c-36.667,0-73.333,0-110,0c-3.59-0.568-7.163-1.291-10.772-1.681c-25.157-2.714-50.427-4.618-75.466-8.157
		c-95.376-13.48-186.573-41.214-272.853-83.963c-198.307-98.257-346.382-246.869-442.359-446.429
		c-53.177-110.569-81.877-227.723-88.807-350.228c-0.822-14.539-2.475-29.03-3.743-43.543c0-8,0-16,0-24
		c0.442-2.263,1.121-4.508,1.291-6.791c1.526-20.58,2.788-41.181,4.457-61.749c6.469-79.758,23.228-157.328,49.886-232.763
		c92.493-261.719,297.045-470.831,557.246-569.468c83.035-31.478,168.915-50.412,257.437-57.421
		c14.571-1.154,29.124-2.533,43.685-3.809C1174,185,1198,185,1222,185z"/>
	<path fill-rule="evenodd" clip-rule="evenodd" fill="#01014E" d="M4236,1311c-1.752,3.534-3.166,7.292-5.318,10.563
		c-8.383,12.747-24.076,18.987-39.182,15.875c-15.516-3.196-26.91-14.481-29.791-29.889c-0.789-4.22-1.107-8.586-1.111-12.886
		c-0.057-109.501-0.08-219.001,0.053-328.502c0.008-5.914,0.645-12.066,2.354-17.694c4.521-14.9,18.869-25.091,34.656-25.517
		c16.592-0.446,29.92,8.037,36.254,22.998c0.471,1.112,1.381,2.038,2.086,3.051C4236,1069.667,4236,1190.333,4236,1311z"/>
	<path fill-rule="evenodd" clip-rule="evenodd" fill="#01014E" d="M1184.419,1559.854c-160.854,1.496-311.84-90.133-385.94-238.014
		c-23.665-47.228-38.317-97.248-42.72-149.99c-10.833-129.762,28.635-242.237,116.55-338.059
		c13.482-14.695,29.525-20.405,48.608-15.516c31.378,8.04,42.378,45.598,21.154,70.166c-13.055,15.112-26.852,29.773-38.283,46.063
		c-48.007,68.406-67.678,144.61-60.332,227.839c13.295,150.633,125.703,273.036,269.648,303.863
		c80.583,17.257,157.678,6.268,230.659-32.084c10.035-5.273,20.066-8.481,31.438-8.013c20.131,0.829,35.956,13.041,40.926,32.065
		c4.939,18.91-2.708,38.078-20.089,47.94c-27.624,15.675-56.841,27.751-87.342,36.64
		C1268.122,1554.58,1226.701,1560.367,1184.419,1559.854z"/>
	<path fill-rule="evenodd" clip-rule="evenodd" fill="#01014E" d="M3625.025,1121.32c1.965,1.662,4.701,3.594,6.984,5.961
		c35.314,36.615,46.871,79.76,30.318,127.82c-16.379,47.55-51.393,74.844-101.42,82.099c-6.891,0.999-13.938,1.265-20.914,1.281
		c-46.313,0.108-92.623,0.093-138.936,0.002c-4.965-0.01-10.035-0.249-14.869-1.263c-17.17-3.6-29.031-17.732-30.029-35.304
		c-0.172-2.99-0.08-5.996-0.08-8.994c-0.004-108.284-0.004-216.569,0-324.854c0-2.998-0.098-6.005,0.078-8.994
		c1.164-19.82,16.178-34.846,35.996-36.099c1.33-0.084,2.662-0.197,3.992-0.195c44.645,0.065,89.305-0.552,133.93,0.382
		c66.133,1.385,119.121,55.907,119.35,122.051c0.082,23.823-6.33,46.057-19.236,66.26c-1.609,2.518-3.162,5.071-4.715,7.623
		C3625.316,1119.355,3625.338,1119.723,3625.025,1121.32z M3433.234,1261.445c2.898,0.273,5.152,0.671,7.406,0.673
		c34.604,0.039,69.209,0.106,103.813-0.066c4.93-0.024,10.023-0.689,14.75-2.061c22.52-6.534,36.162-28.087,32.99-51.546
		c-3-22.188-22.666-39.432-45.689-39.55c-34.938-0.18-69.875-0.062-104.813-0.028c-2.598,0.003-5.195,0.336-8.457,0.561
		C3433.234,1199.982,3433.234,1230.123,3433.234,1261.445z M3433.219,998.883c0,31.74,0,62.185,0,93.083
		c2.535,0.285,4.449,0.687,6.363,0.688c28.313,0.041,56.627,0.088,84.939-0.039c3.959-0.018,7.977-0.667,11.863-1.507
		c28.307-6.12,44.359-37.561,32.365-63.917c-8.4-18.459-23.338-27.811-43.473-28.212c-19.313-0.386-38.639-0.093-57.957-0.097
		C3456.352,998.881,3445.385,998.883,3433.219,998.883z"/>
	<path fill-rule="evenodd" clip-rule="evenodd" fill="#01014E" d="M3062.156,922.877c116.322,1.042,208.805,94.42,207.311,210.643
		c-1.445,112.518-92.527,205.219-209.256,204.768c-120.525-0.465-210.873-99.277-207.791-213.209
		C2855.531,1010.117,2950.881,921.742,3062.156,922.877z M2928.756,1131.69c1.641,73.458,61.986,132.097,134.082,130.463
		c76.398-1.731,132.334-65.331,130.105-136.271c-2.205-70.269-62.98-128.555-134.41-126.938
		C2987.203,1000.561,2928.861,1057.996,2928.756,1131.69z"/>
	<path fill-rule="evenodd" clip-rule="evenodd" fill="#01014E" d="M2373.826,1130.321c0.215-101.007,72.402-188.189,172.717-204.148
		c86.354-13.737,156.418,16.326,208.111,87.423c3.861,5.312,7.305,11.309,9.313,17.514c5.615,17.355-2.314,35.608-18.328,44.174
		c-15.9,8.506-35.662,4.889-47.24-8.77c-2.143-2.528-3.916-5.38-5.77-8.145c-30.201-45.066-82.898-67.259-135.477-57.033
		c-52.605,10.231-93.982,51.595-104.625,104.588c-13.842,68.927,33.121,139.35,102.172,153.212
		c54.85,11.012,107.102-10.375,138.154-56.874c5.732-8.584,12.314-15.686,22.295-19.057c15.076-5.092,31.512-0.524,41.68,11.568
		c10.441,12.417,12.033,29.448,3.564,43.859c-8.992,15.305-20.127,29.007-32.879,41.35
		c-113.164,109.541-304.447,57.41-346.305-94.371C2376.221,1167.526,2373.672,1149.103,2373.826,1130.321z"/>
	<path fill-rule="evenodd" clip-rule="evenodd" fill="#01014E" d="M1258.99,360.769c32.542,2.619,66.992,8.562,100.921,17.254
		c141.931,36.361,266.222,105.551,375.428,202.572c35.457,31.501,67.802,65.985,97.289,103.147
		c5.385,6.786,11.168,13.256,16.535,20.056c11.115,14.088,13.518,29.694,5.881,45.923c-7.844,16.67-21.908,24.286-40.166,24.855
		c-16.465,0.513-29.646-5.303-40.142-18.258c-18.453-22.776-36.47-46.007-56.289-67.558
		c-61.549-66.926-134.098-119.598-214.434-161.715c-61.368-32.172-125.562-56.923-193.571-70.905
		c-20.188-4.15-40.707-6.863-61.176-9.429c-27.539-3.452-44.959-26.718-39.044-53.156
		C1214.831,372.944,1233.25,359.882,1258.99,360.769z"/>
	<path fill-rule="evenodd" clip-rule="evenodd" fill="#01014E" d="M3863.127,1262.152c5.053,0,8.969,0,12.885,0
		c46.984,0.001,93.969-0.006,140.953,0.013c3.66,0.001,7.348-0.078,10.979,0.304c18.91,1.985,33.232,17.149,34.031,35.859
		c0.813,19.037-11.631,35.131-30.359,39.021c-3.561,0.739-7.26,1.132-10.895,1.135c-64.313,0.067-128.623,0.036-192.936,0.062
		c-9.963,0.004-19.156-2.301-27.049-8.63c-8.813-7.066-13.34-16.437-14.311-27.571c-0.26-2.979-0.119-5.994-0.119-8.992
		c-0.004-108.63-0.014-217.26,0.033-325.891c0.002-4.643-0.016-9.396,0.9-13.909c3.914-19.256,19.953-31.395,39.83-30.542
		c18.346,0.787,32.949,14.4,35.42,33.259c0.561,4.273,0.611,8.635,0.613,12.956c0.031,92.969,0.023,185.938,0.025,278.906
		C3863.129,1252.393,3863.127,1256.654,3863.127,1262.152z"/>
	<path fill-rule="evenodd" clip-rule="evenodd" fill="#01014E" d="M1465.295,222.005c5.391,1.237,12.378,2.097,18.828,4.438
		c67.845,24.618,131.746,57.404,193.595,94.331c55.286,33.009,108.178,69.41,156.282,112.397
		c11.16,9.974,21.719,20.636,32.314,31.222c6.238,6.235,10.131,13.92,12.24,22.54c4.594,18.762-3.525,37.377-20.477,46.63
		c-18.438,10.063-43.238,6.73-58.211-8.023c-89.631-88.327-193.46-155.062-309.42-203.271
		c-14.733-6.125-29.974-11.017-44.875-16.752c-17.794-6.849-28.365-23.354-27.421-42.228c0.907-18.126,13.082-33.807,30.754-38.924
		C1453.622,222.999,1458.708,222.91,1465.295,222.005z"/>
	<path fill-rule="evenodd" clip-rule="evenodd" fill="#01014E" d="M1176.711,700.979c71.945,0.025,132.7,12.882,190.489,39.379
		c18.56,8.51,27.753,23.365,26.88,42.673c-0.928,20.52-17.449,37.958-37.964,39.896c-10.784,1.02-20.988-0.563-31.075-5.182
		c-49.298-22.57-101.132-32.925-155.338-30.373c-34.466,1.622-68.059,8.241-100.482,20.148c-10.054,3.692-20.174,4.596-30.418,2.364
		c-17.993-3.921-31.549-19.522-32.864-37.026c-1.571-20.901,8.261-38.396,27.614-44.897c21.408-7.19,43.222-13.487,65.246-18.449
		C1127.118,703.13,1156.022,700.588,1176.711,700.979z"/>
	<path fill-rule="evenodd" clip-rule="evenodd" fill="#01014E" d="M1642.878,852.873c-16.79,0.386-29.373-6.432-38.75-19.617
		c-43.319-60.91-97.272-110.241-161.696-148.085c-15.506-9.108-23.646-22.323-22.963-40.255
		c0.653-17.157,9.188-30.074,24.768-36.969c15.823-7.003,31.765-5.707,46.959,3.177c39.289,22.973,75.539,50.012,108.778,81.074
		c29.551,27.615,56.051,57.917,79.622,90.801c8.738,12.191,11.466,25.354,7.26,39.736
		C1681.685,840.417,1664.173,854.205,1642.878,852.873z"/>
</g>
</svg>
