<?xml version="1.0" encoding="utf-8"?>
<!-- Generator: Adobe Illustrator 16.0.0, SVG Export Plug-In . SVG Version: 6.00 Build 0)  -->
<!DOCTYPE svg PUBLIC "-//W3C//DTD SVG 1.1//EN" "http://www.w3.org/Graphics/SVG/1.1/DTD/svg11.dtd">
<svg version="1.1"
	 id="svg1125" inkscape:version="0.92.2 (5c3e80d, 2017-08-06)" sodipodi:docname="UCL-Logo_Text.svg" xmlns:sodipodi="http://sodipodi.sourceforge.net/DTD/sodipodi-0.dtd" xmlns:inkscape="http://www.inkscape.org/namespaces/inkscape" xmlns:dc="http://purl.org/dc/elements/1.1/" xmlns:rdf="http://www.w3.org/1999/02/22-rdf-syntax-ns#" xmlns:svg="http://www.w3.org/2000/svg" xmlns:cc="http://creativecommons.org/ns#"
	 xmlns="http://www.w3.org/2000/svg" xmlns:xlink="http://www.w3.org/1999/xlink" x="0px" y="0px" width="201.26px"
	 height="56.693px" viewBox="0 0 201.26 56.693" enable-background="new 0 0 201.26 56.693" xml:space="preserve">
<sodipodi:namedview  inkscape:current-layer="layer1" inkscape:pageshadow="2" inkscape:window-width="1920" inkscape:window-y="27" inkscape:document-units="mm" inkscape:window-x="0" inkscape:window-height="996" inkscape:pageopacity="0.0" inkscape:window-maximized="1" id="base" borderopacity="1.0" inkscape:zoom="2.1573494" bordercolor="#666666" pagecolor="#ffffff" inkscape:cy="76.252573" inkscape:cx="162.39448" showgrid="false">
	</sodipodi:namedview>
<g id="layer1" transform="translate(0,-277)" inkscape:label="Camada 1" inkscape:groupmode="layer">
	
		<g id="g5712" transform="matrix(1.1190932,0,0,1.1190932,-56.890391,104.80565)" inkscape:export-xdpi="1136.999" inkscape:export-ydpi="1136.999" inkscape:export-filename="/home/vitor/Final.png">
		<g id="g5353-2-7-6" transform="translate(54.694524,112.00515)">
			<g id="g5220-5-7-2" transform="translate(62.339986,-141.75523)" inkscape:export-xdpi="265" inkscape:export-ydpi="265">
				<path id="path5109-4-5-8" inkscape:connector-curvature="0" d="M61.029,218.824h13.981v-1.921H63.249v-19.079h-2.22V218.824z"/>
				<path id="path5113-0-4-4" inkscape:connector-curvature="0" d="M101.146,202.924c-2.52,0-4.68,1.08-6,3.12v-9.479h-2.129v22.26
					h2.039v-3.121c1.291,2.13,3.48,3.271,6.09,3.271c4.499,0,7.86-3.271,7.86-8.04S105.646,202.924,101.146,202.924z
					 M100.996,217.084c-3.36,0-5.88-2.46-5.88-6.15c0-3.69,2.52-6.15,5.88-6.15c3.33,0,5.88,2.461,5.88,6.15
					C106.876,214.624,104.326,217.084,100.996,217.084z"/>
				<g id="g5166-5-8-7" transform="translate(-14.210722)">
					<path id="path5115-9-1-2" inkscape:connector-curvature="0" d="M96.739,218.974c4.62,0,8.01-3.361,8.01-8.04
						c0-4.68-3.39-8.01-8.01-8.01s-8.04,3.33-8.04,8.01C88.698,215.614,92.119,218.974,96.739,218.974z M96.739,217.084
						c-3.36,0-5.88-2.46-5.88-6.15c0-3.69,2.52-6.149,5.88-6.149s5.85,2.46,5.85,6.149
						C102.589,214.624,100.098,217.084,96.739,217.084z"/>
					<path id="path5117-4-2-4" inkscape:connector-curvature="0" d="M102.816,218.824h2.131v-15.816h-2.131V218.824z"/>
				</g>
			</g>
			<g id="g5124-9-6-8-0" transform="translate(80.84206,-141.75522)" inkscape:export-xdpi="265" inkscape:export-ydpi="265">
				
					<path id="path5073-7-9-9-6" inkscape:export-xdpi="265.39999" inkscape:export-ydpi="265.39999" inkscape:connector-curvature="0" fill="#FF7825" d="
					M-26.74,219.064c3.27,0,6.09-1.141,8.01-3.3l-1.95-1.89c-1.62,1.71-3.6,2.52-5.91,2.52c-4.74,0-8.25-3.42-8.25-8.07
					c0-4.649,3.51-8.07,8.25-8.07c2.31,0,4.29,0.78,5.91,2.491l1.95-1.89c-1.92-2.16-4.74-3.27-7.98-3.27
					c-6.39,0-11.13,4.53-11.13,10.74C-37.84,214.534-33.1,219.064-26.74,219.064z"/>
				
					<path id="path5075-7-2-3-2" inkscape:export-xdpi="265.39999" inkscape:export-ydpi="265.39999" inkscape:connector-curvature="0" fill="#FF7825" d="
					M-8.705,219.004c4.77,0,8.25-3.39,8.25-8.13c0-4.739-3.48-8.1-8.25-8.1c-4.77,0-8.28,3.361-8.28,8.1
					C-16.985,215.614-13.475,219.004-8.705,219.004z M-8.705,216.484c-3.06,0-5.37-2.22-5.37-5.61c0-3.389,2.31-5.58,5.37-5.58
					c3.06,0,5.34,2.19,5.34,5.58C-3.365,214.264-5.645,216.484-8.705,216.484z"/>
				
					<path id="path5077-6-2-6-9" inkscape:export-xdpi="265.39999" inkscape:export-ydpi="265.39999" inkscape:connector-curvature="0" fill="#FF7825" d="
					M15.648,196.564v8.76c-1.32-1.71-3.299-2.55-5.55-2.55c-4.65,0-8.04,3.24-8.04,8.1c0,4.861,3.39,8.13,8.04,8.13
					c2.34,0,4.38-0.9,5.67-2.7v2.52h2.761v-22.26H15.648z M10.338,216.484c-3.059,0-5.37-2.22-5.37-5.61
					c0-3.389,2.31-5.58,5.37-5.58c3.03,0,5.341,2.19,5.341,5.58C15.678,214.264,13.367,216.484,10.338,216.484z"/>
				
					<path id="path5079-4-4-8-9" inkscape:export-xdpi="265.39999" inkscape:export-ydpi="265.39999" inkscape:connector-curvature="0" fill="#FF7825" d="
					M36.877,210.963c0-4.889-3.27-8.19-7.86-8.19c-4.59,0-7.98,3.39-7.98,8.1c0,4.74,3.42,8.13,8.55,8.13c2.64,0,4.83-0.9,6.27-2.58
					l-1.59-1.86c-1.17,1.29-2.73,1.92-4.59,1.92c-3.15,0-5.4-1.86-5.76-4.65h12.9C36.847,211.564,36.877,211.203,36.877,210.963
					L36.877,210.963z M29.017,205.204c2.79,0,4.799,1.89,5.1,4.56h-10.2C24.217,207.064,26.256,205.204,29.017,205.204z"/>
			</g>
		</g>
		<g id="g879-0-0" transform="matrix(0.16066748,0,0,0.16066748,49.835871,123.23322)">
			<path id="path858-2-8" sodipodi:nodetypes="zzzz" inkscape:connector-curvature="0" fill="#FFA46D" d="M175.616,342.786
				c0-16.739-16.739-24.816-59.715,0c-42.976,24.81,13.519,31.638,28.124,32.061C158.629,375.27,175.616,359.52,175.616,342.786z"/>
			<path id="path856-1-1" sodipodi:nodetypes="czzczc" inkscape:connector-curvature="0" fill="#FF7825" d="M84.717,342.786v84.164
				c0,49.061,90.899,49.811,90.899,0v-84.164c-19.325,15.007-45.637,14.442-59.479,0C102.298,328.338,84.717,311.115,84.717,342.786
				z"/>
			<g id="g889-05-3" transform="matrix(0.94855573,0,0,0.99998304,2.6307902,-3.241447)">
				<ellipse id="path862-1-1" fill="#FF8B46" cx="113.229" cy="308.811" rx="13.779" ry="12.362"/>
			</g>
			<g id="g889-5-1-1" transform="matrix(0.82286335,0,0,0.85987993,23.394411,19.500105)">
				<ellipse id="path862-6-0-0" fill="#FFA46D" cx="158.462" cy="299.364" rx="13.779" ry="12.364"/>
			</g>
			<g id="g889-0-8-3" transform="matrix(0.61714751,0,0,0.71083408,21.149083,45.853544)">
				<ellipse id="path862-9-5-4" fill="#FFA46D" cx="164.546" cy="290.802" rx="13.778" ry="12.363"/>
			</g>
			<g id="text850-46-9" transform="translate(0,-3.1750001)">
				<path id="path852-2-1" sodipodi:nodetypes="cccsccsscsscc" inkscape:connector-curvature="0" d="M60.558,264.827v57.149
					c-3.172,18.885-10.882,19.39-22.339,28.004c12.47,3.139,22.339,15.892,22.339,34.858v57.143
					c3.479,27.635,36.485,40.952,53.118,29.606c-15.324,0-34.934-16.099-34.934-37.395v-57.035c0-14.024-5.456-22.339-14.026-26.755
					c8.571-4.155,14.026-12.465,14.026-26.755v-51.027c0-13.453,5.306-34.891,25.242-43.902
					C84.717,228.503,60.895,242.885,60.558,264.827z"/>
			</g>
			<g id="text850-4-5-9" transform="rotate(-180,49.865841,248.51283)">
				<path id="path852-0-8-6" sodipodi:nodetypes="cccsccsscsscc" inkscape:connector-curvature="0" d="M-96.569,64.449v63.15
					c-3.172,18.885-10.885,19.39-22.339,27.999c12.47,3.145,22.339,15.898,22.339,34.864v45.145
					c-0.177,18.787,20.685,34.125,41.118,34.103c-15.851-7.636-25.935-16.099-25.935-37.395v-49.534
					c0-14.024-5.456-22.339-14.026-26.755c8.571-4.155,14.026-12.465,14.026-26.755V69.245c0-20.074,10.749-35.879,29.313-38.535
					C-78.176,25.088-96.344,44.163-96.569,64.449z"/>
			</g>
		</g>
	</g>
</g>
</svg>
