<?xml version="1.0" encoding="utf-8"?>
<!-- Generator: Adobe Illustrator 16.0.0, SVG Export Plug-In . SVG Version: 6.00 Build 0)  -->
<!DOCTYPE svg PUBLIC "-//W3C//DTD SVG 1.1//EN" "http://www.w3.org/Graphics/SVG/1.1/DTD/svg11.dtd">
<svg version="1.1" id="Layer_1" xmlns="http://www.w3.org/2000/svg" xmlns:xlink="http://www.w3.org/1999/xlink" x="0px" y="0px"
	 width="1260.778px" height="326.679px" viewBox="89.865 77.962 1260.778 326.679"
	 enable-background="new 89.865 77.962 1260.778 326.679" xml:space="preserve">
<title>logo-light</title>
<desc>Created with Sketch.</desc>
<g id="logo">
	<g id="logo-light">
		<g id="concepta-verde">
			<g id="Group" transform="translate(87.567568, 73.125000)">
				<path id="LOGOTIPO_16_" fill="#007582" d="M664.686,134.861c5.564,38.303,37.93,67.654,77.032,67.654
					c23.432,0,44.521-10.566,58.726-27.297l-19.185-19.665c-9.227,11.888-23.578,19.665-39.541,19.665
					c-24.019,0-44.081-17.316-49.354-40.357h117.306c1.317-5.43,1.903-11.153,1.903-16.877c0-3.521-0.293-7.044-0.732-10.419
					c-4.979-35.955-35.88-63.691-73.224-63.691c-37.345,0-68.1,27.736-73.225,63.691C664.1,110.94,663.075,121.653,664.686,134.861z
					 M737.764,71.169c22.113,0,40.858,15.557,45.545,36.396h-91.091C696.905,86.726,715.504,71.169,737.764,71.169z M235.737,71.169
					c27.825,0,50.525,23.334,50.525,51.951s-22.7,52.098-50.525,52.098s-50.525-23.334-50.525-51.951
					C185.212,94.651,207.765,71.169,235.737,71.169L235.737,71.169z M235.737,43.873c-43.056,0-77.765,35.515-77.765,79.247
					s34.855,79.247,77.765,79.247s77.764-35.515,77.764-79.247S278.647,43.873,235.737,43.873L235.737,43.873z M119.603,155.553
					l19.185,19.519c-14.206,16.729-35.294,27.296-58.726,27.296c-43.056,0-77.764-35.515-77.764-79.247s34.854-79.247,77.764-79.247
					c23.432,0,44.521,10.566,58.726,27.296l-19.185,19.519c-9.227-11.887-23.579-19.665-39.542-19.665
					c-27.825,0-50.525,23.334-50.525,51.951s22.7,51.951,50.525,51.951C96.025,175.218,110.23,167.441,119.603,155.553z
					 M625.437,155.553l19.186,19.519c-14.206,16.729-35.295,27.296-58.727,27.296c-43.056,0-77.765-35.515-77.765-79.247
					s34.855-79.247,77.765-79.247c23.432,0,44.521,10.566,58.727,27.296l-19.186,19.519c-9.226-11.887-23.578-19.665-39.541-19.665
					c-27.825,0-50.524,23.334-50.524,51.951s22.699,51.951,50.524,51.951C602.006,175.218,616.212,167.441,625.437,155.553z
					 M476.938,110.206v89.667h-27.239v-89.667c0-21.573-17.428-39.037-38.955-39.037c-21.382,0-38.81,17.464-38.956,38.891v89.813
					h-27.239v-89.667c0-22.16,10.69-41.679,27.239-53.712c10.984-7.925,24.311-12.621,38.956-12.621
					c14.498,0,27.972,4.696,38.955,12.768C466.248,68.675,476.938,88.193,476.938,110.206z M920.679,43.873
					c-19.331,0-37.052,7.191-50.524,19.078c-16.695,14.528-27.239,36.102-27.239,60.169v118.284h27.239v-58.115
					c13.619,11.888,31.34,19.078,50.524,19.078c43.057,0,77.765-35.515,77.765-79.247S963.589,43.873,920.679,43.873z
					 M920.679,175.218c-27.825,0-50.524-23.334-50.524-51.951c0-28.616,22.699-51.95,50.524-51.95s50.525,23.334,50.525,51.95
					C971.204,151.884,948.504,175.218,920.679,175.218z M1056.876,145.867c0,16.143,13.034,29.204,29.144,29.204
					c3.222,0,8.055-0.146,17.574-2.495v27.003c-5.565,1.761-11.423,2.788-17.574,2.788c-31.193,0-56.383-25.389-56.383-56.5V4.837
					h27.239v39.036h46.718v27.296h-46.718V145.867z M1263.076,119.305c0-28.617-5.271-47.108-16.255-57.968
					c-11.57-11.447-28.705-17.464-49.646-17.464c-21.089,0-37.345,5.724-50.525,11.594l11.277,24.802
					c13.18-6.311,25.335-9.1,38.516-9.1c23.725,0,39.395,11.74,39.395,32.433c-10.105-2.201-23.725-5.136-39.688-5.136
					c-43.495,0-69.271,20.839-69.271,53.271c0,33.166,32.219,50.63,62.095,50.63c16.256,0,34.269-6.017,48.182-17.023
					C1254.143,171.843,1263.076,151.738,1263.076,119.305z M1189.559,175.218c-19.771,0-35.441-7.777-35.441-22.453
					c0-17.904,17.135-26.563,40.859-27.003c13.327-0.293,29.583,1.908,40.859,5.137
					C1235.837,147.922,1224.267,175.218,1189.559,175.218z"/>
				<path id="TAGLINE" fill="#007582" d="M165.588,303.046v-0.147c0-9.979,8.201-15.262,19.917-15.262
					c6.004,0,10.105,0.88,14.352,2.055v-1.468c0-8.365-5.126-12.621-13.767-12.621c-5.565,0-9.812,1.321-14.205,3.375l-2.05-5.723
					c5.125-2.349,10.105-3.963,16.988-3.963c6.59,0,11.716,1.761,15.084,5.137c3.222,3.229,4.833,7.777,4.833,13.795v28.617h-6.883
					v-6.897c-3.222,4.108-8.641,7.925-16.842,7.925C174.375,317.574,165.588,312.585,165.588,303.046z M200.004,299.377v-4.403
					c-3.369-1.026-7.908-2.054-13.62-2.054c-8.64,0-13.62,3.815-13.62,9.392v0.147c0,5.87,5.418,9.392,11.716,9.392
					C193.12,311.998,200.004,306.862,200.004,299.377z M223.728,310.677l3.515-4.989c5.126,3.815,10.691,6.017,16.256,6.017
					s9.666-2.936,9.666-7.484v-0.146c0-4.696-5.565-6.458-11.716-8.219c-7.322-2.055-15.523-4.549-15.523-13.208V282.5
					c0-8.071,6.737-13.354,15.963-13.354c5.711,0,12.009,2.055,16.842,5.137l-3.222,5.282c-4.394-2.788-9.373-4.549-13.766-4.549
					c-5.565,0-9.08,2.935-9.08,6.751v0.146c0,4.402,5.858,6.163,12.009,8.071c7.176,2.201,15.084,4.989,15.084,13.354v0.147
					c0,8.805-7.322,14.088-16.695,14.088C236.47,317.428,229,314.933,223.728,310.677z M274.107,310.677l3.515-4.989
					c5.126,3.815,10.691,6.017,16.256,6.017s9.666-2.936,9.666-7.484v-0.146c0-4.696-5.565-6.458-11.716-8.219
					c-7.322-2.055-15.523-4.549-15.523-13.208V282.5c0-8.071,6.736-13.354,15.963-13.354c5.711,0,12.009,2.055,16.842,5.137
					l-3.222,5.282c-4.394-2.788-9.373-4.549-13.766-4.549c-5.565,0-9.08,2.935-9.08,6.751v0.146c0,4.402,5.858,6.163,12.009,8.071
					c7.176,2.201,15.084,4.989,15.084,13.354v0.147c0,8.805-7.322,14.088-16.695,14.088
					C286.701,317.428,279.379,314.933,274.107,310.677z M349.821,311.558c6.443,0,10.983-2.642,14.791-6.604l4.394,3.963
					c-4.687,5.283-10.397,8.805-19.331,8.805c-12.888,0-23.286-9.832-23.286-24.508c0-13.648,9.519-24.508,22.407-24.508
					c13.767,0,21.82,11.007,21.82,24.802c0,0.587,0,1.32-0.146,2.494h-37.052C334.298,305.981,341.473,311.558,349.821,311.558z
					 M363.44,290.425c-0.878-8.512-5.711-15.703-14.938-15.703c-8.055,0-14.205,6.751-15.23,15.703H363.44z M391.265,304.22v-28.177
					h-6.443v-6.164h6.443v-14.088h7.03v14.088h14.791v6.164h-14.791v27.296c0,5.724,3.222,7.778,7.908,7.778
					c2.343,0,4.394-0.44,6.736-1.614v6.017c-2.489,1.321-5.126,2.055-8.348,2.055C396.977,317.428,391.265,313.759,391.265,304.22z
					 M464.783,269.733h7.03v7.925c3.075-4.55,7.176-8.806,15.084-8.806c7.615,0,12.448,4.109,15.084,9.393
					c3.368-5.137,8.348-9.393,16.402-9.393c10.69,0,17.428,7.191,17.428,18.785v28.91h-7.03v-27.296
					c0-9.099-4.54-14.089-12.155-14.089c-7.029,0-12.887,5.283-12.887,14.529v27.002h-6.884v-27.442
					c0-8.806-4.54-13.942-12.009-13.942s-13.033,6.164-13.033,14.822v26.71h-7.03V269.733z M553.385,303.046v-0.147
					c0-9.979,8.201-15.262,19.917-15.262c6.005,0,10.105,0.88,14.353,2.055v-1.468c0-8.365-5.126-12.621-13.767-12.621
					c-5.564,0-9.812,1.321-14.205,3.375l-2.051-5.723c5.126-2.349,10.105-3.963,16.988-3.963c6.59,0,11.716,1.761,15.084,5.137
					c3.222,3.229,4.833,7.777,4.833,13.795v28.617h-6.883v-6.897c-3.222,4.108-8.641,7.925-16.842,7.925
					C562.172,317.574,553.385,312.585,553.385,303.046z M587.801,299.377v-4.403c-3.368-1.026-7.908-2.054-13.62-2.054
					c-8.641,0-13.62,3.815-13.62,9.392v0.147c0,5.87,5.419,9.392,11.717,9.392C580.77,311.998,587.801,306.862,587.801,299.377z
					 M615.479,269.733h7.029v8.218c3.075-5.136,7.908-9.099,15.963-9.099c11.276,0,17.867,7.632,17.867,18.785v29.057h-7.03v-27.296
					c0-8.658-4.686-14.089-12.887-14.089c-8.055,0-14.06,5.871-14.06,14.676v26.856h-7.029L615.479,269.733L615.479,269.733z
					 M673.765,303.046v-0.147c0-9.979,8.201-15.262,19.917-15.262c6.005,0,10.105,0.88,14.353,2.055v-1.468
					c0-8.365-5.126-12.621-13.767-12.621c-5.564,0-9.812,1.321-14.205,3.375l-2.051-5.723c5.126-2.349,10.105-3.963,16.988-3.963
					c6.59,0,11.716,1.761,15.084,5.137c3.223,3.229,4.833,7.777,4.833,13.795v28.617h-6.883v-6.897
					c-3.222,4.108-8.641,7.925-16.842,7.925C682.406,317.574,673.765,312.585,673.765,303.046z M708.181,299.377v-4.403
					c-3.368-1.026-7.908-2.054-13.62-2.054c-8.641,0-13.619,3.815-13.619,9.392v0.147c0,5.87,5.418,9.392,11.716,9.392
					C701.152,311.998,708.181,306.862,708.181,299.377z M735.274,324.766l3.222-5.431c5.272,3.963,11.277,6.018,18.014,6.018
					c10.251,0,16.988-5.724,16.988-16.584v-5.576c-4.101,5.43-9.813,9.832-18.307,9.832c-11.276,0-21.967-8.364-21.967-21.866
					v-0.146c0-13.648,10.837-22.013,21.967-22.013c8.787,0,14.499,4.402,18.307,9.392v-8.364h7.029v38.596
					c0,7.191-2.196,12.768-6.005,16.583c-4.101,4.109-10.397,6.311-17.866,6.311C748.748,331.223,741.572,329.022,735.274,324.766z
					 M773.644,291.012v-0.146c0-9.539-8.348-15.85-17.135-15.85s-16.256,6.164-16.256,15.702v0.147
					c0,9.392,7.469,15.996,16.256,15.996S773.644,300.405,773.644,291.012z M822.704,311.558c6.444,0,10.984-2.642,14.792-6.604
					l4.394,3.963c-4.687,5.283-10.398,8.805-19.332,8.805c-12.887,0-23.285-9.832-23.285-24.508c0-13.648,9.52-24.508,22.407-24.508
					c13.766,0,21.82,11.007,21.82,24.802c0,0.587,0,1.32-0.146,2.494h-37.051C807.18,305.981,814.357,311.558,822.704,311.558z
					 M836.324,290.425c-0.879-8.512-5.712-15.703-14.938-15.703c-8.055,0-14.206,6.751-15.23,15.703H836.324z M861.66,269.733h7.029
					v7.925c3.075-4.55,7.176-8.806,15.084-8.806c7.616,0,12.448,4.109,15.085,9.393c3.368-5.137,8.348-9.393,16.402-9.393
					c10.69,0,17.427,7.191,17.427,18.785v28.91h-7.029v-27.296c0-9.099-4.54-14.089-12.155-14.089
					c-7.029,0-12.888,5.283-12.888,14.529v27.002h-6.883v-27.442c0-8.806-4.54-13.942-12.009-13.942s-13.034,6.164-13.034,14.822
					v26.71h-7.029V269.733z M974.426,311.558c6.443,0,10.983-2.642,14.791-6.604l4.394,3.963
					c-4.687,5.283-10.397,8.805-19.331,8.805c-12.888,0-23.285-9.832-23.285-24.508c0-13.648,9.519-24.508,22.406-24.508
					c13.767,0,21.821,11.007,21.821,24.802c0,0.587,0,1.32-0.146,2.494h-37.052C959.049,305.981,966.224,311.558,974.426,311.558z
					 M988.192,290.425c-0.879-8.512-5.712-15.703-14.938-15.703c-8.055,0-14.205,6.751-15.23,15.703H988.192z M1013.527,269.733
					h7.03v8.218c3.075-5.136,7.908-9.099,15.963-9.099c11.276,0,17.866,7.632,17.866,18.785v29.057h-7.029v-27.296
					c0-8.658-4.687-14.089-12.888-14.089c-8.055,0-14.059,5.871-14.059,14.676v26.856h-7.03L1013.527,269.733L1013.527,269.733z
					 M1077.818,304.22v-28.177h-6.443v-6.164h6.443v-14.088h7.03v14.088h14.791v6.164h-14.791v27.296
					c0,5.724,3.222,7.778,7.908,7.778c2.343,0,4.393-0.44,6.736-1.614v6.017c-2.49,1.321-5.126,2.055-8.348,2.055
					C1083.53,317.428,1077.818,313.759,1077.818,304.22z"/>
			</g>
		</g>
	</g>
</g>
</svg>
