<?xml version="1.0" encoding="utf-8"?>
<!-- Generator: Adobe Illustrator 16.0.0, SVG Export Plug-In . SVG Version: 6.00 Build 0)  -->
<!DOCTYPE svg PUBLIC "-//W3C//DTD SVG 1.1//EN" "http://www.w3.org/Graphics/SVG/1.1/DTD/svg11.dtd">
<svg version="1.1" id="Layer_1" xmlns="http://www.w3.org/2000/svg" xmlns:xlink="http://www.w3.org/1999/xlink" x="0px" y="0px"
	 width="731.316px" height="117.178px" viewBox="0 1 731.316 117.178" enable-background="new 0 1 731.316 117.178"
	 xml:space="preserve">
<g>
	<path fill="#0B8283" d="M123.577,1.036c-1.362,5.936-2.603,11.358-3.852,16.78c-1.467,6.369-2.986,12.728-4.367,19.116
		c-0.22,1.017-0.031,2.234,0.311,3.246c9.408,27.857-2.037,57.503-28.086,71.135c-17.462,9.139-35.401,8.949-53.281,0.642
		c-1.294-0.602-2.927-0.989-4.31-0.799c-8.925,1.229-17.823,2.651-26.733,3.993c-0.914,0.138-1.845,0.164-3.259,0.283
		c0.862-3.822,1.629-7.284,2.426-10.738c1.469-6.368,3.04-12.716,4.365-19.114c0.266-1.282-0.124-2.852-0.632-4.121
		C-6.594,49.575,10.669,13.394,43.42,3.591c12.978-3.884,25.876-3.452,38.448,1.641c3.071,1.244,5.892,1.285,9.02,0.782
		C101.581,4.296,112.3,2.74,123.577,1.036z M60.262,99.869c19.266,0.647,40.559-14.849,40.605-40.368
		c0.041-22.904-18.292-40.318-40.454-40.402C38.17,19.012,20.127,37.262,20.068,59.596C20.008,82.346,39.093,100.303,60.262,99.869z
		"/>
	<path fill="#173B63" d="M422.349,99.974c-0.041-0.883-0.109-1.663-0.109-2.444c-0.006-26.948,0.022-53.896-0.058-80.843
		c-0.006-2.258,0.669-2.82,2.837-2.777c9.908,0.199,19.84-0.124,29.726,0.414c19.312,1.05,36.342,17.835,38.904,37.035
		c2.931,21.963-12.052,43.566-34.336,48.002c-1.95,0.389-3.952,0.709-5.934,0.726c-9.835,0.083-19.67,0.056-29.506,0.057
		C423.415,100.142,422.957,100.043,422.349,99.974z M436.532,85.417c6.589,0,13.042,0.677,19.3-0.141
		c13.177-1.719,23.548-13.911,23.847-27.025c0.318-13.998-9.188-26.736-22.609-29.043c-6.533-1.123-13.351-0.594-20.038-0.799
		c-0.127-0.004-0.261,0.167-0.498,0.331C436.532,47.594,436.532,66.519,436.532,85.417z"/>
	<path fill="#173B63" d="M339.768,48.497c0,17.586,0,34.436,0,51.441c-4.738,0-9.257,0-13.979,0c0-28.39,0-56.816,0-85.774
		c18.991,17.091,37.76,33.982,57.018,51.315c0-17.519,0-34.469,0-51.522c4.987,0,9.604,0,14.396,0c0,28.549,0,57.058,0,86.121
		C378.059,82.884,359.202,65.95,339.768,48.497z"/>
	<path fill="#173B63" d="M731.273,57.206c0.993,22.778-20.033,43.28-43.394,43.111c-23.137-0.168-43.082-20.454-42.896-43.532
		c0.167-20.688,17.567-42.933,43.303-42.862C713.519,13.993,732.333,36.057,731.273,57.206z M659.485,57.01
		c-0.021,16.17,12.526,28.823,28.604,28.846c15.944,0.021,28.769-12.664,28.785-28.477c0.018-16.029-13.054-29.244-28.775-29.089
		C672.158,28.449,659.504,41.149,659.485,57.01z"/>
	<path fill="#173B63" d="M300.358,64.253c-1.072,0-2.017,0-2.961,0c-12.314,0-24.63,0.072-36.944-0.061
		c-2.51-0.026-3.092,0.767-3.032,3.131c0.156,6.058,0.052,12.121,0.052,18.463c14.436,0,28.616,0,42.946,0c0,4.872,0,9.462,0,14.208
		c-18.992,0-37.908,0-57.116,0c-0.041-0.823-0.119-1.666-0.119-2.508c-0.007-26.949-0.002-53.898-0.014-80.847
		c-0.001-1.502-0.179-2.744,2.12-2.732c17.833,0.087,35.665,0.048,53.498,0.054c0.469,0,0.938,0.07,1.591,0.123
		c0,4.652,0,9.229,0,14.041c-0.959,0.042-1.89,0.119-2.819,0.119c-12.475,0.008-24.951,0.052-37.425-0.04
		c-2.117-0.016-2.761,0.601-2.707,2.713c0.137,5.435,0.147,10.877-0.003,16.312c-0.063,2.264,0.541,3.021,2.913,3
		c12.314-0.114,24.629-0.054,36.944-0.054c0.955,0,1.91,0,3.077,0C300.358,54.832,300.358,59.333,300.358,64.253z"/>
	<path fill="#173B63" d="M631.205,26.536c-3.277,3.261-6.548,6.517-9.979,9.933c-6.558-6.466-14.816-9.089-24.22-7.79
		c-7.083,0.978-12.934,4.41-17.611,9.813c-9.532,11.008-9.189,27.204,0.628,38.074c9.314,10.313,27.857,13.873,41.569,1.151
		c3.188,3.34,6.379,6.682,9.59,10.045c-9.085,10.352-26.734,15.67-43.039,10.396c-18.191-5.884-30.111-22.501-30.058-41.77
		c0.051-17.949,12.657-34.795,30.337-40.41C604.645,10.829,622.201,16.245,631.205,26.536z"/>
	<path fill="#173B63" d="M175.134,85.826c14.552,0,28.685,0,43.005,0c0,4.751,0,9.343,0,14.131c-18.979,0-37.939,0-57.026,0
		c0-28.587,0-57.103,0-85.811c4.589,0,9.179,0,14.021,0C175.134,37.943,175.134,61.72,175.134,85.826z"/>
	<path fill="#173B63" d="M519.174,13.962c4.357,0,8.506-0.047,12.65,0.064c0.479,0.013,1.043,0.85,1.365,1.419
		c0.205,0.364,0.044,0.938,0.044,1.418c0.001,26.796,0.001,53.593,0.001,80.389c0,0.864,0,1.729,0,2.74c-4.779,0-9.303,0-14.062,0
		C519.174,71.444,519.174,42.872,519.174,13.962z"/>
	<path fill="#0B8283" d="M60.635,50.833c4.984,0.02,8.591,3.634,8.591,8.612c0,4.952-3.936,8.937-8.761,8.87
		c-4.884-0.066-8.6-4.003-8.547-9.052C51.97,54.253,55.526,50.815,60.635,50.833z"/>
</g>
</svg>
