<?xml version="1.0" encoding="utf-8"?>
<!-- Generator: Adobe Illustrator 16.0.0, SVG Export Plug-In . SVG Version: 6.00 Build 0)  -->
<!DOCTYPE svg PUBLIC "-//W3C//DTD SVG 1.1//EN" "http://www.w3.org/Graphics/SVG/1.1/DTD/svg11.dtd">
<svg version="1.1" id="Layer_1" xmlns="http://www.w3.org/2000/svg" xmlns:xlink="http://www.w3.org/1999/xlink" x="0px" y="0px"
	 width="731.316px" height="117.177px" viewBox="0 0 731.316 117.177" enable-background="new 0 0 731.316 117.177"
	 xml:space="preserve">
<g>
	<path fill-rule="evenodd" clip-rule="evenodd" fill="#FFFFFF" d="M123.577,0.036C112.3,1.74,101.581,3.296,90.888,5.014
		c-3.127,0.502-5.948,0.462-9.02-0.782c-12.572-5.093-25.47-5.524-38.448-1.64C10.669,12.394-6.594,48.575,6.159,80.458
		c0.508,1.27,0.897,2.839,0.632,4.121c-1.325,6.398-2.896,12.746-4.365,19.114c-0.796,3.454-1.563,6.916-2.426,10.738
		c1.414-0.119,2.345-0.146,3.259-0.283c8.91-1.342,17.808-2.764,26.733-3.993c1.382-0.19,3.016,0.197,4.31,0.799
		c17.88,8.308,35.819,8.497,53.281-0.642c26.05-13.632,37.495-43.276,28.086-71.135c-0.341-1.01-0.53-2.229-0.311-3.246
		c1.38-6.388,2.899-12.747,4.367-19.116C120.974,11.394,122.215,5.971,123.577,0.036z M422.349,98.974
		c0.608,0.069,1.066,0.168,1.524,0.168c9.836-0.001,19.671,0.027,29.506-0.056c1.98-0.017,3.982-0.337,5.934-0.726
		c22.284-4.435,37.266-26.039,34.335-48.002c-2.563-19.2-19.593-35.985-38.904-37.035c-9.886-0.538-19.816-0.215-29.725-0.414
		c-2.168-0.043-2.843,0.519-2.837,2.777c0.08,26.947,0.051,53.895,0.057,80.843C422.238,97.311,422.308,98.092,422.349,98.974z
		 M339.768,47.497c19.434,17.453,38.29,34.387,57.435,51.581c0-29.064,0-57.572,0-86.121c-4.794,0-9.409,0-14.396,0
		c0,17.054,0,34.004,0,51.522c-19.258-17.333-38.027-34.224-57.018-51.315c0,28.958,0,57.385,0,85.774c4.722,0,9.241,0,13.979,0
		C339.768,81.932,339.768,65.083,339.768,47.497z M731.273,56.206c1.06-21.149-17.755-43.213-42.986-43.283
		c-25.734-0.07-43.136,22.173-43.303,42.862c-0.186,23.078,19.76,43.364,42.896,43.532C711.24,99.486,732.268,78.984,731.273,56.206
		z M300.358,63.253c0-4.92,0-9.421,0-14.078c-1.167,0-2.122,0-3.077,0c-12.315,0-24.63-0.061-36.944,0.053
		c-2.372,0.022-2.976-0.735-2.913-3c0.151-5.433,0.14-10.876,0.003-16.311c-0.054-2.114,0.59-2.729,2.707-2.713
		c12.474,0.092,24.95,0.048,37.425,0.04c0.93,0,1.86-0.077,2.819-0.119c0-4.812,0-9.389,0-14.041
		c-0.653-0.053-1.123-0.123-1.591-0.123c-17.833-0.006-35.666,0.033-53.498-0.054c-2.299-0.011-2.121,1.23-2.12,2.732
		c0.012,26.949,0.007,53.897,0.014,80.847c0,0.842,0.078,1.685,0.119,2.508c19.208,0,38.124,0,57.116,0c0-4.746,0-9.336,0-14.208
		c-14.33,0-28.51,0-42.946,0c0-6.342,0.104-12.405-0.052-18.463c-0.061-2.364,0.522-3.157,3.032-3.131
		c12.313,0.133,24.629,0.061,36.944,0.061C298.341,63.253,299.286,63.253,300.358,63.253z M631.205,25.536
		c-9.004-10.291-26.561-15.708-42.783-10.556c-17.68,5.614-30.286,22.461-30.337,40.41c-0.055,19.269,11.865,35.886,30.057,41.77
		c16.305,5.273,33.955-0.045,43.04-10.396c-3.211-3.363-6.402-6.705-9.59-10.044c-13.712,12.721-32.255,9.161-41.57-1.152
		c-9.817-10.87-10.16-27.066-0.628-38.074c4.679-5.403,10.529-8.836,17.612-9.814c9.402-1.298,17.662,1.324,24.22,7.79
		C624.657,32.052,627.928,28.797,631.205,25.536z M175.134,84.826c0-24.106,0-47.883,0-71.68c-4.843,0-9.432,0-14.021,0
		c0,28.708,0,57.224,0,85.811c19.087,0,38.048,0,57.026,0c0-4.788,0-9.38,0-14.131C203.819,84.826,189.686,84.826,175.134,84.826z
		 M519.174,12.962c0,28.91,0,57.482,0,86.031c4.759,0,9.281,0,14.061,0c0-1.012,0-1.876,0-2.74c0-26.796,0-53.593-0.001-80.389
		c0-0.479,0.162-1.054-0.044-1.418c-0.322-0.569-0.886-1.407-1.365-1.419C527.68,12.915,523.531,12.962,519.174,12.962z"/>
	<path fill-rule="evenodd" clip-rule="evenodd" fill="#0B8283" d="M123.577,0.036c-1.362,5.935-2.603,11.358-3.852,16.78
		c-1.467,6.369-2.986,12.728-4.367,19.116c-0.22,1.017-0.031,2.235,0.311,3.246c9.408,27.858-2.037,57.503-28.086,71.135
		c-17.462,9.139-35.401,8.949-53.281,0.642c-1.294-0.602-2.927-0.989-4.31-0.799c-8.925,1.229-17.823,2.651-26.733,3.993
		c-0.914,0.138-1.845,0.164-3.259,0.283c0.862-3.822,1.629-7.284,2.426-10.738c1.469-6.368,3.04-12.716,4.365-19.114
		c0.266-1.282-0.124-2.852-0.632-4.121C-6.594,48.575,10.669,12.394,43.42,2.591c12.978-3.884,25.876-3.453,38.448,1.64
		c3.071,1.244,5.892,1.285,9.02,0.782C101.581,3.296,112.3,1.74,123.577,0.036z M60.262,98.869
		c19.266,0.647,40.559-14.849,40.605-40.368c0.041-22.905-18.292-40.319-40.454-40.403C38.17,18.012,20.127,36.262,20.068,58.596
		C20.008,81.346,39.093,99.303,60.262,98.869z"/>
	<path fill-rule="evenodd" clip-rule="evenodd" fill="#173B63" d="M422.349,98.974c-0.041-0.882-0.11-1.663-0.11-2.444
		c-0.006-26.948,0.023-53.896-0.057-80.843c-0.006-2.258,0.669-2.82,2.837-2.777c9.908,0.199,19.839-0.124,29.725,0.414
		c19.312,1.05,36.342,17.835,38.904,37.035c2.931,21.963-12.051,43.567-34.335,48.002c-1.951,0.389-3.953,0.709-5.934,0.726
		c-9.835,0.083-19.67,0.055-29.506,0.056C423.415,99.142,422.957,99.043,422.349,98.974z M436.532,84.417
		c6.589,0,13.042,0.676,19.3-0.141c13.177-1.719,23.548-13.911,23.847-27.025c0.318-13.998-9.189-26.737-22.61-29.043
		c-6.533-1.123-13.35-0.594-20.038-0.799c-0.127-0.004-0.261,0.167-0.498,0.331C436.532,46.593,436.532,65.519,436.532,84.417z"/>
	<path fill-rule="evenodd" clip-rule="evenodd" fill="#173B63" d="M339.768,47.497c0,17.586,0,34.435,0,51.441
		c-4.738,0-9.257,0-13.979,0c0-28.389,0-56.816,0-85.774c18.991,17.091,37.76,33.982,57.018,51.315c0-17.518,0-34.469,0-51.522
		c4.987,0,9.603,0,14.396,0c0,28.549,0,57.057,0,86.121C378.058,81.884,359.202,64.95,339.768,47.497z"/>
	<path fill-rule="evenodd" clip-rule="evenodd" fill="#173B63" d="M731.273,56.206c0.994,22.778-20.033,43.28-43.393,43.111
		c-23.137-0.168-43.082-20.454-42.896-43.532c0.167-20.689,17.568-42.933,43.303-42.862
		C713.519,12.993,732.333,35.057,731.273,56.206z M659.485,56.01c-0.021,16.17,12.527,28.824,28.604,28.846
		c15.944,0.022,28.768-12.664,28.785-28.476c0.018-16.03-13.054-29.245-28.775-29.089C672.158,27.449,659.504,40.149,659.485,56.01z
		"/>
	<path fill-rule="evenodd" clip-rule="evenodd" fill="#173B63" d="M300.358,63.253c-1.072,0-2.017,0-2.961,0
		c-12.314,0-24.63,0.072-36.944-0.061c-2.51-0.026-3.092,0.767-3.032,3.131c0.156,6.058,0.052,12.121,0.052,18.463
		c14.436,0,28.616,0,42.946,0c0,4.872,0,9.462,0,14.208c-18.992,0-37.908,0-57.116,0c-0.041-0.823-0.119-1.666-0.119-2.508
		c-0.007-26.949-0.002-53.898-0.014-80.847c-0.001-1.502-0.179-2.744,2.12-2.732c17.833,0.087,35.665,0.048,53.498,0.054
		c0.469,0,0.938,0.07,1.591,0.123c0,4.652,0,9.229,0,14.041c-0.959,0.042-1.89,0.119-2.819,0.119
		c-12.475,0.008-24.951,0.052-37.425-0.04c-2.117-0.016-2.761,0.6-2.707,2.713c0.137,5.434,0.147,10.877-0.003,16.311
		c-0.063,2.264,0.541,3.021,2.913,3c12.314-0.114,24.629-0.053,36.944-0.053c0.955,0,1.91,0,3.077,0
		C300.358,53.832,300.358,58.333,300.358,63.253z"/>
	<path fill-rule="evenodd" clip-rule="evenodd" fill="#173B63" d="M631.205,25.536c-3.277,3.261-6.548,6.516-9.979,9.932
		c-6.558-6.465-14.817-9.088-24.22-7.79c-7.083,0.978-12.934,4.411-17.612,9.814c-9.532,11.008-9.189,27.204,0.628,38.074
		c9.315,10.313,27.858,13.873,41.57,1.152c3.188,3.339,6.379,6.681,9.59,10.044c-9.085,10.352-26.735,15.67-43.04,10.396
		c-18.191-5.884-30.111-22.501-30.057-41.77c0.051-17.949,12.657-34.795,30.337-40.41C604.645,9.829,622.201,15.245,631.205,25.536z
		"/>
	<path fill-rule="evenodd" clip-rule="evenodd" fill="#173B63" d="M175.134,84.826c14.552,0,28.685,0,43.005,0
		c0,4.751,0,9.343,0,14.131c-18.979,0-37.939,0-57.026,0c0-28.587,0-57.103,0-85.811c4.589,0,9.179,0,14.021,0
		C175.134,36.943,175.134,60.72,175.134,84.826z"/>
	<path fill-rule="evenodd" clip-rule="evenodd" fill="#173B63" d="M519.174,12.962c4.357,0,8.506-0.047,12.65,0.064
		c0.479,0.013,1.043,0.85,1.365,1.419c0.206,0.364,0.044,0.938,0.044,1.418c0.001,26.796,0.001,53.593,0.001,80.389
		c0,0.864,0,1.729,0,2.74c-4.779,0-9.302,0-14.061,0C519.174,70.444,519.174,41.872,519.174,12.962z"/>
	<path fill-rule="evenodd" clip-rule="evenodd" fill="#FFFFFF" d="M659.485,56.01c0.019-15.861,12.673-28.562,28.613-28.719
		c15.722-0.156,28.793,13.059,28.775,29.089c-0.018,15.812-12.841,28.499-28.785,28.476
		C672.013,84.834,659.465,72.181,659.485,56.01z"/>
	<path fill-rule="evenodd" clip-rule="evenodd" fill="#0B8283" d="M60.635,49.833c4.984,0.019,8.591,3.634,8.591,8.612
		c0,4.952-3.936,8.937-8.761,8.87c-4.884-0.066-8.6-4.003-8.547-9.052C51.97,53.253,55.526,49.815,60.635,49.833z"/>
</g>
</svg>
