<?xml version="1.0" encoding="utf-8"?>
<!-- Generator: Adobe Illustrator 16.0.0, SVG Export Plug-In . SVG Version: 6.00 Build 0)  -->
<!DOCTYPE svg PUBLIC "-//W3C//DTD SVG 1.1//EN" "http://www.w3.org/Graphics/SVG/1.1/DTD/svg11.dtd">
<svg version="1.1" id="Layer_1" xmlns="http://www.w3.org/2000/svg" xmlns:xlink="http://www.w3.org/1999/xlink" x="0px" y="0px"
	 width="267.173px" height="59.508px" viewBox="0 0 267.173 59.508" enable-background="new 0 0 267.173 59.508"
	 xml:space="preserve">
<g>
	<path fill-rule="evenodd" clip-rule="evenodd" fill="#00A6E0" d="M267.149,34.038c0.322,8.226-2.623,15.255-7.889,21.414
		c-3.563,4.169-8.154,5.131-11.188,2.405c-3.578-3.215-3.439-6.638,0.459-11.338c7.609-9.174,5.992-22.098-3.605-28.828
		c-8.139-5.706-18.727-4.468-25.726,3.009c-6.753,7.214-6.949,18.047-0.271,25.8c2.636,3.062,3.933,6.192,1.774,9.901
		c-1.788,3.073-4.778,3.234-7.914,2.69c-2.168-0.376-3.401-2.076-4.672-3.537c-14.737-16.936-8.433-43.775,12.284-52.503
		C242.988-6.464,267.187,9.577,267.149,34.038z"/>
	<path fill-rule="evenodd" clip-rule="evenodd" fill="#00A6E0" d="M67.353,34.026c0.048,8.413-3.051,15.598-8.393,21.856
		c-3.326,3.896-7.747,4.559-10.867,1.919c-3.411-2.886-3.438-6.512,0.186-10.869c5.679-6.828,6.908-14.279,2.82-22.167
		c-3.772-7.277-10.192-10.97-18.309-10.54c-8.774,0.464-14.778,5.328-17.763,13.619c-2.106,5.85-1.165,11.409,2.28,16.538
		c0.831,1.237,1.901,2.312,2.773,3.523c2.444,3.396,2.802,6.875-0.604,9.734c-3.222,2.706-6.535,2.428-9.736-0.545
		C-4.069,44.27-3.135,20.93,12.16,8.223c10.595-8.802,22.829-10.7,35.362-4.908C60.335,9.236,67.004,19.761,67.353,34.026z"/>
	<path fill-rule="evenodd" clip-rule="evenodd" fill="#00A6E0" d="M105.035,59.376c-13.736,0.09-25.498-8.022-29.149-19.536
		c-4.103-12.935,0.053-26.421,10.394-33.729c11.145-7.877,25.168-7.816,35.752,0.187c0.923,0.698,1.74,1.548,2.556,2.377
		c2.873,2.918,3.226,6.137,0.726,9.389c-2.247,2.922-6.412,3.15-9.714,0.459c-3.942-3.212-8.407-4.825-13.369-4.216
		c-7.492,0.921-12.31,5.473-13.761,12.361c-1.297,6.155,1.594,13.387,6.633,16.594c6.14,3.908,13.689,3.572,19.556-1.04
		c2.119-1.666,4.028-3.572,7.05-2.679c5.511,1.63,6.982,7.744,2.779,11.76C118.83,56.707,112.1,59.513,105.035,59.376z"/>
	<path fill-rule="evenodd" clip-rule="evenodd" fill="#03A7E1" d="M102.845,36.814c-4.053-0.486-6.634-3.948-5.925-8.138
		c0.698-4.123,3.445-5.854,7.4-5.616c4.058,0.245,6.547,3.763,5.956,8.059C109.806,34.537,106.295,37.228,102.845,36.814z"/>
	<path fill-rule="evenodd" clip-rule="evenodd" fill="#00A6E0" d="M163.331,0.198c-16.658,0.232-29.968,14.328-29.397,30.055
		c0.6,16.542,12.813,29.085,29.548,29.13c16.699,0.046,29.73-12.906,29.717-29.539C193.186,13.5,179.639-0.03,163.331,0.198z
		 M163.466,45.912c-8.617,0.035-15.654-7.184-15.645-16.045c0.011-8.605,6.795-15.514,15.404-15.685
		c8.676-0.171,15.913,6.921,15.984,15.663C179.281,38.459,172.013,45.877,163.466,45.912z"/>
</g>
</svg>
