<?xml version="1.0" encoding="utf-8"?>
<!-- Generator: Adobe Illustrator 16.0.0, SVG Export Plug-In . SVG Version: 6.00 Build 0)  -->
<!DOCTYPE svg PUBLIC "-//W3C//DTD SVG 1.1//EN" "http://www.w3.org/Graphics/SVG/1.1/DTD/svg11.dtd">
<svg version="1.1" id="Layer_1" xmlns="http://www.w3.org/2000/svg" xmlns:xlink="http://www.w3.org/1999/xlink" x="0px" y="0px"
	 width="287.782px" height="120.559px" viewBox="0 0 287.782 120.559" enable-background="new 0 0 287.782 120.559"
	 xml:space="preserve">
<g>
	<path fill-rule="evenodd" clip-rule="evenodd" fill="#6C2A7F" d="M40.32,0c1.872,0.333,3.764,0.578,5.611,1.014
		C55.622,3.296,64,7.799,70.218,15.773c3.707,4.754,5.521,10.186,5.519,16.248c-0.007,21.236,0.029,42.472,0.047,63.708
		c0.003,3.71-1.794,5.492-5.536,5.494c-4.519,0.003-9.039,0.002-13.558,0c-1.732-0.001-3.324-0.468-4.225-2.023
		c-0.492-0.85-0.795-1.939-0.798-2.922c-0.045-19.798-0.021-39.595-0.042-59.393c-0.006-6.135-2.692-10.689-8.348-13.237
		c-1.421-0.64-3.066-1.028-4.623-1.078c-4.515-0.146-9.037-0.062-13.556-0.062c-0.23,0-0.459,0.054-0.85,0.104
		c0,0.503,0,0.971,0,1.438c0,23.597-0.089,47.195,0.073,70.791c0.034,4.883-2.258,6.605-6.441,6.418
		c-3.712-0.167-7.438-0.035-11.157-0.035c-4.49,0-5.193-0.472-6.724-4.505C0,76,0,55.28,0,34.56
		c0.084-0.252,0.217-0.499,0.245-0.758c0.709-6.44,7.159-13.22,13.583-14.078c2.124-0.284,4.301-0.206,6.454-0.208
		c0.854,0,1.105-0.29,1.082-1.107c-0.047-1.637-0.125-3.286,0.017-4.912c0.157-1.811,0.251-3.713,0.889-5.378
		c1.633-4.26,5.212-6.277,9.423-7.344c1.26-0.319,2.551-0.52,3.828-0.774C37.12,0,38.72,0,40.32,0z M24.136,19.495
		c0.753,0,1.189,0,1.624,0c4.039,0,8.077-0.023,12.115,0.016c1.112,0.011,2.245,0.105,3.33,0.338
		c8.121,1.742,13.396,8.37,13.399,16.812c0.008,19.713,0.002,39.426,0.004,59.14c0,1.988,0.403,2.392,2.374,2.393
		c4.438,0.002,8.877,0.002,13.315,0c2.018-0.001,2.478-0.453,2.477-2.446c-0.006-21.473-0.007-42.945-0.036-64.417
		c-0.001-1.23-0.141-2.476-0.365-3.688c-1.196-6.492-4.803-11.506-9.835-15.556c-6.49-5.223-13.95-8.164-22.229-8.934
		c-3.732-0.348-7.434-0.062-10.904,1.574c-2.575,1.214-4.465,3.143-4.844,5.991C24.186,13.545,24.265,16.434,24.136,19.495z
		 M21.351,22.504c-1.662,0-3.139,0.07-4.606-0.015c-3.139-0.181-5.805,0.948-8.147,2.898c-3.007,2.504-5.418,5.503-5.433,9.598
		C3.089,55.337,3.128,75.689,3.133,96.041c0,1.601,0.567,2.148,2.175,2.15c4.438,0.006,8.876,0.003,13.315,0.003
		c2.334-0.001,2.727-0.386,2.727-2.691c0.001-23.791,0-47.581,0-71.371C21.351,23.659,21.351,23.187,21.351,22.504z"/>
	<path fill-rule="evenodd" clip-rule="evenodd" fill="#6C2A7F" d="M136.354,98.033c0-0.77,0-1.322,0-1.875
		c0-23.834,0.033-47.668-0.043-71.502c-0.01-2.859,1.826-5.363,5.259-5.259c4.555,0.138,9.117,0.03,13.675,0.036
		c3.521,0.004,5.259,1.774,5.259,5.341c0.001,19.675-0.079,39.351,0.046,59.025c0.041,6.545-2.952,11.187-8.04,14.778
		c-2.441,1.724-5.191,2.617-8.227,2.477c-0.678-0.031-1.359-0.005-2.04-0.005c-2.917,0-2.906,0-2.92,2.979
		c-0.008,1.638,0.021,3.28-0.104,4.911c-0.385,5.007-3.229,8.184-7.713,10.054c-3.831,1.597-7.877,1.803-11.909,1.364
		c-9.691-1.055-18.286-4.741-25.453-11.418c-5.969-5.561-9.302-12.327-9.22-20.683c0.109-11.236,0.042-22.474,0.022-33.711
		c-0.018-9.755-0.077-19.51-0.107-29.266c-0.002-0.637,0.045-1.278,0.127-1.91c0.292-2.246,2.011-3.892,4.287-3.914
		c5.158-0.05,10.317-0.05,15.475,0.005c2.216,0.024,3.886,1.617,4.228,3.839c0.096,0.628,0.125,1.272,0.125,1.908
		c0.006,19.636,0.09,39.271-0.037,58.905c-0.051,7.789,6.455,14.22,13.953,13.945c3.954-0.145,7.917-0.025,11.876-0.025
		C135.306,98.033,135.738,98.033,136.354,98.033z M87.849,56.876c0,10.397,0.037,20.793-0.013,31.19
		c-0.036,7.498,2.894,13.67,8.284,18.703c6.518,6.087,14.343,9.469,23.143,10.562c3.951,0.491,7.9,0.333,11.638-1.318
		c2.993-1.323,4.977-3.514,5.3-6.843c0.212-2.18,0.055-4.393,0.176-6.585c0.066-1.188-0.249-1.587-1.508-1.567
		c-4.357,0.069-8.72,0.113-13.074-0.026c-8.702-0.28-15.681-7.624-15.681-16.359c-0.001-19.834,0-39.668-0.001-59.502
		c0-2.32-0.481-2.798-2.824-2.8c-4.279-0.003-8.558-0.007-12.836,0.002c-2.088,0.005-2.603,0.536-2.604,2.634
		C87.848,35.603,87.849,46.239,87.849,56.876z M139.327,98.033c1.529,0,2.886-0.086,4.229,0.016
		c4.441,0.336,7.772-1.721,10.582-4.859c2.265-2.53,3.407-5.439,3.394-8.941c-0.074-19.754-0.035-39.509-0.036-59.263
		c0-2.171-0.481-2.652-2.688-2.654c-4.279-0.005-8.558-0.006-12.836,0c-2.183,0.003-2.644,0.479-2.644,2.69
		c0,23.793,0,47.586,0,71.38C139.327,96.875,139.327,97.35,139.327,98.033z"/>
	<path fill-rule="evenodd" clip-rule="evenodd" fill="#6D6E71" d="M181.828,66.64c2.303-1.115,4.447-1.532,6.724-1.564
		c5.163-0.074,8.774,2.357,10.778,6.92c2.841,6.468,2.722,13.09-0.258,19.479c-2.745,5.886-8.096,7.647-13.707,6.961
		c-1.909-0.233-3.76-0.966-5.627-1.503c-0.705-0.202-0.943-0.722-0.943-1.467c0.016-14.872,0.017-29.744,0-44.617
		c-0.001-0.824,0.262-1.124,1.107-1.102c2.297,0.061,1.912-0.149,1.92,1.921c0.019,4.478,0.006,8.955,0.006,13.433
		C181.828,65.532,181.828,65.966,181.828,66.64z M181.828,81.862c0,4.196,0.022,8.394-0.019,12.589
		c-0.008,0.83,0.256,1.293,1.06,1.424c1.373,0.225,2.746,0.602,4.123,0.617c3.206,0.037,6.059-0.898,8.117-3.565
		c1.794-2.325,2.567-5.042,2.832-7.888c0.387-4.157,0.378-8.304-1.361-12.233c-1.313-2.967-3.334-5.223-6.662-5.797
		c-2.379-0.41-4.764-0.219-7.041,0.776c-0.766,0.335-1.079,0.74-1.069,1.607C181.854,73.549,181.828,77.705,181.828,81.862z"/>
	<path fill-rule="evenodd" clip-rule="evenodd" fill="#6D6E71" d="M237.605,82.253c0-4.639,0.031-9.278-0.023-13.916
		c-0.013-1.056,0.359-1.565,1.32-1.937c4.248-1.64,8.633-1.97,13.066-1.237c4.34,0.717,7.104,4.258,7.129,8.928
		c0.039,7.558-0.004,15.115,0.029,22.673c0.003,0.906-0.29,1.247-1.17,1.156c-0.396-0.041-0.848,0.103-1.186-0.043
		c-0.337-0.146-0.707-0.507-0.804-0.848c-0.137-0.481-0.036-1.03-0.036-1.55c0-7.157,0.004-14.315-0.001-21.474
		c-0.004-4.448-2.603-7.057-7.072-7.137c-2.403-0.044-4.779,0.018-7.085,0.868c-0.853,0.314-1.157,0.731-1.153,1.643
		c0.031,8.957,0.023,17.914,0.006,26.872c-0.001,0.521-0.083,1.438-0.299,1.493c-0.745,0.19-1.583,0.164-2.349,0.022
		c-0.194-0.036-0.354-0.806-0.356-1.239C237.597,91.77,237.605,87.012,237.605,82.253z"/>
	<path fill-rule="evenodd" clip-rule="evenodd" fill="#6D6E71" d="M209.623,68.694c-0.087-0.189-0.356-0.54-0.382-0.907
		c-0.023-0.333,0.121-0.884,0.357-0.999c4.131-2.015,8.433-2.67,12.872-1.218c3.471,1.136,5.633,4.005,5.68,7.655
		c0.096,7.395,0.056,14.79,0.094,22.185c0.004,0.691-0.218,1.119-0.865,1.386c-4.812,1.979-9.73,2.497-14.713,0.831
		c-3.455-1.156-5.295-3.688-5.497-7.359c-0.285-5.171,1.716-8.5,6.446-10.657c3.231-1.473,6.687-2.079,10.18-2.479
		c1.613-0.184,1.627-0.121,1.623-1.791c-0.002-0.639,0.001-1.28-0.063-1.915c-0.528-5.287-4.287-6.869-9.102-6.393
		C214.076,67.25,211.96,68.088,209.623,68.694z M225.419,87.114c0-2.437-0.014-4.873,0.009-7.309
		c0.007-0.797-0.154-1.188-1.098-0.973c-2.401,0.546-4.873,0.836-7.224,1.54c-5.095,1.523-7.031,4.33-6.957,9.625
		c0.043,3.047,1.73,5.385,4.651,6.234c3.196,0.93,6.376,0.712,9.52-0.357c0.799-0.272,1.133-0.704,1.116-1.572
		C225.389,91.908,225.42,89.511,225.419,87.114z"/>
	<path fill-rule="evenodd" clip-rule="evenodd" fill="#6D6E71" d="M268.381,73.68c0-7.557-0.007-15.114,0.019-22.67
		c0.001-0.409,0.229-1.143,0.422-1.167c0.771-0.1,1.575-0.017,2.349,0.108c0.11,0.018,0.17,0.643,0.171,0.987
		c0.012,3.838,0.008,7.677,0.008,11.516c0,11.394,0.004,22.787-0.019,34.182c0,0.411-0.223,1.15-0.413,1.175
		c-0.769,0.098-1.579,0.038-2.339-0.124c-0.146-0.031-0.188-0.792-0.189-1.216C268.378,88.873,268.381,81.276,268.381,73.68z"/>
	<path fill-rule="evenodd" clip-rule="evenodd" fill="#6D6E71" d="M286.943,65.266c-2.724,3.16-5.189,6.027-7.66,8.89
		c-1.697,1.966-3.373,3.949-5.115,5.874c-0.617,0.682-0.571,1.114,0.021,1.795c4.355,5,8.669,10.036,12.993,15.063
		c0.205,0.238,0.394,0.491,0.6,0.749c-1.81,0.721-3.225,0.347-4.389-1.08c-4.015-4.921-8.022-9.848-12.082-14.732
		c-0.595-0.716-0.538-1.15,0.016-1.813c3.842-4.598,7.674-9.203,11.458-13.849C283.927,64.76,285.331,65.646,286.943,65.266z"/>
</g>
</svg>
