<?xml version="1.0" encoding="utf-8"?>
<!-- Generator: Adobe Illustrator 16.0.0, SVG Export Plug-In . SVG Version: 6.00 Build 0)  -->
<!DOCTYPE svg PUBLIC "-//W3C//DTD SVG 1.1//EN" "http://www.w3.org/Graphics/SVG/1.1/DTD/svg11.dtd">
<svg version="1.1" id="Layer_1" xmlns="http://www.w3.org/2000/svg" xmlns:xlink="http://www.w3.org/1999/xlink" x="0px" y="0px"
	 width="752.927px" height="232.94px" viewBox="0 0 752.927 232.94" enable-background="new 0 0 752.927 232.94"
	 xml:space="preserve">
<g>
	<path fill-rule="evenodd" clip-rule="evenodd" fill="#B62E2D" d="M145.477,0c6.975,0.01,10.815,2.729,13.142,7.719
		c16.528,35.453,33.115,70.879,49.515,106.392c3.722,8.061,1.036,14.43-6.888,18.144c-35.118,16.456-70.281,32.813-105.478,49.102
		c-8.279,3.831-14.72,1.289-18.543-6.863c-16.396-34.963-32.687-69.976-48.942-105.005c-3.912-8.431-1.645-14.993,6.821-18.954
		c34.98-16.365,69.998-32.649,105.031-48.899C142.195,0.678,144.517,0.285,145.477,0z"/>
	<path fill-rule="evenodd" clip-rule="evenodd" fill="#B62E2D" d="M398.526,85.271c0,43.502-29.117,74.006-70.624,73.988
		c-41.94-0.017-70.268-30.796-70.252-76.33c0.015-41.698,29.737-72.251,70.331-72.297C369.431,10.587,398.526,41.37,398.526,85.271z
		 M374.343,85.268c-0.591-6.956-0.906-13.948-1.824-20.861c-3.305-24.875-18.967-42.905-39.004-45.212
		c-20.237-2.33-38.492,8.874-45.609,29.516c-8.275,23.999-8.234,48.54-0.045,72.558c6.427,18.85,22.677,30.143,40.622,29.959
		c17.951-0.183,33.475-11.933,40.289-30.557C372.948,109.247,373.921,97.34,374.343,85.268z"/>
	<path fill-rule="evenodd" clip-rule="evenodd" fill="#878787" d="M178.439,152.827c1.452,7.504-0.963,13.018-6.534,16.985
		c-28.075,19.998-56.037,40.164-84.479,59.629c-8.853,6.059-18.337,4.115-24.704-4.787c-19.954-27.899-39.737-55.93-59.054-84.272
		c-6.005-8.811-4.694-17.863,4.335-24.638c7.437-5.581,15.102-10.858,23.365-16.771c7.785,16.636,15.315,32.681,22.804,48.744
		c4.925,10.563,9.729,21.185,14.701,31.727c6.072,12.875,16.714,16.609,29.67,10.54c25.023-11.723,50.043-23.451,75.071-35.162
		C175.074,154.139,176.594,153.586,178.439,152.827z"/>
	<path fill-rule="evenodd" clip-rule="evenodd" fill="#B62E2D" d="M440.725,94.868c0,16.072-0.752,31.727,0.256,47.267
		c0.708,10.931,11.155,8.746,18.736,10.765c1.263,0.827,0.926,2.16-0.064,4.017c-18.447,0-37.076,0.005-55.704-0.012
		c-1.128-0.001-2.257-0.174-3.804-0.301c0.094-1.434,0.172-2.624,0.285-4.346c15.535,1,18.019-8.335,17.876-20.857
		c-0.353-30.984-0.368-61.979,0.011-92.963c0.148-12.212-3.422-19.994-16.456-19.288c-2.278-1.378-2.073-2.754-1.444-4.217
		c0.328-0.166,0.621-0.446,0.908-0.44c25.443,0.592,51.041-2.405,76.301,1.999c16.02,2.793,29.837,10.197,34.187,27.404
		c3.625,14.337,1.475,28.311-10.807,38.204c-14.763,11.892-32.648,13.166-50.746,12.778
		C447.126,94.811,443.991,94.868,440.725,94.868z M440.781,24.215c0,20.291,0,40.61,0,61.004
		c16.498,4.133,36.021-0.984,43.282-11.476c7.238-10.455,7.396-28.064,0.341-37.859C476.918,25.491,456.663,19.765,440.781,24.215z"
		/>
	<path fill-rule="evenodd" clip-rule="evenodd" fill="#B62E2D" d="M513.633,19.238c0-2.055,0-3.252,0-4.652
		c20.255,0,40.202,0,60.515,0c0,1.362,0,2.653,0,3.867c-18.885,3.655-19.346,4.154-19.271,23.584
		c0.095,24.49-0.575,49.025,0.706,73.456c1.241,23.659,14.341,34.941,37.032,34.648c24.295-0.313,37.895-11.895,38.829-35.554
		c1.025-25.952,0.359-51.975,0.302-77.966c-0.027-12.085-7.067-17.242-18.612-17.588c-0.395-0.798-0.873-1.454-1.03-2.18
		c-0.129-0.599,0.122-1.279,0.239-2.188c16.372,0,32.642,0,49.345,0c0,1.256,0,2.581,0,3.842
		c-17.367,3.956-19.652,6.796-19.724,24.455c-0.085,20.997,0.273,42.004-0.269,62.987c-1.018,39.359-22.813,57.938-62.362,53.773
		c-30.83-3.246-46.438-20.521-46.521-51.614c-0.06-22.332-0.308-44.669,0.101-66.994C533.155,27.883,530.654,17.831,513.633,19.238z
		"/>
	<path fill-rule="evenodd" clip-rule="evenodd" fill="#B62E2D" d="M738.6,11.621c1.654,0,2.946,0,4.67,0
		c1.572,15.172,3.128,30.19,4.726,45.602c-1.925,0-3.479,0-5.51,0c-4.398-18.181-13.916-31.993-33.47-36.104
		c-10.493-2.205-20.212-0.059-25.492,9.907c-5.396,10.182-2.296,20.056,6.64,26.656c12.296,9.083,25.463,16.989,38.263,25.391
		c15.987,10.495,27.749,23.399,23.696,44.41c-4.466,23.15-29.366,36.914-56.008,31.097c-5.831-1.273-11.534-3.234-17.188-5.191
		c-5.9-2.042-10.279-1.514-11.443,5.826c-1.678,0-3.1,0-5.033,0c-2.116-15.054-4.217-30.003-6.397-45.518
		c1.827-0.12,3.363-0.221,5.014-0.329c7.17,17.098,15.828,32.49,35.536,37.135c13.897,3.275,27.007-1.852,31.837-12.362
		c5.392-11.734,1.805-24.842-10.173-33.305c-11.824-8.354-24.321-15.751-36.406-23.744c-19.019-12.58-24.952-30.145-16.555-48.425
		c7.869-17.132,27.422-25.093,47.965-19.425c4.486,1.237,8.907,2.735,13.298,4.284C732.381,19.578,736.798,18.796,738.6,11.621z"/>
	<path fill-rule="evenodd" clip-rule="evenodd" fill="#878787" d="M558.109,227.286c-2.472,0-4.448,0-6.716,0
		c-3.281-9.911-6.557-19.804-10.466-31.615c-4.173,11.563-7.732,21.426-11.366,31.496c-2.169,0-4.276,0-6.928,0
		c-4.296-14.681-8.607-29.416-13.036-44.551c3.945,0,7.217,0,10.853,0c2.681,10.112,5.351,20.186,8.562,32.297
		c4.16-11.942,7.662-21.995,11.237-32.258c2.149,0,4.254,0,6.662,0c3.294,10,6.611,20.07,10.588,32.142
		c3.534-11.744,6.539-21.731,9.64-32.036c1.685,0,3.411,0,5.755,0C567.924,197.724,563.077,212.323,558.109,227.286z"/>
	<path fill-rule="evenodd" clip-rule="evenodd" fill="#878787" d="M372.394,228.287c-15.714-0.01-24.673-8.348-24.678-22.964
		c-0.004-14.28,10.4-24.099,25.481-24.045c15.127,0.055,24.86,9.096,25.017,23.237C398.364,218.221,387.42,228.297,372.394,228.287z
		 M386.995,204.567c-0.503-9.402-2.178-18.84-13.796-18.844c-12.09-0.004-14.124,10.015-14.386,19.505
		c-0.256,9.271,1.646,18.893,13.461,18.771C384.196,223.877,386.129,214.186,386.995,204.567z"/>
	<path fill-rule="evenodd" clip-rule="evenodd" fill="#878787" d="M679.984,227.222c-4.646,0-8.268,0-12.029,0
		c-3.652-6.351-7.248-12.605-11.745-20.426c0,7.875,0,13.866,0,20.246c-3.352,0-6.574,0-10.17,0c0-14.65,0-29.336,0-44.941
		c9.975,2.599,22.493-5.689,29.396,6.92c4.062,7.422-0.636,13.313-8.869,16.711C671.062,212.932,675.303,219.725,679.984,227.222z
		 M656.464,186.569c0,5.995,0,11.599,0,17.286c7.99-0.047,9.884-4.438,9.474-10.844C665.565,187.19,662.057,185.935,656.464,186.569
		z"/>
	<path fill-rule="evenodd" clip-rule="evenodd" fill="#878787" d="M626.395,227.203c-3.785,0-7.233,0-11.045,0
		c-1.521-4.134-3.055-8.3-4.665-12.676c-4.93,0-9.688,0-14.835,0c-1.51,4.146-3.03,8.323-4.594,12.617c-1.943,0-3.704,0-6.177,0
		c6.136-15.083,12.074-29.683,18.138-44.587c1.725,0,3.471,0,5.518,0C614.556,197.274,620.413,212.08,626.395,227.203z
		 M597.601,209.98c4.183,0,7.433,0,11.476,0c-1.768-4.825-3.358-9.165-5.515-15.049C601.243,200.787,599.568,205.015,597.601,209.98
		z"/>
	<path fill-rule="evenodd" clip-rule="evenodd" fill="#878787" d="M723.515,201.096c0,2.221,0,3.665,0,5.38
		c-4.629,0-9.052,0-13.582,0c-1.594,5.278-1.08,10.322-0.304,15.668c4.594,0,9.027,0,13.94,0c0.087,1.512,0.177,3.081,0.304,5.291
		c-4.483,0-8.605,0-12.728,0c-3.951,0-7.901,0-12.05,0c-0.173-1.336-0.363-2.127-0.364-2.918
		c-0.018-13.801-0.013-27.602-0.013-41.826c8.383,0,16.419,0,24.794,0c0,1.658,0,3.225,0,5.073c-4.505,0-8.906,0-13.769,0
		c0,4.473,0,8.672,0,13.332C714.246,201.096,718.663,201.096,723.515,201.096z"/>
	<path fill-rule="evenodd" clip-rule="evenodd" fill="#878787" d="M328.202,184.408c-0.869,2.634-1.519,4.604-2.383,7.223
		c-2.844-3.357-5.109-6.304-9.372-5.752c-2.699,0.349-4.832,1.378-5.697,4.099c-0.799,2.512,0.037,4.63,2.099,6.174
		c1.459,1.092,2.963,2.229,4.621,2.936c9.435,4.026,16.079,9.686,11.204,21.034c-3.503,8.155-15.777,10.738-26.491,5.704
		c0.583-2.641,1.195-5.414,2.042-9.253c1.301,1.955,1.915,3.034,2.678,3.995c2.528,3.182,5.85,4.3,9.772,3.381
		c2.86-0.669,4.722-2.488,5.052-5.486c0.442-4.014-2.263-6.022-5.277-7.687c-5.59-3.085-12.569-4.803-13.776-12.472
		c-0.937-5.954,0.382-11.407,6.108-14.67C315.141,180.012,321.425,180.691,328.202,184.408z"/>
	<path fill-rule="evenodd" clip-rule="evenodd" fill="#878787" d="M418.155,182.43c8.477,0,16.421,0,24.65,0c0,1.88,0,3.601,0,5.727
		c-4.518-0.22-8.935-0.435-13.939-0.679c0,4.631,0,8.832,0,13.515c4.273,0,8.682,0,13.5,0c0.177,1.973,0.315,3.516,0.484,5.396
		c-4.795,0-9.202,0-14.135,0c0,6.961,0,13.643,0,20.682c-3.748,0-6.972,0-10.561,0C418.155,212.317,418.155,197.638,418.155,182.43z
		"/>
	<path fill-rule="evenodd" clip-rule="evenodd" fill="#878787" d="M460.859,187.94c0-1.938,0-3.506,0-5.38
		c10.96,0,21.705,0,32.949,0c0.081,1.616,0.167,3.318,0.278,5.537c-3.759-0.222-7.183-0.423-11.182-0.658
		c0,13.235,0,26.237,0,39.613c-3.781,0-7.002,0-10.578,0c0-12.908,0-25.771,0-39.112C468.588,187.94,465.042,187.94,460.859,187.94z
		"/>
</g>
</svg>
