<?xml version="1.0" encoding="utf-8"?>
<!-- Generator: Adobe Illustrator 16.0.0, SVG Export Plug-In . SVG Version: 6.00 Build 0)  -->
<!DOCTYPE svg PUBLIC "-//W3C//DTD SVG 1.1//EN" "http://www.w3.org/Graphics/SVG/1.1/DTD/svg11.dtd">
<svg version="1.1" id="Layer_1" xmlns="http://www.w3.org/2000/svg" xmlns:xlink="http://www.w3.org/1999/xlink" x="0px" y="0px"
	 width="815.746px" height="142.053px" viewBox="0 0 815.746 142.053" enable-background="new 0 0 815.746 142.053"
	 xml:space="preserve">
<g>
	<path fill-rule="evenodd" clip-rule="evenodd" fill="#EC0000" d="M93.337,99.504c3.401-5.357,5.054-11.311,4.952-17.741
		c-0.09-5.618-1.596-10.879-4.408-15.751c-6.11-10.588-12.243-21.164-18.339-31.759c-6.083-10.57-6.407-21.347-1.052-32.296
		c0.28-0.573,0.615-1.121,0.949-1.665c0.121-0.196,0.315-0.346,0.247-0.274c7.396,16.658,17.722,31.792,26.536,47.752
		c2.662,4.819,4.923,9.697,5.233,15.257c0.101,1.802,1.352,1.915,2.553,2.26c10.063,2.9,19.6,6.914,27.75,13.65
		c2.387,1.973,4.63,4.214,6.545,6.643c8.062,10.22,7.82,22.265-0.522,32.277c-6.589,7.907-15.232,12.833-24.649,16.474
		c-17.065,6.598-34.814,8.557-52.982,7.417c-14.16-0.889-27.839-3.776-40.736-9.854c-6.26-2.95-12.019-6.663-16.883-11.649
		C-2.521,108.915-2.853,95.245,7.642,83.396c7.355-8.305,21.794-15.766,34.744-18.504c0.107,1.655,0.136,3.302,0.335,4.928
		c0.589,4.824,2.247,9.278,4.688,13.479c7.467,12.848,14.945,25.692,22.286,38.613c1.824,3.211,3.143,6.709,4.75,10.196
		c2.498-3.57,3.884-7.671,4.606-11.998c1.302-7.801-0.271-15.081-4.211-21.896C68.683,87.559,62.45,76.948,56.417,66.225
		c-5.979-10.63-6.041-21.445-0.396-32.271c0.287-0.549,0.656-1.055,0.858-1.375c7.045,15.996,16.94,30.438,25.313,45.711
		c1.843,3.362,3.945,6.585,5.726,9.979C89.83,91.907,91.502,95.672,93.337,99.504z"/>
	<path fill-rule="evenodd" clip-rule="evenodd" fill="#EC0000" d="M667.94,63.695c0-2.667-0.001-5.281,0-7.896
		c0-4.478-0.044-8.956,0.051-13.431c0.014-0.69,0.525-1.807,1.053-1.982c4.502-1.492,9.162-1.884,14.063-1.763
		c0,32.91,0,65.635,0,98.487c-4.614,0-9.141,0-13.97,0c-0.294-2.592-0.593-5.232-0.93-8.213c-0.544,0.507-0.862,0.715-1.063,1.006
		c-4.809,6.927-11.734,9.14-19.778,9.029c-16.11-0.22-26.851-10.599-29.56-27.493c-1.576-9.827-1.255-19.63,2.745-28.965
		c4.578-10.687,13.123-16.354,24.22-18.569c7.203-1.438,14.444-1.432,21.688-0.22C666.836,63.75,667.235,63.695,667.94,63.695z
		 M667.937,99.33c0-6.633-0.024-13.267,0.021-19.9c0.01-1.423-0.313-2.236-1.938-2.311c-4.842-0.222-9.723-1.092-14.508-0.71
		c-8.173,0.652-14.07,5.024-16.745,12.967c-2.841,8.438-2.751,16.972,0.191,25.382c1.565,4.474,4.457,8.019,8.929,9.817
		c8.235,3.313,15.974,1.895,23.121-3.102c0.597-0.417,0.882-1.633,0.892-2.482C667.971,112.438,667.939,105.884,667.937,99.33z"/>
	<path fill-rule="evenodd" clip-rule="evenodd" fill="#EC0000" d="M180.721,120.661c7.062,1.563,13.521,3.309,20.093,4.355
		c5.851,0.932,11.802,0.73,17.566-1.081c4.464-1.402,8.008-3.897,8.894-8.771c0.951-5.234-0.601-9.908-5.142-12.788
		c-4.695-2.978-9.79-5.33-14.744-7.89c-5.451-2.817-11.268-5.064-16.348-8.431c-11.447-7.582-15.042-22.555-8.835-34.606
		c2.858-5.549,7.52-8.993,13.243-11.169c11.172-4.25,32.429-3.632,43.959,1.474c-0.85,4.464-1.721,9.039-2.569,13.495
		c-5.487-1.132-10.494-2.379-15.572-3.155c-5.702-0.871-11.467-1.115-17.104,0.63c-9.5,2.942-12.163,13.263-4.774,19.905
		c3.303,2.97,7.568,4.963,11.593,7.015c5.825,2.969,11.965,5.332,17.717,8.426c6.097,3.28,11.23,7.815,13.483,14.663
		c4.108,12.484,1.264,29.517-19.302,34.845c-14.12,3.659-28.201,2.483-41.979-2.328c-1.907-0.666-2.605-1.66-2.166-3.715
		C179.541,127.754,180.134,123.929,180.721,120.661z"/>
	<path fill-rule="evenodd" clip-rule="evenodd" fill="#EC0000" d="M712.046,107.066c0.563,9.896,7.479,17.039,17.398,18.277
		c9.681,1.209,18.931-0.546,27.949-3.965c0.663-0.252,1.311-0.551,2.469-1.039c-0.843,4.722-1.554,9.079-2.468,13.394
		c-0.132,0.623-1.17,1.218-1.914,1.523c-8.002,3.287-16.4,4.173-24.921,3.477c-4.26-0.348-8.591-1.068-12.655-2.358
		c-9.897-3.142-16.432-9.956-19.532-19.843c-3.317-10.574-3.375-21.281-0.08-31.857c4.152-13.325,14.243-21.12,28.187-21.645
		c4.743-0.178,9.662,0.037,14.26,1.107c11.586,2.697,19.197,11.748,20.873,23.851c0.847,6.121,0.615,15.175-0.561,19.078
		C744.775,107.066,728.417,107.066,712.046,107.066z M746.457,94.033c-0.056-6.508-1.558-12.271-7.273-15.687
		c-6.3-3.765-13.072-3.719-19.407-0.072c-5.877,3.383-7.483,9.309-8.2,15.759C723.276,94.033,734.684,94.033,746.457,94.033z"/>
	<path fill-rule="evenodd" clip-rule="evenodd" fill="#EC0000" d="M319.397,137.126c-4.751,0-9.351,0-14.094,0
		c-0.297-2.499-0.584-4.917-0.912-7.675c-0.534,0.458-0.853,0.646-1.057,0.92c-4.904,6.56-11.709,8.641-19.565,8.56
		c-14.698-0.15-26.171-9.183-29.366-26.606c-1.65-8.997-1.434-18.003,1.427-26.773c4.005-12.278,12.821-19.254,25.224-21.577
		c12.28-2.3,24.494-1.365,36.501,2.142c1.266,0.369,2.001,0.756,1.996,2.375c-0.07,22.547-0.05,45.094-0.057,67.641
		C319.494,136.371,319.449,136.608,319.397,137.126z M304.067,99.374c0-6.794-0.044-13.589,0.032-20.383
		c0.018-1.599-0.441-2.351-2.099-2.372c-4.617-0.06-9.286-0.673-13.838-0.179c-8.617,0.938-14.639,5.663-17.277,14.093
		c-2.457,7.849-2.332,15.78,0.272,23.563c2.037,6.086,6.147,10.234,12.576,11.638c6.454,1.408,12.513,0.258,18.196-3.112
		c1.526-0.904,2.22-1.958,2.186-3.825C303.995,112.324,304.068,105.848,304.067,99.374z"/>
	<path fill-rule="evenodd" clip-rule="evenodd" fill="#EC0000" d="M510.948,137.117c-0.293-2.592-0.569-5.026-0.846-7.479
		c-0.252,0.055-0.479,0.037-0.53,0.124c-8.147,13.628-35.981,12.69-45.124-5.223c-7.171-14.05-7.328-28.686-1.205-43.076
		c4.718-11.091,14.281-16.292,25.746-17.915c11.428-1.618,22.787-0.779,33.935,2.43c1.642,0.473,2.271,1.195,2.266,2.98
		c-0.063,21.988-0.039,43.977-0.048,65.965c0,0.695-0.1,1.39-0.161,2.192C520.304,137.117,515.772,137.117,510.948,137.117z
		 M509.527,76.854c-6.416-0.793-12.662-1.458-18.904,0.175c-7.171,1.877-11.855,6.458-14.046,13.456
		c-2.379,7.605-2.304,15.323,0.021,22.914c1.958,6.392,6.075,10.87,12.814,12.341c6.449,1.408,12.526,0.271,18.203-3.138
		c1.439-0.864,2.088-1.834,2.077-3.608c-0.081-13.2-0.042-26.4-0.049-39.602C509.644,78.611,509.574,77.83,509.527,76.854z"/>
	<path fill-rule="evenodd" clip-rule="evenodd" fill="#EC0000" d="M604.428,137.141c-5.219,0-10.159,0-15.414,0
		c0-1.026,0-1.96,0-2.892c0-13.918,0.005-27.836-0.006-41.754c-0.001-1.358-0.011-2.725-0.147-4.073
		c-0.635-6.26-3.573-9.839-9.615-11.358c-7.121-1.79-14.258-1.015-21.601,0.135c0,20,0,39.876,0,59.896c-5.221,0-10.207,0-15.477,0
		c0-0.977,0-1.833,0-2.69c0-21.677,0.03-43.354-0.047-65.03c-0.007-2.083,0.604-2.847,2.664-3.282
		c11.706-2.472,23.453-4.209,35.443-2.676c6.76,0.864,13.204,2.606,18.17,7.698c4.454,4.567,6.036,10.354,6.098,16.465
		c0.161,16.075,0.055,32.154,0.049,48.231C604.545,136.195,604.479,136.58,604.428,137.141z"/>
	<path fill-rule="evenodd" clip-rule="evenodd" fill="#EC0000" d="M398.717,137.107c-5.039,0-9.971,0-15.318,0
		c0-0.887,0-1.802,0-2.718c0-13.68,0-27.36,0-41.042c0-0.479,0.001-0.96,0-1.439c-0.024-10.348-4.492-15.19-14.906-15.597
		c-4.765-0.186-9.555,0.331-14.335,0.491c-1.83,0.061-2.347,0.918-2.341,2.723c0.063,18.161,0.038,36.322,0.038,54.482
		c0,0.955,0,1.909,0,3.048c-5.153,0-10.143,0-15.286,0c0-23.32,0-46.646,0-70.383c3.344-0.678,6.812-1.467,10.311-2.076
		c10.215-1.779,20.457-2.517,30.768-0.72c13.748,2.396,20.819,10.122,21.074,23.98c0.292,15.915,0.135,31.837,0.164,47.757
		C398.886,136.072,398.785,136.531,398.717,137.107z"/>
	<path fill-rule="evenodd" clip-rule="evenodd" fill="#EC0000" d="M454.068,124.231c-0.537,3.777-1.036,7.719-1.721,11.627
		c-0.097,0.556-1.022,1.189-1.686,1.391c-7.361,2.235-14.813,2.443-22.174,0.214c-8.806-2.669-12.78-9.275-13.808-18.006
		c-0.177-1.504-0.193-3.032-0.194-4.549c-0.012-23.744,0.035-47.489-0.073-71.232c-0.012-2.455,0.797-3.462,3.072-3.753
		c4.013-0.514,8.016-1.112,12.365-1.723c0,9.264,0,18.008,0,27.05c8.299,0,16.322,0,24.75,0c-0.461,4.196-0.811,8.067-1.399,11.901
		c-0.078,0.505-1.374,1.162-2.115,1.173c-6.075,0.096-12.151,0.055-18.228,0.055c-0.866,0-1.732,0-2.739,0
		c-0.082,0.826-0.194,1.434-0.195,2.04c-0.01,10.953-0.008,21.905-0.005,32.858c0,0.479,0.022,0.959,0.055,1.438
		c0.47,7.129,4.416,11.093,11.555,10.973C445.554,125.619,449.568,124.781,454.068,124.231z"/>
	<path fill-rule="evenodd" clip-rule="evenodd" fill="#EC0000" d="M790.968,137.163c-5.286,0-10.149,0-15.206,0
		c-0.06-0.745-0.162-1.431-0.163-2.116c-0.009-22.066-0.006-44.132-0.009-66.198c0-1.113-0.166-2.148,1.388-2.583
		c12.56-3.516,25.324-3.998,38.768-2.896c-0.394,4.417-0.77,8.648-1.139,12.792c-3.072,0-5.761-0.057-8.445,0.013
		c-4.301,0.112-8.599,0.378-12.9,0.438c-1.921,0.027-2.335,0.839-2.329,2.628c0.06,18.309,0.036,36.616,0.036,54.925
		C790.968,135.107,790.968,136.047,790.968,137.163z"/>
</g>
</svg>
